<svg width="24" height="24" viewBox="0 0 24 24" fill="none" xmlns="http://www.w3.org/2000/svg">
<g id="file-icons:brainfuck" clip-path="url(#clip0_141_2721)">
<path id="Vector" d="M10.5568 2.1432C10.57 3.50276 9.75876 2.66905 9.76982 3.43269C9.77489 3.78167 10.2055 4.09297 10.4385 4.54376C10.7153 5.07931 10.7957 5.76626 10.7066 6.3094C10.6487 6.6627 10.5313 7.01834 10.374 7.34328C9.94668 8.22612 9.26573 8.70992 8.17931 8.62381C7.14693 8.54197 6.10697 8.55059 5.07145 8.4995C4.69818 8.48108 3.60126 8.11339 3.5684 8.33984C3.51975 8.67547 3.71076 8.91144 4.00472 9.00209C4.52058 9.16114 5.05195 9.31686 5.58768 9.36556C6.61884 9.45922 7.662 9.43756 8.69133 9.5427C9.23611 9.59834 9.79589 9.75364 10.2892 9.98159C11.1029 10.3575 11.3153 11.0159 11.2335 12.0377C11.1547 13.0217 10.6728 13.6962 9.78581 14.1499C9.58762 14.2513 9.39909 14.3723 9.21595 14.4974C8.9055 14.7095 8.92795 14.9572 9.26718 15.1119C9.46467 15.2019 9.6682 15.2798 9.86653 15.3682C10.7854 15.7781 11.3893 16.9471 11.1588 17.8661C11.0435 18.3256 10.4547 18.526 10.0705 18.2402C9.48295 17.8032 8.84775 17.4628 8.08926 17.3887C7.46929 17.3283 6.9419 17.5125 6.54037 17.9707C6.46129 18.061 6.3914 18.239 6.43345 18.3245C6.48253 18.4243 6.65282 18.5082 6.78145 18.5257C7.02829 18.5591 7.28306 18.5487 7.53417 18.5423C9.12759 18.5018 10.1521 19.1986 10.6931 20.6367C11.33 22.3296 9.95807 23.6596 8.54465 23.9369C7.56661 24.1288 6.73148 23.7941 5.96545 23.253C5.24611 22.7449 4.65679 22.116 4.10672 21.3961C4.6334 21.4192 5.12118 21.4157 5.60245 21.4676C6.25308 21.5378 6.89943 21.6467 7.54589 21.7488C7.67006 21.7684 7.79128 21.8242 7.90528 21.8795C8.22445 22.0343 8.22783 22.219 7.94934 22.4395C7.78875 22.4949 7.57861 22.6313 7.71243 22.771C7.85451 22.9064 7.96172 22.9188 8.09737 22.9554C8.21043 22.986 8.34225 22.9749 8.46187 22.9577C8.80997 22.9076 9.14212 22.8075 9.28753 22.4633C9.43439 22.1155 9.25307 21.8291 9.03736 21.5653C8.46253 20.8624 7.64334 20.6818 6.77517 20.6179C5.54939 20.5277 4.32225 20.4538 3.09773 20.351C2.82107 20.3277 2.54259 20.2377 2.28257 20.1369C1.61929 19.8799 1.37648 19.3022 1.62881 18.6669C2.04093 18.7786 2.44514 18.9262 2.8635 18.9935C3.77775 19.1406 4.62173 18.9591 5.33723 18.3692C5.69353 18.0754 5.88778 17.7074 5.80907 17.2409C5.76609 16.9861 5.60939 16.9074 5.39053 17.0566C5.17101 17.2062 4.96232 17.373 4.76437 17.5482C4.2157 18.0337 3.5774 18.1672 2.86453 17.9994C2.10515 17.8206 1.42209 17.5149 1.02614 16.8252C0.593575 16.0714 0.869246 15.0393 1.67301 14.3462C1.83825 14.2037 2.02504 14.0839 2.1577 13.9862C2.47303 14.2147 2.74467 14.4267 3.03314 14.6152C3.213 14.7328 3.40659 14.7291 3.52931 14.523C3.6532 14.3149 3.62306 14.1285 3.42361 13.9647C3.23948 13.8134 3.03961 13.6666 2.90025 13.4812C2.52712 12.9849 2.61501 12.3226 3.08503 11.9083C3.13612 11.8633 3.21703 11.825 3.28439 11.8246C4.07629 11.8196 4.86867 11.8092 5.66006 11.8298C5.95804 11.8376 6.26676 11.8857 6.54801 11.9781C7.2367 12.2044 7.623 12.8143 7.51748 13.4408C7.42078 14.0153 6.85636 14.4458 6.14611 14.4834C6.01757 14.4902 5.88576 14.4703 5.76032 14.4905C5.45611 14.5 5.51447 14.808 5.56818 14.8703C6.06337 15.4443 6.843 15.5878 7.51973 15.2421C9.11695 14.4262 9.23958 12.3497 7.74834 11.3858C7.19545 11.0285 6.57932 10.8305 5.92068 10.7987C5.11729 10.76 4.31006 10.7926 3.507 10.7508C2.72962 10.7103 2.03418 10.4443 1.51068 9.8674C1.10489 9.42022 1.01868 8.906 1.23393 8.34983C1.64756 7.28112 2.72386 6.72805 4.00462 6.96312C4.86956 7.12184 5.71809 7.36798 6.58636 7.50186C7.13104 7.58581 7.70611 7.59294 8.25445 7.53008C9.13804 7.42883 9.66436 6.89515 9.85448 6.06898C10.0462 5.23606 9.82382 4.53162 9.10265 4.00226C8.50814 3.56586 7.81204 3.374 7.08182 3.27884C6.28697 3.17525 5.50082 3.20937 4.73081 3.44C4.2929 3.5982 4.24678 3.87289 4.27251 4.00962C4.28957 4.10051 4.5164 4.21283 4.65206 4.21625C5.295 4.23247 5.94061 4.184 6.5819 4.217C7.26328 4.25211 7.94901 4.32434 8.48498 4.81348C8.87512 5.16959 9.0337 5.62128 8.88206 5.98676C8.71673 6.38525 8.28651 6.64142 7.73564 6.61194C7.33926 6.59075 6.94298 6.52437 6.55275 6.44923C5.72025 6.28892 4.89478 6.09415 4.06017 5.9458C3.70382 5.88251 3.33164 5.90005 2.95603 5.88031C2.57822 4.9408 2.35542 4.37567 3.33712 3.50248C4.24495 2.69492 5.32022 2.1312 6.61054 2.16172C7.05422 2.17226 7.49198 2.35789 7.93523 2.45145C8.30784 2.53011 8.68368 2.59569 9.06 2.65601C9.12862 2.66698 9.44545 2.7313 9.36 2.5879C9.22472 2.39033 9.13795 2.19533 8.99076 2.06047C8.32247 1.44823 7.49662 1.19187 6.5872 1.14772C6.465 1.14176 6.34233 1.14537 6.21989 1.1435C6.20831 1.14336 6.19687 1.13609 6.15178 1.12053C6.48192 0.62253 6.89053 0.22203 7.49418 0.0814519C8.2965 -0.105439 9.06206 0.0430144 9.74803 0.472249C10.4397 0.905046 10.5482 1.26219 10.5568 2.1432ZM1.45856 11.0396C1.27317 10.9364 1.15701 10.949 1.00434 11.0705C0.203293 11.7078 -0.0319724 12.5574 0.00309007 13.5031C0.015512 13.8376 0.121403 14.1461 0.423887 14.3481C0.682871 14.1375 0.9112 13.9176 1.17459 13.7472C1.44281 13.5734 1.74553 13.4482 2.04445 13.2959C1.91995 12.6437 2.11706 12.0491 2.48597 11.5051C2.13014 11.3473 1.77928 11.2181 1.45851 11.0396H1.45856ZM13.5086 2.20315C13.5303 1.3924 13.6143 1.02622 13.9272 0.710046C14.9574 -0.330814 16.7756 -0.208986 17.6257 0.955436C17.6611 1.00395 17.6913 1.05612 17.7367 1.12639C16.4778 1.17153 15.3254 1.3887 14.6287 2.50967L14.6616 2.63961C14.905 2.63961 15.1532 2.66881 15.3905 2.63145C15.6296 2.59372 15.8654 2.50681 16.0896 2.41208C16.9897 2.03164 17.8865 2.0698 18.7697 2.44161C19.4723 2.73739 20.1414 3.0958 20.6655 3.66059C21.1359 4.16759 21.2992 4.73858 21.0408 5.39801C20.9761 5.56311 20.9295 5.73495 20.874 5.9052C19.4392 5.80325 18.1318 6.37944 16.7573 6.55812C16.4485 6.59825 16.125 6.61883 15.8193 6.57481C15.1415 6.47722 14.8143 5.80165 15.1414 5.21403C15.4724 4.61919 16.0332 4.34089 16.6896 4.29294C17.504 4.23345 18.3235 4.23772 19.141 4.223C19.3369 4.21944 19.5394 4.2425 19.5932 4.00015C19.6457 3.76367 19.547 3.58067 19.3086 3.50558C17.8193 3.03626 16.3686 3.10423 15.0101 3.89764C14.1787 4.38317 13.8893 5.19045 14.1233 6.11745C14.3472 7.00461 14.9399 7.48254 15.9326 7.57587C16.9853 7.67487 17.9834 7.39892 18.983 7.14462C19.6395 6.97765 20.2941 6.83356 20.9767 6.97859C22.0133 7.19886 22.8082 8.24937 22.6287 9.17558C22.5249 9.71117 22.1657 10.068 21.708 10.3358C21.1527 10.6607 20.5448 10.7776 19.8975 10.7662C18.9725 10.75 18.0415 10.6867 17.1345 10.9456C16.5657 11.108 16.0624 11.3859 15.659 11.8088C14.8095 12.6995 15.0248 14.2251 16.1056 15.0553C16.8103 15.5966 17.6231 15.5552 18.2486 14.9294C18.3251 14.8528 18.3584 14.7033 18.3489 14.5928C18.3453 14.5501 18.1688 14.5047 18.0667 14.4906C17.8554 14.4616 17.6358 14.4766 17.4293 14.4312C16.8211 14.2978 16.4497 13.8903 16.3823 13.3163C16.3255 12.8318 16.6632 12.2953 17.1858 12.0404C17.6923 11.7934 18.237 11.8221 18.7796 11.8263C19.3403 11.8305 19.9012 11.8194 20.4618 11.8296C20.5678 11.8315 20.6994 11.8744 20.7736 11.9444C21.2839 12.4263 21.2638 13.2021 20.7352 13.708C20.6323 13.8065 20.5092 13.8848 20.397 13.9742C20.2035 14.1282 20.188 14.322 20.301 14.5194C20.4168 14.7218 20.6064 14.7364 20.7863 14.6157C21.0685 14.4262 21.3359 14.2158 21.6319 13.9978C22.3353 14.2914 22.9658 15.2629 22.947 16.0809C22.9285 16.8833 22.3772 17.5197 21.3903 17.8773C20.4852 18.2052 19.6604 18.1352 18.953 17.4268C18.8091 17.2827 18.6385 17.1602 18.4664 17.0477C18.2744 16.9221 18.1321 16.9696 18.081 17.2041C17.9647 17.7379 18.2128 18.1337 18.6188 18.4377C19.6205 19.188 20.713 19.1791 21.8425 18.7572C21.9418 18.7201 22.0382 18.6759 22.1349 18.6354C22.4191 19.1435 22.224 19.8558 21.6556 20.0596C21.0789 20.2663 20.4572 20.3916 19.8445 20.4563C18.7491 20.5721 17.6438 20.5962 16.5464 20.6968C15.9412 20.7522 15.4054 21.0065 14.9983 21.467C14.7326 21.7675 14.4921 22.09 14.69 22.5145C14.84 22.8363 15.3572 23.0338 15.8334 22.9543C15.9667 22.932 16.0866 22.8336 16.2125 22.7702C16.1349 22.6582 16.0782 22.5213 15.9755 22.439C15.6975 22.2164 15.693 21.9839 16.0371 21.8789C16.5623 21.7185 17.1058 21.5914 17.6511 21.5234C18.3283 21.4389 19.0153 21.429 19.7932 21.381C19.3959 21.822 19.071 22.2194 18.7069 22.5789C18.0434 23.234 17.3066 23.7801 16.3431 23.9585C14.6557 24.2709 12.9397 22.7714 13.1538 21.1641C13.3644 19.5828 14.6692 18.4941 16.2964 18.5378C16.5674 18.5451 16.8416 18.5585 17.1088 18.5259C17.2387 18.5101 17.4051 18.4202 17.4624 18.3156C17.505 18.238 17.4311 18.0549 17.3527 17.9663C16.8319 17.3768 16.1475 17.2288 15.4308 17.4733C14.8875 17.6587 14.3798 17.963 13.8866 18.262C13.5262 18.4804 12.9673 18.3248 12.8487 17.9156C12.5981 17.0515 13.1374 15.8655 13.9873 15.4284C14.2098 15.3139 14.4461 15.2252 14.674 15.1203C15.0115 14.9651 15.0386 14.7022 14.7301 14.4922C14.4874 14.3269 14.2415 14.1613 13.9797 14.0281C12.6522 13.3526 12.6109 11.754 12.8854 10.8077C13.0268 10.3202 13.4464 10.0607 13.8906 9.86426C14.7577 9.48092 15.692 9.50061 16.6166 9.4437C17.5322 9.38745 18.4466 9.29787 19.3567 9.18575C19.5928 9.15664 19.8278 9.01236 20.0305 8.87497C20.1449 8.79739 20.2391 8.63131 20.2556 8.49514C20.2701 8.37608 20.1959 8.19031 20.0992 8.13303C20.0242 8.08864 19.8547 8.19894 19.7262 8.23723C19.4251 8.327 19.1274 8.4724 18.8212 8.49265C17.8592 8.55626 16.8937 8.56442 15.9302 8.609C14.4474 8.67758 13.6012 8.02826 13.3197 6.5165C13.23 6.03486 13.2422 5.5265 13.2747 5.0345C13.3034 4.60006 13.5428 4.24723 13.941 4.01544C14.0598 3.9463 14.1837 3.87631 14.28 3.78209C14.3665 3.69753 14.5667 3.41305 14.1874 3.24439C14.1874 3.24439 13.487 3.0139 13.5086 2.20315ZM23.5949 14.3118C24.4274 13.7026 23.8885 11.4399 22.7749 10.952L21.5313 11.5054C21.9164 12.0501 22.0792 12.659 21.9805 13.232L23.5949 14.3118H23.5949Z" fill="#2E2E2E"/>
</g>
<defs>
<clipPath id="clip0_141_2721">
<rect width="24" height="24" fill="white"/>
</clipPath>
</defs>
</svg>
