<svg width="24" height="24" viewBox="0 0 24 24" fill="none" xmlns="http://www.w3.org/2000/svg">
<g id="emojione-monotone:cheese-wedge">
<path id="Vector" d="M23.2477 8.40637C23.229 7.0485 23.2241 6.68325 22.7497 6.342L22.7302 6.32812C22.5225 6.17062 21.9851 5.8875 21.7635 5.7735C18.8302 4.206 15.5392 3.375 12.2565 3.375C11.6044 3.375 11.0936 3.4065 10.7554 3.42787C10.6095 3.43687 10.5 3.44438 10.4306 3.44438C9.67986 3.44438 9.29773 3.69412 8.99848 3.92775C8.97073 3.9495 8.94636 3.97087 8.91973 3.987C8.89873 3.99787 8.87361 4.00575 8.84886 4.0155C8.46786 4.1625 8.08386 4.3965 7.85586 5.1075C7.77786 5.35162 7.23448 5.59725 7.02148 5.59725C6.49573 5.59725 6.10423 5.889 5.75923 6.14625C5.63886 6.23625 5.51436 6.32887 5.38573 6.4095C4.94323 6.68512 4.78273 6.92775 4.67923 7.24088C4.63235 7.23662 4.58531 7.23437 4.53823 7.23413C4.34436 7.23413 4.17298 7.27988 4.02711 7.36987C3.58236 7.47563 3.31423 7.77037 3.11886 8.35987C3.01627 8.31631 2.90593 8.29399 2.79448 8.29425C2.37786 8.29425 2.08048 8.5875 1.81836 8.84625C1.73773 8.92537 1.65448 9.00787 1.59148 9.05775C1.56898 9.07575 1.54573 9.08512 1.47973 9.10987C1.29373 9.17887 0.728981 9.38925 0.763481 10.2079C0.782981 10.6508 0.763106 11.7589 0.763106 11.7701C0.763106 12.3105 1.35861 12.6161 1.35973 12.9956C1.36048 13.203 0.842231 13.1992 0.842231 14.1731C0.842231 14.4202 0.858731 16.605 0.858731 16.863C0.858731 17.6182 1.55323 17.9449 1.21048 17.985C0.792731 18.0345 0.731606 18.8501 0.755231 19.4842C0.758981 19.5772 0.762356 19.6624 0.762356 19.7299C0.761606 20.3175 1.18273 20.625 1.59898 20.625C1.76698 20.625 1.91248 20.5793 2.02911 20.5421C2.07111 20.529 2.13448 20.5091 2.15848 20.5061C2.35536 20.4802 6.53736 19.8668 6.85798 19.7944C7.14523 19.7299 7.20261 19.1201 7.78086 19.0297C8.13261 18.975 8.34673 19.536 8.75886 19.536C8.84473 19.536 13.224 18.8614 13.7636 18.7751C14.5496 18.6491 14.2421 18.1939 14.6655 18.1665C14.9032 18.1511 15.3004 18.4654 15.708 18.4654C15.8801 18.4654 16.0864 18.4433 16.4194 18.3896C17.1296 18.2741 22.0181 17.5369 22.0676 17.5294C22.1141 17.5215 22.143 17.5185 22.1692 17.5155C23.1476 17.4038 23.1476 16.5562 23.1476 16.05C23.1476 15.5505 23.1679 14.4011 23.1896 13.1835C23.223 11.3561 23.2594 9.28575 23.2477 8.40637ZM22.4449 16.0496C22.4449 16.8877 22.3046 16.7741 21.9637 16.8326C21.9637 16.8326 17.0299 17.5766 16.308 17.6947C16.0305 17.7394 15.8449 17.7615 15.7087 17.7615C15.6641 17.7615 15.6274 17.7574 15.5917 17.7529C15.216 17.6681 15.4346 16.9792 14.6884 17.1225C13.869 17.2796 13.7632 18.0825 13.7617 18.096C13.6957 18.126 13.59 18.141 13.3594 18.1646C12.7826 18.2224 9.90186 18.6653 9.24748 18.7676C9.12373 18.7211 8.96211 18.6251 8.75136 18.4429C8.04748 17.8357 7.26336 17.8357 6.99298 18.3371C6.72223 18.8385 6.59436 18.9791 6.31911 19.182C6.05848 19.2413 2.36811 19.7693 2.06773 19.8086C1.89148 19.8315 1.71523 19.9219 1.59898 19.9219C1.51686 19.9219 1.46511 19.8765 1.46511 19.7302C1.46511 19.434 1.41298 18.8453 1.50186 18.6143C1.65673 18.5269 2.10148 18.6877 2.12361 18.0964C2.15098 17.3816 1.58736 16.8469 1.58436 16.8439C1.55735 16.6654 1.54456 16.4851 1.54611 16.3046C1.54611 15.3671 1.51911 14.4251 1.56973 14.0767C1.70061 13.8037 1.99236 13.7996 2.31298 13.5064C2.74648 13.1092 2.77273 12.2651 2.12511 12.2096C1.83186 12.1837 1.66986 12.1316 1.57536 12.081C1.50261 11.9991 1.4635 11.8928 1.46586 11.7833C1.46586 11.7833 1.48648 10.6474 1.46586 10.1786C1.44598 9.70837 1.70698 9.86513 2.02761 9.6105C2.29911 9.39563 2.59873 8.99925 2.79411 8.99887C2.82973 8.99887 2.86198 9.01238 2.89011 9.04275C2.97673 9.13688 3.12373 9.249 3.27973 9.249C3.44848 9.249 3.62736 9.11775 3.75223 8.69062C3.99336 7.86825 4.19361 8.142 4.37436 7.986C4.41598 7.95 4.47298 7.93913 4.53823 7.93913C4.64061 7.93913 4.76361 7.9665 4.88136 7.9665C5.01186 7.9665 5.13561 7.93275 5.21698 7.79025C5.41836 7.43813 5.25673 7.32075 5.75848 7.008C6.18036 6.74437 6.48898 6.4305 6.82686 6.336C7.24573 6.45337 7.71898 6.6675 8.63811 5.77012C9.08323 5.3355 8.37148 5.39887 8.76298 4.88287C8.92723 4.707 9.11061 4.68975 9.26848 4.60013C9.50923 4.46325 9.68961 4.14975 10.4314 4.14975C10.6672 4.14975 11.3119 4.08037 12.2572 4.08037C13.0252 4.08037 13.9957 4.12875 15.1054 4.29525C15.4046 4.37775 19.122 5.41163 20.6246 6.3045C21.6686 6.924 21.7237 7.01137 21.5884 7.2045C21.453 7.39838 21.1211 7.37287 18.5445 7.92225C18.0641 8.02387 17.7067 8.0535 17.7195 8.17237C17.733 8.29125 18.4635 8.10712 19.221 8.04712C19.9781 7.9875 22.1827 7.52588 22.3451 7.7235C22.4272 7.82363 22.5356 8.61525 22.5465 9.15637C22.5349 11.112 22.4449 14.9745 22.4449 16.0496Z" fill="#2E2E2E"/>
<path id="Vector_2" d="M14.067 9.039C13.7216 8.90063 13.8232 8.36663 13.9548 8.49525C14.0868 8.62388 14.148 8.76188 14.4926 8.7525C14.8376 8.74275 16.4613 8.24775 16.5318 8.52488C16.6027 8.802 17.394 9.0885 17.2518 8.892C17.1105 8.6955 17.1911 8.5545 17.3227 8.36663C17.4543 8.17838 17.5762 8.06888 17.1105 8.00963C16.6432 7.95075 16.5217 8.1285 16.5112 8.21738C16.5011 8.307 15 8.48475 14.7356 8.52488C14.4727 8.56388 14.4116 8.57438 14.3403 8.47538C14.2698 8.37638 14.2792 8.10862 13.3462 8.10862C12.4132 8.10862 12.6667 8.5245 12.7781 8.66363C12.8895 8.80163 12.555 8.86162 11.9973 8.93025C11.439 9 6.17434 9.792 5.96134 9.8115C5.74796 9.83138 5.21134 9.495 4.91659 9.654C4.62259 9.8115 4.77446 10.02 4.42909 10.0691C4.27759 10.0905 2.30321 10.3759 1.99534 10.4261C1.00009 10.5863 2.83496 10.509 3.45371 10.4501C4.07246 10.3901 5.08909 10.4212 5.29234 10.2232C5.49559 10.0252 5.82596 10.092 6.12071 10.0984C6.41396 10.1044 12.4233 9.05925 12.768 9.00038C13.1133 8.94113 13.1133 9.34688 13.4377 9.43613C13.7625 9.52463 14.4116 9.17813 14.067 9.039ZM7.94434 11.1596C7.04621 10.9294 5.78096 11.3224 5.37821 12.4616C5.27771 12.7455 5.22859 13.0755 5.25521 13.4546C5.38984 15.3574 8.27996 14.7671 8.81771 13.4546C9.19646 12.5321 9.23021 11.94 8.77909 11.5515C8.58896 11.3876 8.32271 11.2568 7.94434 11.1596ZM14.0715 11.8665C13.8157 12.2411 13.7006 12.6615 13.869 13.098C14.1176 13.7408 14.9032 14.1206 15.7207 14.1206C16.86 14.1206 18.0693 12.861 17.7731 12.2284C16.9736 10.5214 14.5233 11.2058 14.0715 11.8665ZM9.85796 16.3054C9.69709 17.1026 10.4913 17.4709 11.3088 17.4709C12.4481 17.4709 13.29 16.71 12.9941 16.0774C12.1942 14.3708 10.0537 15.3368 9.85796 16.3054ZM4.55021 16.1276C3.60521 16.1276 2.90659 16.7423 3.15221 17.2523C3.81596 18.63 5.59121 17.8507 5.75396 17.0685C5.88746 16.4254 5.22859 16.1276 4.55021 16.1276ZM20.0422 13.9808C19.1568 13.9808 18.5021 14.7394 18.732 15.3698C19.3537 17.0704 21.018 16.1081 21.1702 15.1429C21.2951 14.3483 20.6775 13.9808 20.0422 13.9808ZM20.862 9.66788C20.4517 8.80238 18.4721 8.85413 18.276 9.82238C18.1147 10.6193 18.909 10.9883 19.7265 10.9883C20.8657 10.9883 21.1608 10.2986 20.862 9.66788ZM16.3856 7.36688C17.5248 7.36688 18.4316 7.18538 18.1327 6.55425C17.7225 5.68875 15.924 5.70713 15.2647 6.52538C14.7551 7.15875 15.5685 7.36688 16.3856 7.36688ZM8.52671 8.676C9.66596 8.676 10.5731 8.4945 10.2742 7.86338C9.86396 6.99788 8.06509 7.01625 7.40621 7.8345C6.89621 8.46788 7.70959 8.676 8.52671 8.676ZM11.8252 6.351C12.9645 6.351 13.6492 6.09413 13.2315 5.53463C12.7042 4.82738 11.4956 5.10225 10.7043 5.50988C9.98209 5.88188 11.0077 6.351 11.8252 6.351Z" fill="#2E2E2E"/>
</g>
</svg>
