<svg width="29" height="30" viewBox="0 0 29 30" fill="none" xmlns="http://www.w3.org/2000/svg">
<g id="material-symbols:man-2">
<path id="Vector" d="M12.3743 26.8128V18.5633H9.42798V11.4922C9.42798 10.844 9.65897 10.2889 10.1209 9.82696C10.5829 9.36498 11.1376 9.13439 11.785 9.13517H16.499C17.1472 9.13517 17.7023 9.36616 18.1643 9.82814C18.6263 10.2901 18.8569 10.8448 18.8561 11.4922V18.5633H15.9098V26.8128H12.3743ZM14.142 7.95666C13.4938 7.95666 12.9388 7.72567 12.4768 7.2637C12.0148 6.80172 11.7842 6.24704 11.785 5.59964C11.785 4.95146 12.016 4.39638 12.478 3.9344C12.9399 3.47243 13.4946 3.24183 14.142 3.24262C14.7902 3.24262 15.3453 3.47361 15.8073 3.93558C16.2692 4.39756 16.4998 4.95224 16.499 5.59964C16.499 6.24782 16.2681 6.8029 15.8061 7.26488C15.3441 7.72685 14.7894 7.95745 14.142 7.95666Z" fill="#2E2E2E"/>
</g>
</svg>
