<svg width="100" height="173" viewBox="0 0 100 173" fill="none" xmlns="http://www.w3.org/2000/svg">
<g id="Group 9689">
<path id="Vector" d="M25.8016 120.166C25.8016 120.166 23.7021 129.301 24.7106 133.588C25.719 137.876 26.0965 149.984 26.0965 149.984L26.3501 169.351C30.5941 171.255 35.1919 172.244 39.8436 172.253C47.5104 172.253 50.1819 172.376 51.0489 172.123C51.9158 171.869 53.573 171.368 53.573 171.368C53.573 171.368 59.8775 172.63 64.1886 171.999C67.3108 171.428 70.3565 170.498 73.2648 169.227C73.2648 169.227 71.8789 143.927 70.2394 137.622C68.5999 131.318 67.4676 125.137 67.4676 125.137L67.214 120.85C67.214 120.85 58.7628 122.112 52.9656 122.365C47.1683 122.619 33.2914 120.348 31.7758 120.095C30.2601 119.841 26.468 119.086 26.468 119.086L25.8016 120.166Z" fill="#263238"/>
<path id="Vector_2" d="M47.9941 172.577H45.4758C43.9896 172.577 42.1437 172.577 39.8437 172.577C35.1451 172.552 30.5033 171.547 26.2145 169.628L26.0553 169.546L25.8017 149.995C25.8017 149.883 25.4125 137.876 24.4217 133.665C23.4073 129.36 25.4302 120.49 25.5127 120.101L25.554 120.012L26.3325 118.756L26.533 118.797C26.5684 118.797 30.331 119.552 31.8408 119.806C32.4305 119.906 47.0623 122.33 52.9716 122.071C58.6863 121.823 67.1256 120.573 67.1905 120.561L67.509 120.514L67.7802 125.12C67.7802 125.149 68.9244 131.33 70.5462 137.552C72.168 143.773 73.5244 168.171 73.5775 169.209V169.41L73.3947 169.492C70.4599 170.776 67.3865 171.716 64.2358 172.294C60.1488 172.884 54.3693 171.816 53.6203 171.675C53.2959 171.769 51.9395 172.188 51.1669 172.406C50.1186 172.578 49.0548 172.635 47.9941 172.577ZM26.6391 169.162C30.8058 170.978 35.2985 171.928 39.8437 171.952C42.1437 171.952 43.972 171.952 45.4817 171.952C48.861 171.952 50.4061 171.952 50.9841 171.816C51.8687 171.568 53.5023 171.061 53.5023 171.061H53.5731H53.6439C53.7088 171.061 59.9483 172.306 64.1415 171.686C67.1822 171.138 70.1503 170.244 72.9877 169.021C72.8462 166.597 71.5134 143.585 69.98 137.681C68.3582 131.436 67.2141 125.238 67.2023 125.173L66.9605 121.168C65.3622 121.404 58.1142 122.419 53.0011 122.643C47.1389 122.89 33.3092 120.626 31.77 120.366C30.4725 120.154 27.4707 119.558 26.6627 119.399L26.1261 120.266C25.9668 120.98 24.0973 129.49 25.0409 133.5C26.0494 137.77 26.4209 149.459 26.4386 149.954L26.6391 169.162Z" fill="#263238"/>
<path id="Vector_3" d="M32.6962 168.095H32.1065C32.1065 167.924 32.596 151.157 31.4813 141.703C30.8172 135.312 30.7738 128.871 31.3516 122.472L31.9413 122.531C31.3635 128.889 31.405 135.288 32.0652 141.639C33.2034 151.122 32.7021 167.93 32.6962 168.095Z" fill="white"/>
<path id="Vector_4" d="M55.9022 170.129L55.3125 170.088L57.3354 140.677L60.5318 135.824L61.0213 136.148L57.9133 140.872L55.9022 170.129Z" fill="white"/>
<path id="Vector_5" d="M55.5665 140.907C55.5451 137.323 55.1237 133.753 54.3103 130.262L54.9001 130.103C55.7199 133.643 56.1471 137.262 56.1739 140.895L55.5665 140.907Z" fill="white"/>
<path id="Vector_6" d="M31.1331 132.096L30.8972 131.554C35.9868 129.372 37.2724 122.879 37.2842 122.814L37.874 122.926C37.8091 123.203 36.5117 129.79 31.1331 132.096Z" fill="white"/>
<path id="Vector_7" d="M38.6583 43.5038L37.1544 44.3884C37.1544 44.3884 31.1448 46.1046 23.938 52.7924C16.7313 59.4802 15.1861 66.5218 15.1861 66.5218C15.1861 66.5218 12.2374 69.5472 10.934 71.9003C8.20937 76.7186 7.08884 78.1576 6.21601 80.3869C5.34318 82.6161 7.45449 94.8358 12.432 92.9486C17.4095 91.0614 28.9038 78.022 28.9038 78.022C28.9038 78.022 30.6199 95.8679 30.4489 96.7289C30.2779 97.5899 25.6424 119.894 24.9583 121.953C24.5415 123.224 24.3675 124.562 24.4452 125.898C24.4452 125.898 35.9395 129.33 44.0073 130.533C52.0751 131.737 56.3921 131.389 59.966 130.191C63.5399 128.994 69.06 126.588 69.06 126.588C69.06 126.588 67.6858 90.5483 67.8805 81.4543C68.0751 72.3604 67.8805 67.2118 67.8805 67.2118C67.8805 67.2118 71.4838 70.4731 82.6242 70.4731C93.7647 70.4731 98.4119 71.8414 99.4381 70.4731C100.464 69.1049 98.5829 50.05 97.7219 45.9336C96.8609 41.8171 92.4141 28.4297 92.4141 28.4297C92.4141 28.4297 89.3297 20.0199 88.4687 19.5068C87.6077 18.9937 83.332 20.3855 83.332 20.3855L83.503 22.7858L80.3832 20.3855L79.2037 21.2407C79.2037 21.2407 81.2619 26.5484 81.2619 27.9343C81.2576 28.7759 81.0914 29.6089 80.7724 30.3877C80.7724 30.3877 76.308 30.5587 75.7949 31.4198C75.2818 32.2808 78.266 32.2454 78.7791 32.2454C79.2922 32.2454 81.1381 33.649 82.6596 33.307C84.1812 32.9649 87.301 32.3811 87.301 32.3811C87.301 32.3811 88.4805 49.9026 87.9556 52.6449C87.4307 55.3873 86.4105 56.5963 86.4105 56.5963C84.5158 54.9548 82.195 53.8834 79.7168 53.506C75.7713 52.9929 69.7618 51.9608 68.7356 51.6188C67.7094 51.2767 63.7227 47.3254 59.6416 46.1282C57.3934 45.4374 55.0968 44.915 52.771 44.5653C52.771 44.5653 42.3914 42.7961 38.6583 43.5038Z" fill="white"/>
<path id="Vector_8" d="M52.5294 131.571C49.6624 131.532 46.8022 131.282 43.9721 130.822C35.9809 129.643 24.5102 126.217 24.3687 126.181L24.18 126.122V125.928C24.0991 124.55 24.2772 123.17 24.7049 121.858C25.3831 119.835 30.0126 97.6784 30.1896 96.6699C30.3016 96.0271 29.3875 85.8303 28.7034 78.7238C26.5036 81.1771 17.0499 91.5273 12.5619 93.2258C11.9675 93.4543 11.3171 93.4937 10.6996 93.3385C10.082 93.1833 9.52751 92.8412 9.11182 92.3588C6.2928 89.5221 5.31382 81.9851 5.97434 80.2807C6.62462 78.7302 7.41419 77.2419 8.33335 75.834C8.95849 74.7842 9.73696 73.475 10.6924 71.7529C11.9185 69.8268 13.3351 68.0289 14.9209 66.3862C15.1273 65.5664 16.9673 58.8786 23.7377 52.5919C30.6201 46.2049 36.5058 44.2882 37.0366 44.1289L38.5994 43.2266C42.3443 42.513 52.3937 44.2056 52.8183 44.2823C55.1538 44.6269 57.4602 45.1453 59.7184 45.8333C62.5256 46.659 65.2562 48.7408 67.0667 50.1149C67.6161 50.5741 68.2086 50.979 68.836 51.3239C69.8268 51.6601 75.854 52.6921 79.7582 53.1993C82.1872 53.5631 84.4709 54.5826 86.3634 56.1481C87.0268 55.0548 87.4715 53.843 87.6727 52.5801C88.1327 50.109 87.195 35.1529 87.0358 32.7231C86.1983 32.8824 83.9573 33.3129 82.7306 33.5842C81.5039 33.8555 80.3362 33.2303 79.5105 32.8352C79.2809 32.7063 79.0376 32.6034 78.7851 32.5285H78.7379C76.2138 32.5285 75.6948 32.1747 75.5179 31.868C75.4661 31.7783 75.4389 31.6766 75.4389 31.5731C75.4389 31.4696 75.4661 31.3679 75.5179 31.2782C76.0428 30.4054 79.2864 30.1695 80.5485 30.0987C80.8017 29.4028 80.9353 28.669 80.9436 27.9284C80.9436 26.8492 79.4692 22.8094 78.9031 21.3468L78.8205 21.1286L80.3833 19.9963L83.1434 22.1548L83.0018 20.1791L83.226 20.1083C83.9631 19.8724 87.6904 18.7224 88.6163 19.2827C89.5422 19.8429 92.1548 26.9495 92.6856 28.3531C92.7327 28.5005 97.1677 41.8112 97.9933 45.8982C98.7423 49.478 100.812 69.1344 99.6564 70.6678C98.9664 71.5878 97.2326 71.4698 93.4405 71.2044C90.8515 71.0275 87.3011 70.7857 82.6067 70.7857C73.613 70.7857 69.4965 68.698 68.1578 67.837C68.1991 69.4529 68.2757 74.2417 68.1578 81.4897C67.9926 90.4716 69.3373 126.246 69.3373 126.606V126.806L69.1545 126.883C69.1014 126.883 63.6108 129.307 60.0369 130.498C57.6095 131.262 55.0736 131.625 52.5294 131.571ZM24.7402 125.674C26.2972 126.134 36.6886 129.142 44.0605 130.239C51.3381 131.324 55.9263 131.229 59.8836 129.908C63.0623 128.847 67.7862 126.824 68.7711 126.37C68.6591 123.451 67.4147 90.0706 67.5916 81.4248C67.7626 72.4429 67.5916 67.2708 67.5916 67.1941V66.5041L68.1106 66.97C68.146 66.9995 71.7966 70.1547 82.6716 70.1547C87.3896 70.1547 90.9281 70.3965 93.5466 70.5793C96.9023 70.8093 98.7541 70.9332 99.2495 70.2726C100.122 69.0931 98.5064 50.8934 97.4802 45.969C96.6369 41.9115 92.2138 28.6303 92.1725 28.4946C90.6804 24.4371 88.8404 20.0435 88.3509 19.7309C87.8614 19.4183 85.4021 20.014 83.6683 20.5507L83.8688 23.3815L80.3833 20.7276L79.5459 21.3173C79.9351 22.3376 81.5452 26.6251 81.5452 27.899C81.5427 28.7837 81.3663 29.6594 81.0262 30.4762L80.9554 30.6413H80.7726C78.7026 30.7239 76.3023 31.0836 76.0546 31.5318C76.0546 31.5318 76.2787 31.9093 78.6908 31.9093C79.0736 31.9477 79.4426 32.0727 79.77 32.2749C80.5662 32.6583 81.6572 33.189 82.6008 32.9767C84.1342 32.6347 87.2245 32.0567 87.254 32.0508L87.5783 31.9918V32.3221C87.6255 33.0357 88.7578 49.9085 88.227 52.6626C87.6963 55.4168 86.6583 56.6906 86.617 56.7437L86.4165 56.9796L86.1924 56.7673C84.3376 55.1771 82.0773 54.1338 79.6638 53.7537C75.6476 53.2347 69.6381 52.2026 68.6237 51.8547C67.9328 51.5014 67.2872 51.0657 66.7011 50.5572C64.9318 49.2067 62.2426 47.1662 59.5356 46.37C57.3047 45.6951 55.0283 45.1807 52.724 44.8307C52.606 44.8307 42.4328 43.0969 38.7528 43.7633L37.2253 44.6538C37.1604 44.6538 31.1921 46.4231 24.1269 52.9929C17.0617 59.5627 15.4811 66.4982 15.4634 66.5572V66.6398L15.4045 66.6987C15.375 66.6987 12.4911 69.7242 11.1936 72.0065C10.2147 73.7404 9.42438 75.0437 8.83463 76.0935C7.94149 77.4759 7.17185 78.9343 6.5346 80.4518C5.94485 82.0205 6.91795 89.2626 9.54234 91.9047C9.87629 92.3085 10.3291 92.5965 10.8364 92.7278C11.3436 92.8591 11.8793 92.827 12.3672 92.636C17.2209 90.796 28.609 77.8922 28.727 77.7861L29.1752 77.273L29.2401 77.9512C29.417 79.7853 30.9562 95.8679 30.7793 96.7407C30.5729 97.7846 25.9787 119.912 25.2769 122.006C24.8842 123.187 24.7026 124.429 24.7402 125.674Z" fill="#263238"/>
<path id="Vector_9" d="M92.4082 28.4297C92.4082 28.4297 89.3238 20.0199 88.4628 19.5068C87.6017 18.9937 83.3319 20.3855 83.3319 20.3855L83.503 22.7858L80.3832 20.3855L79.2037 21.2407C79.2037 21.2407 81.2619 26.5484 81.2619 27.9343C81.2575 28.7759 81.0914 29.6089 80.7724 30.3877C80.7724 30.3877 76.308 30.5587 75.7949 31.4198C75.2818 32.2808 78.266 32.2454 78.779 32.2454C79.2921 32.2454 81.138 33.649 82.6596 33.307C84.1812 32.9649 87.301 32.3811 87.301 32.3811C87.301 32.3811 87.8259 40.2837 88.0205 46.3051L95.0503 36.5978C93.7116 32.3339 92.4082 28.4297 92.4082 28.4297Z" fill="#263238"/>
<path id="Vector_10" d="M87.743 47.1544V46.2933C87.572 41.0386 87.1532 34.2742 87.0471 32.729C86.2096 32.8883 83.9686 33.3188 82.7419 33.5901C81.5152 33.8614 80.3475 33.2362 79.5218 32.8411C79.2922 32.7122 79.0489 32.6093 78.7964 32.5344C76.2192 32.5344 75.7061 32.1806 75.5292 31.8739C75.4774 31.7842 75.4502 31.6825 75.4502 31.579C75.4502 31.4755 75.4774 31.3738 75.5292 31.2841C76.0541 30.4113 79.2977 30.1754 80.5598 30.1046C80.813 29.4087 80.9466 28.6749 80.9549 27.9343C80.9549 26.8551 79.4806 22.8153 78.9144 21.3527L78.8318 21.1345L80.3829 19.9963L83.1429 22.1548L83.0014 20.1791L83.2255 20.1083C83.9627 19.8724 87.6899 18.7224 88.6158 19.2827C89.5417 19.8429 92.1543 26.9495 92.6851 28.3531C92.6851 28.3885 94.0002 32.3103 95.3213 36.5034L95.3626 36.645L87.743 47.1544ZM87.566 32.0095V32.3398C87.566 32.4165 88.0438 39.5819 88.2561 45.4146L94.6961 36.5211C93.4105 32.4459 92.1543 28.6715 92.1071 28.5241C90.6151 24.4607 88.775 20.0671 88.2855 19.7545C87.796 19.4419 85.3368 20.0376 83.6029 20.5742L83.8034 23.4051L80.3829 20.7276L79.5454 21.3173C79.9347 22.3376 81.5447 26.6251 81.5447 27.899C81.5422 28.7837 81.3659 29.6594 81.0257 30.4762L80.9549 30.6413H80.7721C78.7021 30.7239 76.3018 31.0836 76.0541 31.5318C76.0541 31.5318 76.2782 31.9093 78.6903 31.9093C79.0731 31.9477 79.4422 32.0727 79.7695 32.2749C80.5657 32.6583 81.6567 33.189 82.6003 32.9767C84.1337 32.6347 87.224 32.0567 87.2535 32.0508L87.566 32.0095Z" fill="#263238"/>
<path id="Vector_11" d="M88.3151 65.5782C84.2163 63.2605 86.0387 56.7614 86.1212 56.4901L86.711 56.6553C86.711 56.7142 84.9417 62.9774 88.6336 65.0651L88.3151 65.5782Z" fill="#263238"/>
<path id="Vector_12" d="M47.8878 53.4706C45.7235 50.1385 41.6778 47.7559 41.6365 47.7323L41.9372 47.2192C42.1083 47.3195 46.1422 49.6962 48.3832 53.1521L47.8878 53.4706Z" fill="#263238"/>
<path id="Vector_13" d="M16.6017 66.8698L15.1745 66.8167H15.0742V66.2269C15.1608 66.2219 15.2473 66.236 15.3278 66.2682L16.6017 66.8698Z" fill="#263238"/>
<path id="Vector_14" d="M59.9779 130.191C63.5813 129.012 69.0719 126.588 69.0719 126.588C69.0719 126.588 67.6978 90.5483 67.8924 81.4543C68.087 72.3604 67.8924 67.2118 67.8924 67.2118C68.2855 67.5262 68.7128 67.7953 69.1663 68.0139C69.7089 61.5266 72.3273 55.977 74.2794 52.6803C71.6727 52.2498 69.355 51.8134 68.7534 51.6129C67.7214 51.2708 63.7405 47.3195 59.6595 46.1223C57.4053 45.4326 55.1028 44.9122 52.7712 44.5653C52.7712 44.5653 42.3915 42.7961 38.6584 43.5097L37.1545 44.3943C37.1545 44.3943 31.145 46.1105 23.9382 52.7983C16.7314 59.4861 15.1863 66.5277 15.1863 66.5277C19.3145 66.6987 31.4929 74.7842 31.4929 74.7842L28.9157 78.0456C28.9157 78.0456 30.6319 95.8915 30.4609 96.7525C30.2898 97.6135 25.6544 119.918 24.9703 121.976C24.5535 123.248 24.3794 124.586 24.4572 125.922C24.4572 125.922 35.9514 129.354 44.0192 130.557C52.0871 131.76 56.3745 131.389 59.9779 130.191Z" fill="#53E88B"/>
<path id="Vector_15" d="M52.5291 131.571C49.6621 131.532 46.8019 131.282 43.9718 130.822C35.9806 129.643 24.51 126.216 24.3684 126.181L24.1797 126.122V125.928C24.0988 124.55 24.2769 123.17 24.7046 121.858C25.3828 119.835 30.0123 97.6784 30.1893 96.6699C30.3013 96.0035 29.3223 85.1698 28.6382 78.0515V77.9335L31.0857 74.8314C29.281 73.6519 18.8601 66.97 15.2037 66.8167H14.8557L14.9265 66.4746C14.9265 66.398 16.5778 59.2679 23.7728 52.5919C30.6552 46.2049 36.5409 44.2882 37.0717 44.1289L38.6345 43.2266C42.3794 42.513 52.4288 44.2056 52.8534 44.2823C55.1889 44.6269 57.4953 45.1453 59.7535 45.8333C62.5607 46.659 65.2913 48.7408 67.1018 50.1149C67.6512 50.5741 68.2437 50.979 68.8711 51.3239C69.4196 51.5067 71.5662 51.9136 74.3499 52.3855L74.7745 52.4562L74.4855 52.8219C71.6927 57.4615 69.9607 62.6616 69.4137 68.0493L69.3783 68.4916L68.9832 68.2911C68.6352 68.1082 68.3934 67.949 68.1575 67.8134C68.1988 69.4234 68.2813 74.2122 68.1575 81.472C67.9924 90.4539 69.337 126.228 69.337 126.588V126.789L69.1542 126.865C69.1011 126.865 63.6105 129.289 60.0366 130.48C57.6102 131.251 55.0743 131.619 52.5291 131.571ZM24.74 125.674C26.2969 126.134 36.6883 129.142 44.0602 130.239C51.3378 131.324 55.926 131.229 59.8833 129.908C63.062 128.847 67.7859 126.824 68.7708 126.37C68.6588 123.451 67.4144 90.0706 67.5913 81.4248C67.7624 72.4429 67.5913 67.2708 67.5913 67.1941V66.51L68.1044 66.9641C68.3572 67.1775 68.632 67.3633 68.9242 67.5185C69.5163 62.3437 71.1836 57.3498 73.8191 52.8573C71.6842 52.5034 69.3252 52.067 68.6706 51.8488C67.9797 51.4955 67.3341 51.0598 66.748 50.5513C64.9787 49.2008 62.2895 47.1603 59.5825 46.3641C57.3516 45.6892 55.0752 45.1748 52.7709 44.8248C52.6529 44.8248 42.4797 43.091 38.7996 43.7574L37.2722 44.6479C37.2073 44.6479 31.239 46.4172 24.1738 52.987C17.9932 58.7253 16.0057 64.782 15.5988 66.2387C20.0278 66.8285 31.2036 74.1709 31.6872 74.4953L31.9585 74.6722L29.2575 78.0927C29.4757 80.4046 30.9559 95.9091 30.7849 96.7643C30.5785 97.8081 25.9843 119.936 25.2825 122.029C24.8906 123.203 24.707 124.437 24.74 125.674Z" fill="#263238"/>
<path id="Vector_16" d="M30.1423 75.5922L39.5253 66.9936L39.9263 67.43L32.8375 73.9291L40.3097 71.0511L40.522 71.6055L30.1423 75.5922Z" fill="#263238"/>
<path id="Vector_17" d="M39.4308 77.7448C37.1288 77.6705 34.8422 77.3401 32.6133 76.7599L32.7666 76.1702C32.8197 76.1702 37.8916 77.5207 41.0526 77.0194L41.147 77.6091C40.5792 77.6977 40.0055 77.743 39.4308 77.7448Z" fill="#263238"/>
<path id="Vector_18" d="M43.3471 91.8045L42.9756 91.3504C43.5123 90.9081 44.0666 90.4304 44.6328 89.9232L45.0279 90.3655C44.4559 90.8786 43.8897 91.3622 43.3471 91.8045Z" fill="#263238"/>
<path id="Vector_19" d="M46.4665 89.015L46.0537 88.5903C49.3561 85.3236 52.3821 81.7887 55.1005 78.022L55.5841 78.364C52.8404 82.157 49.791 85.7192 46.4665 89.015Z" fill="#263238"/>
<path id="Vector_20" d="M67.5738 67.2236C67.5738 67.1352 67.2022 58.3773 64.5483 54.8388L65.0142 54.4791C67.7861 58.1178 68.1517 66.8049 68.1635 67.1764L67.5738 67.2236Z" fill="#263238"/>
<path id="Vector_21" d="M67.6503 55.8827H67.0605V61.3733H67.6503V55.8827Z" fill="#263238"/>
<path id="Vector_22" d="M58.716 64.8764L58.1262 64.7349C58.3507 63.8521 58.5181 62.9558 58.6275 62.0515L59.2172 62.1223C59.1083 63.05 58.9409 63.9699 58.716 64.8764Z" fill="#263238"/>
<path id="Vector_23" d="M59.3764 60.3235H58.7866C58.9524 57.4936 58.4472 54.6646 57.3123 52.067L57.8371 51.7957C59.0249 54.4743 59.5527 57.3987 59.3764 60.3235Z" fill="#263238"/>
<path id="Vector_24" opacity="0.5" d="M93.8415 20.1614L94.6082 26.8728C94.6369 27.1058 94.6189 27.3423 94.5553 27.5683C94.4917 27.7943 94.3838 28.0054 94.2378 28.1893C94.0918 28.3732 93.9106 28.5262 93.7049 28.6394C93.4991 28.7525 93.2729 28.8236 93.0394 28.8484L71.2658 31.3372C70.5942 31.4144 69.9141 31.3584 69.2642 31.1725C68.6143 30.9865 68.0074 30.6743 67.4783 30.2537C66.9492 29.833 66.5081 29.3121 66.1805 28.7209C65.8528 28.1296 65.645 27.4796 65.5688 26.8079C65.4916 26.1364 65.5476 25.4562 65.7335 24.8063C65.9194 24.1564 66.2317 23.5495 66.6523 23.0204C67.073 22.4913 67.5939 22.0503 68.1851 21.7226C68.7764 21.395 69.4264 21.1871 70.0981 21.1109L91.8658 18.6163C92.0971 18.5874 92.3318 18.6045 92.5564 18.6667C92.781 18.7288 92.9912 18.8347 93.1748 18.9783C93.3583 19.1218 93.5117 19.3003 93.6262 19.5033C93.7406 19.7063 93.8138 19.93 93.8415 20.1614Z" fill="white"/>
<path id="Vector_25" d="M63.8701 27.6572L79.2037 21.2171L92.3551 19.6483L93.2869 27.9697L70.5107 30.4644C70.5107 30.4644 69.054 30.7769 67.2907 28.3826L63.8701 27.6572Z" fill="#53E88B"/>
<path id="Vector_26" d="M70.6759 31.6439C69.2885 31.6364 67.9562 31.0994 66.9514 30.1426C65.9466 29.1858 65.345 27.8814 65.2697 26.496C65.1945 25.1105 65.6511 23.7486 66.5463 22.6885C67.4415 21.6284 68.7077 20.9502 70.0862 20.7925L91.8539 18.2978C92.4011 18.2364 92.9504 18.3943 93.3815 18.7369C93.8126 19.0796 94.0903 19.5791 94.1539 20.126L94.9206 26.8138C94.954 27.0847 94.9326 27.3595 94.8576 27.6219C94.7827 27.8843 94.6557 28.129 94.4842 28.3413C94.3154 28.5562 94.1053 28.7353 93.8663 28.868C93.6272 29.0007 93.3641 29.0843 93.0924 29.1138L71.3011 31.5908C71.0938 31.6203 70.8851 31.638 70.6759 31.6439ZM92.0721 18.8758H91.9011L70.1274 21.3704C68.9009 21.5765 67.8003 22.2456 67.0528 23.2395C66.3052 24.2335 65.9678 25.4765 66.11 26.7121C66.2523 27.9476 66.8634 29.0814 67.8172 29.8795C68.7711 30.6776 69.9949 31.079 71.2362 31.0011L93.0039 28.5064C93.1984 28.4842 93.3865 28.4238 93.5576 28.3286C93.7286 28.2335 93.8792 28.1055 94.0006 27.952C94.1231 27.8003 94.2138 27.6256 94.2675 27.4382C94.3212 27.2508 94.3367 27.0545 94.3132 26.861L93.5465 20.1673C93.4981 19.8103 93.3221 19.4829 93.0511 19.2455C92.7801 19.0081 92.4324 18.8768 92.0721 18.8758Z" fill="#263238"/>
<path id="Vector_27" d="M64.5171 25.7434L64.9524 29.661L66.4879 29.4904L66.0526 25.5727L64.5171 25.7434Z" fill="white"/>
<path id="Vector_28" d="M64.2829 29.2318L63.7639 24.7084L65.8929 24.4666L66.4119 28.9841L64.2829 29.2318ZM64.4185 25.2274L64.8019 28.5772L65.7573 28.4651L65.3739 25.1035L64.4185 25.2274Z" fill="#263238"/>
<path id="Vector_29" d="M62.823 25.0898L63.2791 29.0741L64.5564 28.9279L64.1003 24.9436L62.823 25.0898Z" fill="white"/>
<path id="Vector_30" d="M63.0093 29.3969L62.4844 24.8264L64.348 24.614L64.8729 29.1787L63.0093 29.3969ZM63.139 25.3453L63.5282 28.7423L64.2182 28.6597L63.829 25.2628L63.139 25.3453Z" fill="#263238"/>
<path id="Vector_31" d="M80.0765 17.9911C79.5791 17.8825 79.0642 17.8825 78.5668 17.9911C78.0183 18.1975 76.9155 20.2617 77.3873 20.3501C78.1266 20.3844 78.867 20.3149 79.587 20.1437C80.0116 19.9845 80.973 18.4747 80.0765 17.9911Z" fill="white"/>
<path id="Vector_32" d="M77.735 20.645C77.6094 20.6554 77.4831 20.6554 77.3575 20.645C77.2584 20.6312 77.1674 20.5827 77.1005 20.5083C77.0336 20.4338 76.9951 20.3381 76.9919 20.2381C76.9211 19.6483 77.8411 17.9734 78.4663 17.7434C79.0168 17.6117 79.5906 17.6117 80.1412 17.7434H80.2178C80.3992 17.8406 80.5462 17.9912 80.6391 18.1747C80.7319 18.3583 80.766 18.566 80.7368 18.7696C80.6945 19.0998 80.5788 19.4163 80.3982 19.696C80.2175 19.9756 79.9766 20.2112 79.6929 20.3855C79.053 20.5501 78.3957 20.6372 77.735 20.645ZM77.5816 20.0553C78.2286 20.0668 78.8745 19.9974 79.5042 19.8489C79.8626 19.5525 80.0946 19.1307 80.153 18.6693C80.167 18.591 80.1571 18.5102 80.1245 18.4376C80.0918 18.365 80.038 18.3039 79.9701 18.2624C79.5428 18.1677 79.1 18.1677 78.6727 18.2624C78.3424 18.3922 77.6583 19.613 77.5816 20.0494V20.0553Z" fill="#263238"/>
<path id="Vector_33" d="M83.037 17.7199C82.7617 17.6439 82.4741 17.6231 82.1908 17.6585C81.9074 17.6939 81.6338 17.7849 81.3857 17.9263C80.7665 18.404 81.2501 19.7781 81.4565 20.4681C81.4948 20.6152 81.5725 20.7491 81.6811 20.8554C81.7897 20.9617 81.9253 21.0364 82.0732 21.0716C82.2211 21.1067 82.3757 21.101 82.5206 21.0549C82.6654 21.0089 82.795 20.9243 82.8955 20.8102C83.3083 20.3325 83.3083 19.3004 83.3083 18.8168C83.3419 18.6251 83.3351 18.4286 83.2884 18.2397C83.2417 18.0508 83.1561 17.8737 83.037 17.7199Z" fill="white"/>
<path id="Vector_34" d="M82.2764 21.394C82.027 21.3881 81.7859 21.3033 81.5877 21.1518C81.3896 21.0002 81.2446 20.7898 81.1735 20.5506L81.1205 20.3973C80.8787 19.5953 80.4717 18.2624 81.203 17.6904C81.4868 17.5211 81.8019 17.4113 82.1294 17.3678C82.4569 17.3242 82.7898 17.3476 83.1079 17.4368H83.2259L83.2849 17.5311C83.5227 17.8339 83.6384 18.2147 83.6092 18.5986V18.7873C83.6092 19.3181 83.6092 20.4091 83.1256 20.9753C83.0232 21.1028 82.8941 21.2064 82.7474 21.2787C82.6007 21.3511 82.4399 21.3904 82.2764 21.394ZM82.3707 17.9321C82.0864 17.9197 81.8054 17.9982 81.5687 18.1563C81.15 18.4806 81.5156 19.6542 81.6866 20.2204L81.7338 20.3855C81.7628 20.4846 81.8173 20.5743 81.8918 20.6457C81.9663 20.7171 82.0582 20.7677 82.1584 20.7925C82.2514 20.8125 82.3481 20.8073 82.4384 20.7772C82.5287 20.7471 82.6092 20.6933 82.6715 20.6214C83.0136 20.2204 83.0136 19.2414 83.0136 18.8168V18.6163C83.0386 18.3918 82.9775 18.1663 82.8425 17.9852C82.687 17.9545 82.5292 17.9368 82.3707 17.9321Z" fill="#263238"/>
<path id="Vector_35" d="M85.6262 17.9145C85.6107 17.6991 85.5268 17.4943 85.3868 17.3299C85.2467 17.1655 85.0579 17.05 84.8478 17.0004C84.5938 16.9159 84.317 16.9328 84.0752 17.0475C83.6093 17.3542 83.5267 17.6373 83.6506 18.3745C83.7744 19.1117 84.1224 20.7748 84.4526 21.0166C84.7829 21.2584 85.3137 21.1994 85.5791 20.5094C85.7168 19.6509 85.7327 18.7774 85.6262 17.9145Z" fill="white"/>
<path id="Vector_36" d="M84.8414 21.4412C84.6394 21.4391 84.4433 21.373 84.2812 21.2525C83.7504 20.8691 83.3965 18.6693 83.3553 18.4217C83.2373 17.6373 83.2845 17.2421 83.9096 16.7998C84.1103 16.7011 84.3317 16.652 84.5554 16.6566C84.779 16.6612 84.9982 16.7194 85.1947 16.8263C85.3911 16.9332 85.559 17.0856 85.6843 17.2709C85.8096 17.4561 85.8887 17.6687 85.9148 17.8909C86.0524 18.7959 86.0305 19.7181 85.8499 20.6155C85.7977 20.7977 85.7024 20.9647 85.572 21.1023C85.4417 21.2398 85.2801 21.3439 85.1009 21.4058C85.0166 21.4301 84.9292 21.442 84.8414 21.4412ZM84.464 17.2421C84.3838 17.2374 84.304 17.2558 84.234 17.2952C83.9155 17.5075 83.8271 17.6019 83.9391 18.3332C84.03 19.182 84.2632 20.0094 84.6291 20.7807C84.6716 20.8124 84.7207 20.8342 84.7728 20.8444C84.8248 20.8546 84.8785 20.853 84.9299 20.8396C85.0206 20.7995 85.1011 20.7394 85.1655 20.6638C85.2298 20.5883 85.2763 20.4992 85.3014 20.4032C85.4327 19.5874 85.4427 18.7567 85.3309 17.9381C85.3188 17.7855 85.2594 17.6405 85.1611 17.5232C85.0629 17.4059 84.9305 17.3221 84.7824 17.2834C84.6781 17.2581 84.5713 17.2442 84.464 17.2421Z" fill="#263238"/>
<path id="Vector_37" d="M87.8961 17.3306C87.894 17.1603 87.829 16.9969 87.7136 16.8717C87.5982 16.7465 87.4405 16.6684 87.271 16.6524C87.035 16.6067 86.7905 16.6399 86.5751 16.7467C86.1446 17.018 86.062 17.2244 86.1151 17.826C86.1682 18.4275 86.3746 19.6896 86.6577 19.8606C86.9408 20.0317 87.4008 19.9491 87.6838 19.3888C87.8609 18.7179 87.9325 18.0235 87.8961 17.3306Z" fill="white"/>
<path id="Vector_38" d="M86.947 20.2381C86.7908 20.2398 86.6373 20.1968 86.5047 20.1142C86.027 19.8194 85.856 18.1799 85.8206 17.8496C85.751 17.591 85.7714 17.3163 85.8786 17.0709C85.9858 16.8254 86.1733 16.6238 86.4103 16.4991C86.6796 16.3499 86.9934 16.3018 87.295 16.3634C87.5354 16.3854 87.7591 16.4959 87.9226 16.6736C88.0861 16.8512 88.1777 17.0833 88.1796 17.3247C88.236 18.0647 88.154 18.8087 87.9378 19.5186C87.8674 19.6784 87.7644 19.8218 87.6354 19.9396C87.5065 20.0574 87.3544 20.147 87.1888 20.2027C87.1101 20.225 87.0288 20.2369 86.947 20.2381ZM87.0296 16.9296C86.927 16.9215 86.8244 16.9441 86.7347 16.9945C86.4221 17.195 86.3632 17.2775 86.4103 17.7965C86.4406 18.4253 86.5803 19.044 86.8232 19.6248C86.8919 19.649 86.9668 19.649 87.0355 19.6248C87.1225 19.591 87.2015 19.5394 87.2675 19.4734C87.3335 19.4074 87.385 19.3284 87.4188 19.2414C87.5832 18.6146 87.645 17.9654 87.6016 17.3188C87.5989 17.22 87.5592 17.1259 87.4904 17.0549C87.4216 16.984 87.3287 16.9413 87.2301 16.9355L87.0296 16.9296Z" fill="#263238"/>
<path id="Vector_39" d="M31.6282 113.242C31.6282 113.242 35.8921 111.886 36.8593 112.275C37.8265 112.664 38.6993 114.598 38.6993 114.598C38.6993 114.598 41.1173 117.305 41.6009 117.889C42.0845 118.473 41.9901 118.856 41.6952 119.629C41.4003 120.402 39.6665 121.274 39.6665 121.274C39.2821 121.939 38.792 122.536 38.2157 123.044C37.5322 123.449 36.774 123.711 35.9864 123.816C35.8132 124.003 35.6033 124.151 35.3699 124.253C35.1364 124.354 34.8845 124.407 34.63 124.406C33.4835 124.442 32.348 124.173 31.3392 123.627C30.1597 122.949 26.9868 118.909 26.9868 118.909C26.9868 118.909 30.9499 116.244 31.6282 113.242Z" fill="white"/>
<path id="Vector_40" d="M34.6306 124.671C33.4316 124.713 32.2435 124.43 31.1923 123.852C30.0128 123.156 26.8871 119.204 26.7515 119.039L26.5569 118.786L26.8223 118.609C26.8636 118.609 30.7028 116.026 31.3457 113.177L31.3811 113.012L31.5403 112.959C32.2716 112.729 35.9575 111.597 36.966 111.998C37.9745 112.399 38.7883 114.091 38.9476 114.433C39.2366 114.758 41.3715 117.152 41.8256 117.7C42.4153 118.414 42.2738 118.939 41.973 119.735C41.6722 120.531 40.2568 121.304 39.8735 121.504C39.4801 122.171 38.9801 122.769 38.3932 123.274C37.7023 123.698 36.9314 123.975 36.1286 124.087C35.7224 124.467 35.1862 124.676 34.6306 124.671ZM27.412 118.921C28.4146 120.183 30.638 122.849 31.4872 123.344C32.4496 123.868 33.5356 124.123 34.6306 124.082C34.8418 124.083 35.0511 124.041 35.2457 123.959C35.4403 123.877 35.6163 123.756 35.7629 123.604L35.8337 123.515H35.9457C36.6845 123.421 37.3965 123.178 38.0394 122.802C38.5811 122.325 39.0448 121.765 39.4135 121.145L39.4548 121.068L39.5314 121.027C40.1684 120.714 41.2417 120.03 41.4245 119.546C41.7076 118.78 41.743 118.538 41.3774 118.096C40.8997 117.506 38.4994 114.84 38.4758 114.811L38.4286 114.734C38.1986 114.227 37.4496 112.847 36.7478 112.564C36.158 112.322 33.5042 112.982 31.8765 113.49C31.1923 116.061 28.3143 118.284 27.412 118.921Z" fill="#263238"/>
<path id="Vector_41" d="M14.331 89.2332C14.331 89.2332 18.1054 93.3968 19.2672 95.915C20.4291 98.4333 26.1437 107.628 28.2728 110.529C30.4018 113.431 31.6579 113.242 31.6579 113.242C31.6579 113.242 31.6579 116.144 29.3343 117.5L27.0166 118.856C27.0166 118.856 18.6893 110.724 16.8493 109.367C15.0092 108.011 7.07117 99.5951 3.78036 96.1097C0.489542 92.6242 0.294922 91.1734 0.294922 91.1734C0.294922 91.1734 5.60269 80.1333 7.17143 78.3935" fill="white"/>
<path id="Vector_42" d="M26.9399 119.222L26.7806 119.069C26.6922 118.986 18.4474 110.936 16.6428 109.633C14.8382 108.329 7.40139 100.427 3.82749 96.6581L3.53851 96.3515C0.218208 92.813 0 91.315 0 91.2501V91.1617L0.0353837 91.085C0.253592 90.6309 5.39624 79.9918 6.95318 78.2402L7.39549 78.6294C5.96829 80.2394 1.13233 90.1709 0.613347 91.2442C0.707707 91.5804 1.26207 93.0135 4.00442 95.9622L4.29339 96.2689C7.57241 99.7484 15.2628 107.887 17.032 109.19C18.8013 110.494 25.8783 117.376 27.0578 118.55L29.1868 117.305C30.9561 116.291 31.2804 114.298 31.3512 113.572C30.791 113.46 29.635 112.982 28.0368 110.765C25.9314 107.899 20.1813 98.6456 19.0018 96.0979C17.8754 93.6504 14.1541 89.5339 14.1128 89.4927L14.5492 89.0975C14.7084 89.2685 18.3708 93.3202 19.5385 95.8502C20.7062 98.3802 26.4209 107.563 28.5086 110.417C30.4607 113.077 31.6166 113.012 31.6225 113.006H31.9469V113.33C31.9469 113.454 31.9469 116.421 29.4817 117.842L26.9399 119.222Z" fill="#263238"/>
<path id="Vector_43" d="M28.2434 110.529L28.1903 110.458C27.595 111.31 26.8591 112.054 26.0141 112.658C24.9787 113.441 23.8844 114.143 22.741 114.758C24.9879 116.91 26.9872 118.856 26.9872 118.856L29.3049 117.5C31.6285 116.144 31.6285 113.242 31.6285 113.242C31.6285 113.242 30.3724 113.437 28.2434 110.529Z" fill="white"/>
<path id="Vector_44" d="M26.9398 119.222L26.7806 119.069C26.7806 119.069 24.7872 117.123 22.5344 114.976L22.2395 114.693L22.5993 114.498C23.7329 113.892 24.8175 113.198 25.8429 112.422C26.659 111.836 27.3707 111.116 27.9483 110.293L28.1842 109.939L28.4319 110.287L28.2609 110.506L28.4732 110.352C30.4253 113.012 31.5812 112.947 31.5871 112.941H31.9114V113.266C31.9114 113.389 31.9114 116.356 29.4463 117.777L26.9398 119.222ZM23.2362 114.828C25.0054 116.503 26.5388 118.013 27.0283 118.491L29.1573 117.246C30.9265 116.232 31.2509 114.239 31.3217 113.513C30.785 113.407 29.6999 112.923 28.196 110.96C27.6231 111.698 26.948 112.352 26.1908 112.9C25.2484 113.606 24.2615 114.25 23.2362 114.828Z" fill="#263238"/>
<path id="Vector_45" d="M45.181 7.41099C45.181 7.41099 48.7962 7.76484 51.1257 10.3244C53.4553 12.8839 56.1327 17.3188 57.4184 18.1327C58.7041 18.9465 62.5433 19.9019 63.0093 20.8102C63.4752 21.7184 60.5618 24.5138 60.5618 24.5138C60.5618 24.5138 62.4254 26.8728 62.6613 27.8872C62.8972 28.9016 63.1272 31.0365 63.1272 31.0365C63.1272 31.0365 64.407 34.8816 63.9411 36.3973C63.4751 37.913 61.9595 37.913 61.2636 38.1666C60.5677 38.4201 57.7663 38.9804 57.7663 38.9804C57.7663 38.9804 55.6668 43.0615 55.5548 44.9251C55.4427 46.7887 56.8345 52.0316 57.1825 54.9509C57.5305 57.8702 56.3686 59.3799 54.0391 57.3984C51.7096 55.4168 45.9949 48.3103 43.9013 46.6767C42.2478 45.4793 40.4936 44.4276 38.6584 43.5333L39.8379 39.5702C37.2356 36.879 35.0043 33.8523 33.2032 30.5705C30.1719 25.0918 32.2714 18.3332 37.7502 12.1585C43.229 5.98379 45.181 7.41099 45.181 7.41099Z" fill="white"/>
<path id="Vector_46" d="M55.8731 58.5602C55.1041 58.4868 54.3856 58.1443 53.8444 57.593C52.0873 55.9126 50.42 54.1409 48.8492 52.2852C46.8499 50.0323 44.7799 47.7087 43.7184 46.8831C42.0808 45.6983 40.3445 44.6565 38.5285 43.7692L38.3044 43.663L39.4839 39.6291C36.9228 36.949 34.7149 33.9524 32.9141 30.7121C29.9653 25.4043 31.6461 18.5632 37.4965 11.9639C42.6096 6.19608 44.8094 6.85071 45.2694 7.0984C47.5716 7.3904 49.7088 8.4476 51.338 10.1002C52.3936 11.2797 53.5377 12.8249 54.5521 14.2285C55.7316 15.8916 56.9111 17.4603 57.5716 17.8791C58.3188 18.2762 59.098 18.6096 59.9011 18.8757C61.7353 19.5599 62.9561 20.0553 63.2686 20.645C63.7522 21.6122 61.8178 23.6763 60.9509 24.5315C61.4227 25.1212 62.7202 26.8905 62.9443 27.8223C63.1684 28.7541 63.3807 30.6944 63.4102 30.9657C63.5399 31.3608 64.6899 34.9465 64.2181 36.4739C63.7876 37.8658 62.5904 38.1311 61.7943 38.3081C61.6291 38.3435 61.4758 38.3729 61.346 38.4142C60.7209 38.6265 58.5388 39.0924 57.9609 39.2104C57.6129 39.9063 55.938 43.3092 55.8378 44.9133C55.7729 45.9748 56.2388 48.2749 56.687 50.4982C56.9996 52.0611 57.3239 53.677 57.4714 54.8801C57.6837 56.6494 57.3416 57.9527 56.5278 58.4186C56.324 58.5175 56.0995 58.566 55.8731 58.5602ZM39.0121 43.3505C40.7893 44.2222 42.4864 45.2484 44.084 46.4172C45.1868 47.2723 47.1802 49.5193 49.2915 51.896C50.8445 53.7302 52.4921 55.4822 54.2277 57.1448C55.077 57.8643 55.7965 58.1237 56.2506 57.8819C56.8403 57.5694 57.0704 56.4547 56.8934 54.9332C56.746 53.7537 56.4275 52.1496 56.1149 50.5926C55.6372 48.2336 55.189 45.9984 55.2598 44.8602C55.3778 42.9553 57.4183 38.9627 57.5009 38.8035L57.5657 38.6737H57.7073C57.7073 38.6737 60.4909 38.084 61.1691 37.8717C61.3357 37.8193 61.505 37.7759 61.6763 37.7419C62.4135 37.5768 63.3335 37.3763 63.6579 36.3147C64.0176 35.1352 63.192 32.1865 62.844 31.1367V31.0718C62.844 31.0718 62.6081 28.9782 62.384 27.9579C62.2071 27.1559 60.8506 25.3335 60.3435 24.7025L60.1724 24.4902L60.3671 24.3015C61.6999 23.0276 62.9797 21.3527 62.7261 20.9222C62.4725 20.4917 60.8742 19.8547 59.6829 19.4124C58.8397 19.1328 58.0227 18.7796 57.2414 18.3568C56.4865 17.8791 55.366 16.3398 54.0626 14.5588C53.06 13.1905 51.9218 11.61 50.8897 10.5013C48.6605 8.0479 45.1691 7.68815 45.1338 7.68226H45.0571L44.9981 7.64097C44.9332 7.59969 43.0048 6.63839 37.9211 12.359C32.2477 18.7637 30.6023 25.3335 33.4154 30.4349C35.2105 33.678 37.4255 36.6702 40.0029 39.3342L40.1327 39.4581L39.0121 43.3505Z" fill="#263238"/>
<path id="Vector_47" d="M50.005 15.868L49.4153 15.6793C49.5995 14.9624 50.0566 14.3459 50.689 13.9613C51.3215 13.5768 52.0792 13.4547 52.8005 13.6211L52.653 14.2108C52.0826 14.0866 51.4863 14.1904 50.9915 14.5001C50.4966 14.8097 50.1426 15.3007 50.005 15.868Z" fill="#263238"/>
<path id="Vector_48" d="M52.9302 20.4917L52.8123 19.9019C53.4181 19.8335 53.9955 19.6078 54.4871 19.2473L53.0953 17.2127L53.5789 16.8824L55.1831 19.2414L55.1241 19.3889C55.0769 19.5009 54.7407 20.1261 52.9302 20.4917Z" fill="#263238"/>
<path id="Vector_49" d="M46.6964 3.18836C47.2193 3.53904 47.6296 4.03359 47.8776 4.61231C48.1256 5.19103 48.2008 5.82917 48.0941 6.44969C47.7462 8.66716 43.4351 10.5308 42.6153 12.5123C41.7956 14.4939 41.5715 14.9539 42.7333 15.0719C43.8951 15.1898 45.9946 15.8857 45.6467 17.0534C45.2987 18.2211 42.8512 21.1345 43.0871 21.8304C43.323 22.5263 46.9264 25.6756 46.4605 26.4895C45.9946 27.3033 45.4166 27.5392 45.281 27.1913C45.1454 26.8433 39.8022 23.694 38.6404 26.8433C37.4786 29.9926 39.9202 31.3844 41.4358 31.8503C42.9515 32.3162 45.629 31.1544 45.629 31.1544C45.0223 32.4837 44.3227 33.7686 43.5353 34.9996C42.7321 36.4003 41.753 37.6925 40.622 38.8448C40.622 38.8448 42.1317 40.0243 41.0879 41.2922C40.044 42.5602 38.1745 39.7766 38.1745 39.7766C38.1745 39.7766 38.4045 42.6899 37.2427 41.8702C36.0809 41.0504 35.6091 38.8448 35.6091 38.8448C35.6091 38.8448 35.1432 41.8702 34.2114 42.1061C33.2796 42.342 32.8136 36.5093 32.8136 36.5093C32.8136 36.5093 31.7639 40.0066 30.7141 39.1927C30.4173 38.9829 30.1769 38.703 30.0143 38.3779C29.8517 38.0527 29.772 37.6925 29.7823 37.3291C29.7823 37.3291 28.2667 38.143 27.5707 37.9189C26.8748 37.6948 26.7569 34.1857 26.7569 34.1857C26.4739 34.76 26.0523 35.2547 25.5303 35.6254C25.0083 35.996 24.4023 36.2309 23.7669 36.3088C21.6673 36.4268 22.1332 31.5318 22.3691 30.6C22.605 29.6682 22.835 28.3826 22.835 28.3826C22.835 28.3826 21.9032 31.5318 20.7355 30.7416C19.5678 29.9513 19.1078 28.6421 20.0396 26.1946C20.5807 24.7626 21.2029 23.3626 21.9032 22.0014C21.9032 22.0014 17.8222 23.6292 17.5921 22.3494C17.3621 21.0696 21.5494 18.5042 21.5494 18.5042C21.5494 18.5042 19.4558 18.1563 19.7801 17.1065C20.1045 16.0568 24.0912 14.659 24.0912 14.659C24.0912 14.659 20.4819 12.4475 21.5258 11.5157C22.5697 10.5839 26.5387 10.8139 26.5387 10.8139C26.5387 10.8139 25.023 9.76409 25.8369 9.63435C26.5058 9.59486 27.1764 9.6727 27.8184 9.86436C27.8184 9.86436 25.6069 7.77073 27.3525 8.00074C28.847 8.25058 30.2523 8.8801 31.4336 9.82897C31.6636 10.1769 32.3654 9.01511 33.4152 8.31331C34.465 7.6115 40.4922 6.44969 40.4922 6.44969C40.4922 6.44969 39.2419 5.16993 39.6902 5.05198C40.3511 5.01631 41.0139 5.05588 41.6658 5.16993C41.6658 5.16993 37.0068 1.08884 40.0381 1.08884C43.0694 1.08884 44.9331 3.65427 44.9331 3.65427C44.9331 3.65427 43.8833 -0.308868 45.0451 0.392937C46.2069 1.09474 46.6964 3.18836 46.6964 3.18836Z" fill="#263238"/>
<path id="Vector_50" d="M34.1759 42.4069C34.0593 42.4065 33.9458 42.3693 33.8515 42.3007C33.2205 41.8407 32.8489 39.4758 32.672 37.8304C32.3477 38.5735 31.8758 39.3932 31.3156 39.5996C31.1887 39.6426 31.0528 39.6516 30.9214 39.6258C30.79 39.5999 30.6677 39.5401 30.5666 39.4522C30.0295 39.0587 29.6643 38.4739 29.5463 37.8186C29.0097 38.0604 28.0778 38.4083 27.5058 38.2196C26.9337 38.0309 26.6329 36.4504 26.5386 35.1234C26.2078 35.551 25.7904 35.9039 25.3137 36.159C24.8371 36.4141 24.3119 36.5656 23.7727 36.6037C23.5478 36.6168 23.3232 36.5754 23.1178 36.483C22.9124 36.3905 22.7324 36.2499 22.5931 36.0729C21.5552 34.8168 21.8678 31.5377 22.0624 30.6177C21.8973 30.8292 21.6797 30.9939 21.4313 31.0954C21.2876 31.1447 21.1341 31.1581 20.984 31.1345C20.8339 31.1108 20.6919 31.0509 20.5703 30.9598C19.1313 29.9513 18.8718 28.3944 19.7623 26.0648C20.3521 24.5256 20.9418 23.2458 21.3016 22.5263C20.2813 22.8743 18.4826 23.3815 17.7159 22.9568C17.6041 22.8998 17.5079 22.8163 17.436 22.7134C17.364 22.6106 17.3183 22.4917 17.3031 22.3671C17.0849 21.1876 19.5618 19.4183 20.8416 18.5868C20.3597 18.4634 19.9336 18.1808 19.6326 17.7847C19.5595 17.6647 19.5142 17.5299 19.4999 17.3901C19.4857 17.2503 19.5028 17.1091 19.55 16.9768C19.8626 16.0391 22.2806 15.0129 23.4837 14.5529C22.6639 13.9631 21.1718 12.8662 21.0952 11.9698C21.081 11.8368 21.0994 11.7024 21.1487 11.5781C21.1981 11.4538 21.2768 11.3433 21.3783 11.2562C22.198 10.5308 24.445 10.4423 25.7247 10.4541C25.4358 10.1592 25.3119 9.90564 25.365 9.69333C25.365 9.57538 25.4888 9.37486 25.8427 9.32178C26.2356 9.27831 26.6326 9.29022 27.0222 9.35717C26.6389 8.88537 26.3381 8.36049 26.5091 8.00074C26.6801 7.64099 27.2758 7.66458 27.4645 7.68817C28.9965 7.96184 30.4369 8.61016 31.6576 9.57537C31.7697 9.48691 31.9525 9.30409 32.1058 9.15075C32.4737 8.75659 32.8808 8.40091 33.3207 8.0892C34.2407 7.49945 38.4516 6.59123 40.0085 6.28456C39.5308 5.74199 39.3244 5.33506 39.4188 5.07557C39.438 5.00369 39.4769 4.93859 39.5311 4.88755C39.5853 4.83652 39.6525 4.80156 39.7254 4.78659C40.1168 4.73285 40.5136 4.73285 40.9049 4.78659C39.9672 3.87837 38.5459 2.30373 38.8762 1.4191C39.0295 1.02397 39.466 0.829352 40.1442 0.829352C41.7383 0.884353 43.2562 1.52471 44.4081 2.6281C44.1958 1.57834 44.0896 0.434219 44.5142 0.115753C44.6158 0.0405764 44.7388 0 44.8651 0C44.9915 0 45.1145 0.0405764 45.216 0.115753C46.3248 0.776275 46.832 2.51015 46.9558 2.98195C47.4987 3.37008 47.9208 3.90383 48.1734 4.5216C48.4259 5.13937 48.4986 5.81597 48.383 6.47328C48.1766 7.79432 46.7494 8.94434 45.3694 10.0531C44.3196 10.8964 43.2286 11.7693 42.8924 12.6008L42.8098 12.7895C42.4383 13.7036 42.1375 14.4231 42.2496 14.606C42.2496 14.6413 42.3675 14.718 42.7627 14.7534C43.6709 14.8478 45.216 15.2842 45.7704 16.1098C45.8699 16.2545 45.9358 16.4197 45.9634 16.5931C45.9909 16.7666 45.9794 16.944 45.9296 17.1124C45.5861 17.9186 45.1507 18.6824 44.6322 19.3888C44.1368 20.1496 43.2993 21.4235 43.3642 21.7479C43.7125 22.2553 44.1074 22.7292 44.5437 23.1633C46.0948 24.8382 47.0796 25.9882 46.7081 26.6428C46.3366 27.2974 45.853 27.6808 45.446 27.6454C45.3534 27.6372 45.2648 27.6037 45.1899 27.5486C45.115 27.4935 45.0567 27.4188 45.0214 27.3328C44.7265 27.032 42.1198 25.4928 40.3034 25.7936C39.9822 25.8346 39.6798 25.9678 39.4328 26.1772C39.1858 26.3865 39.0047 26.663 38.9116 26.9731C38.7257 27.3949 38.6297 27.8508 38.6297 28.3118C38.6297 28.7728 38.7257 29.2287 38.9116 29.6505C39.5013 30.8713 40.9403 31.4198 41.5301 31.5967C42.9219 32.0272 45.4932 30.9244 45.5168 30.9126L46.1773 30.6236L45.9119 31.29C45.3035 32.6166 44.604 33.8994 43.8183 35.1293C43.0425 36.4517 42.1249 37.6857 41.0819 38.8094C41.4469 39.1649 41.6887 39.6278 41.7719 40.1304C41.7981 40.3681 41.7738 40.6086 41.7006 40.8363C41.6275 41.0639 41.507 41.2736 41.3473 41.4515C41.2388 41.596 41.0967 41.7119 40.9333 41.789C40.7699 41.8661 40.5901 41.902 40.4096 41.8938C39.7136 41.8643 39 41.1979 38.5224 40.6435C38.4929 41.2333 38.369 41.9704 37.9326 42.2063C37.7958 42.2751 37.6413 42.3007 37.4896 42.2796C37.3379 42.2586 37.1962 42.1919 37.0834 42.0884C36.4293 41.5449 35.9426 40.8272 35.6797 40.0184C35.432 40.9856 34.9897 42.1946 34.2938 42.3774C34.2563 42.3933 34.2165 42.4033 34.1759 42.4069ZM32.9964 34.9229L33.1261 36.4858C33.3384 39.1868 33.8338 41.6284 34.1995 41.7935C34.6182 41.6756 35.1254 40.1304 35.3377 38.7681L35.5795 37.1699L35.9156 38.7504C35.9156 38.7504 36.3698 40.8617 37.4254 41.5989C37.5434 41.6815 37.62 41.7051 37.6495 41.6874C37.8677 41.5635 37.9621 40.5727 37.8972 39.7707L37.8087 38.6383L38.4339 39.582C38.8703 40.2307 39.7903 41.2686 40.4214 41.2981C40.5097 41.3016 40.5975 41.2829 40.6768 41.2437C40.7562 41.2046 40.8244 41.1463 40.8755 41.074C40.9835 40.9564 41.0656 40.8174 41.1164 40.666C41.1672 40.5146 41.1856 40.3543 41.1703 40.1953C41.0784 39.7305 40.8258 39.3129 40.4567 39.0158L40.1796 38.8035L40.439 38.5676C41.5468 37.432 42.5077 36.162 43.2993 34.7873C44.2252 33.2657 44.7737 32.2336 45.0686 31.6321C44.1427 31.9565 42.4855 32.4224 41.365 32.0744C40.7103 31.8739 39.1003 31.2488 38.4162 29.8216C38.1962 29.3268 38.0826 28.7913 38.0826 28.2499C38.0826 27.7084 38.1962 27.173 38.4162 26.6782C38.5999 26.1898 38.9404 25.7761 39.3843 25.5018C39.8282 25.2276 40.3506 25.1082 40.8696 25.1625C42.7096 25.192 45.2219 26.5425 45.5345 27.0438C45.822 26.8885 46.0516 26.6444 46.1891 26.3479C46.3425 25.9823 44.7737 24.2838 44.1073 23.5584C43.5896 23.0812 43.1446 22.5308 42.7863 21.9248C42.6211 21.4176 43.1873 20.5153 44.125 19.0881C44.6033 18.426 45.0124 17.7165 45.3458 16.9709C45.3712 16.8856 45.3769 16.7956 45.3626 16.7078C45.3483 16.62 45.3143 16.5365 45.2632 16.4637C44.8445 15.8739 43.494 15.4493 42.686 15.3667C42.5029 15.3737 42.3207 15.3378 42.1538 15.2621C41.9869 15.1863 41.84 15.0727 41.7247 14.9303C41.4652 14.4939 41.7247 13.8983 42.2496 12.5713L42.3263 12.3826C42.7273 11.4095 43.8242 10.5308 44.9801 9.59896C46.2776 8.561 47.6104 7.48765 47.7873 6.38481C47.884 5.82393 47.8163 5.24707 47.5923 4.72383C47.3684 4.20059 46.9978 3.75334 46.5253 3.43605L46.4191 3.37118L46.3896 3.24733C46.3896 3.24733 45.9355 1.26577 44.8976 0.640632L44.8386 0.611145C44.697 0.911918 44.8681 2.25065 45.216 3.5599L45.6171 5.07557L44.6912 3.8076C44.6912 3.8076 42.8747 1.36603 40.038 1.36603C39.637 1.36603 39.3775 1.44859 39.3244 1.59013C39.1298 2.10911 40.5039 3.72503 41.8603 4.92813L42.6388 5.64173L41.6362 5.48839C41.0805 5.39734 40.5185 5.35001 39.9554 5.34685C40.1777 5.68158 40.4347 5.99194 40.7221 6.27276L41.1173 6.662L40.5688 6.76815C38.9057 7.06303 34.3823 8.00074 33.5743 8.59049C33.169 8.88074 32.7937 9.21066 32.4538 9.57537C32.041 9.9941 31.7933 10.2418 31.4984 10.2182C31.4352 10.2109 31.3743 10.1896 31.3203 10.156C31.2662 10.1223 31.2203 10.0771 31.1858 10.0236C30.0587 9.12287 28.7251 8.51686 27.3053 8.26023C27.0163 8.21894 26.9396 8.26023 26.9396 8.26023C27.2079 8.77477 27.5723 9.2332 28.013 9.61076L28.9094 10.46L27.7299 10.1062C27.1563 9.93456 26.5591 9.85494 25.9606 9.87025C26.1832 10.1181 26.437 10.3362 26.7155 10.519L27.5825 11.1087L26.5327 11.0498C25.4652 10.9849 22.5224 10.979 21.738 11.6749C21.7044 11.6997 21.6779 11.7329 21.6613 11.7712C21.6447 11.8096 21.6386 11.8516 21.6436 11.8931C21.7026 12.5536 23.2773 13.7508 24.2563 14.3524L24.787 14.6708L24.1973 14.8772C22.6049 15.467 20.2754 16.5109 20.069 17.1419C20.0441 17.1913 20.0312 17.2458 20.0312 17.3011C20.0312 17.3564 20.0441 17.411 20.069 17.4604C20.4772 17.8489 21.0011 18.0932 21.5611 18.1563L22.3396 18.286L21.6672 18.6988C19.9923 19.7191 17.7041 21.4943 17.8397 22.2373C17.845 22.2715 17.8585 22.3038 17.879 22.3316C17.8996 22.3593 17.9266 22.3816 17.9577 22.3966C18.5474 22.7268 20.6057 22.1253 21.7498 21.6653L22.4988 21.3704L22.1214 22.0781C21.425 23.4294 20.8067 24.8196 20.2695 26.2418C19.2611 28.8897 20.0572 29.8746 20.8593 30.4408C20.9043 30.4787 20.9586 30.5041 21.0165 30.5144C21.0745 30.5248 21.1342 30.5197 21.1895 30.4998C21.7203 30.317 22.2747 29.0313 22.5047 28.2646L23.0944 28.4003C23.0944 28.4003 22.8585 29.7036 22.6226 30.6354C22.4221 31.4493 22.1449 34.6045 23.0237 35.666C23.1042 35.7722 23.2102 35.8564 23.3317 35.9111C23.4533 35.9657 23.5867 35.9889 23.7196 35.9786C24.3067 35.9145 24.8685 35.7045 25.3537 35.3676C25.8389 35.0308 26.232 34.5778 26.4973 34.0501L27.0222 32.9531L27.0576 34.168C27.1165 35.8606 27.4055 37.4765 27.6473 37.624C28.066 37.7655 29.0804 37.3527 29.6289 37.0637L30.1184 36.7983L30.0594 37.3527C30.0541 37.666 30.1261 37.9757 30.2691 38.2545C30.4121 38.5333 30.6216 38.7725 30.8792 38.9509C30.9056 38.9794 30.9397 38.9996 30.9774 39.009C31.0151 39.0184 31.0547 39.0167 31.0915 39.004C31.581 38.8448 32.2179 37.3999 32.5128 36.4209L32.9964 34.9229Z" fill="#263238"/>
<path id="Vector_51" d="M57.7664 38.9568C57.7664 38.9568 54.853 38.6089 54.0392 38.3671C53.2253 38.1253 50.8899 36.4975 50.8899 36.4975C50.8899 36.4975 52.5235 39.063 53.4553 40.2307C54.2187 41.1113 55.0793 41.9026 56.0207 42.5897L57.7664 38.9568Z" fill="#263238"/>
<path id="Vector_52" d="M56.1322 43.0143L55.8432 42.8079C54.8821 42.1255 54.0034 41.3339 53.2247 40.4489C52.2929 39.2694 50.7065 36.7983 50.6416 36.6922L49.8455 35.4478L51.0603 36.297C52.0196 36.9967 53.0424 37.6048 54.1153 38.1135C54.8996 38.3376 57.7717 38.7032 57.8012 38.7032L58.2081 38.7504L56.1322 43.0143ZM51.9273 37.5591C52.4699 38.3789 53.1835 39.4286 53.6965 40.0537C54.3597 40.823 55.1053 41.5172 55.9199 42.1238L57.3294 39.175C56.492 39.0689 54.6166 38.8212 53.9678 38.6383C53.2508 38.3531 52.5666 37.9913 51.9273 37.5591Z" fill="#263238"/>
</g>
</svg>
