<svg width="24" height="24" viewBox="0 0 24 24" fill="none" xmlns="http://www.w3.org/2000/svg">
<g id="fluent-emoji-high-contrast:cut-of-meat">
<path id="Vector" d="M3.66898 17.8012L3.67198 17.799C0.722978 14.667 0.776978 9.72149 3.83398 6.66374C5.18398 5.31374 6.97648 4.48124 8.87398 4.30874C9.83076 4.22508 10.7279 3.80838 11.409 3.13124L11.544 2.99624C13.4865 1.05374 16.623 1.00274 18.6285 2.84249L18.6322 2.83874L18.7897 2.99624L20.9947 5.20124C22.9897 7.19624 22.9897 10.4512 20.9947 12.4462L20.8597 12.5812C20.1847 13.2637 19.7647 14.1637 19.6822 15.1162C19.5172 17.0212 18.6847 18.8137 17.3347 20.1637C14.2147 23.2762 9.14473 23.2762 6.03223 20.1637L3.66898 17.8012ZM3.69148 8.70374C2.08498 11.28 2.35948 14.6962 4.51498 16.9845C5.31381 17.8343 6.31737 18.4649 7.42961 18.8159C8.54185 19.1669 9.72556 19.2266 10.8675 18.9892C11.6697 18.8222 12.4351 18.5112 13.1265 18.0712C13.494 17.8387 13.6365 17.3662 13.449 16.9687L11.3115 12.4837C10.889 11.6087 10.1797 10.9046 9.30148 10.4887L4.79398 8.37374C4.39648 8.19374 3.92398 8.32874 3.69148 8.70374ZM13.764 15.8437C13.8253 15.9738 13.9181 16.0865 14.0342 16.1715C14.1502 16.2565 14.2856 16.311 14.4281 16.3302C14.5707 16.3494 14.7157 16.3325 14.8501 16.2812C14.9844 16.2299 15.1038 16.1458 15.1972 16.0365C15.8307 15.0713 16.2147 13.9639 16.3147 12.8137C16.4197 11.5837 16.9597 10.4287 17.8297 9.55124L17.9647 9.41624C18.3438 9.03798 18.6419 8.5865 18.8409 8.0893C19.0398 7.5921 19.1355 7.0596 19.122 6.52424C19.1092 5.98345 18.9851 5.45109 18.7575 4.96036C18.5298 4.46964 18.2036 4.03106 17.799 3.67199C16.233 2.28074 13.8232 2.38199 12.3315 3.87374L12.2415 3.96374C11.3649 4.83514 10.2103 5.37129 8.97898 5.47874C7.85398 5.57624 6.77398 5.94374 5.82898 6.54374C5.25898 6.91124 5.31148 7.76624 5.92648 8.05124L9.61648 9.79874C9.62098 9.79874 9.62398 9.80099 9.62848 9.80249C9.63223 9.80399 9.63598 9.80624 9.63898 9.80624C10.3665 10.1437 11.2215 10.0162 11.7915 9.44624L12.3465 8.89124C12.699 8.53874 12.834 8.02124 12.6915 7.54874C12.569 7.14219 12.5587 6.71009 12.6617 6.29816C12.7646 5.88624 12.9771 5.50982 13.2765 5.20874C13.5024 4.98171 13.7727 4.80362 14.0704 4.68558C14.3682 4.56754 14.6871 4.51206 15.0072 4.52262C15.3273 4.53317 15.6419 4.60953 15.9312 4.74692C16.2205 4.88432 16.4785 5.07982 16.689 5.32124C17.4615 6.19124 17.4615 7.52624 16.689 8.40374C16.0515 9.12374 15.0915 9.35624 14.2515 9.10124C14.0171 9.02878 13.7673 9.02193 13.5293 9.08143C13.2913 9.14093 13.0742 9.26451 12.9015 9.43874L12.354 9.98624C11.784 10.5562 11.6565 11.4187 12.0015 12.1462C12.0015 12.15 12.0037 12.1522 12.006 12.1537C12.0075 12.156 12.0097 12.1575 12.0097 12.1612L13.7647 15.8437H13.764ZM13.9965 5.91374C13.494 6.41624 13.494 7.22624 13.9965 7.72874C14.499 8.23124 15.3165 8.23124 15.819 7.73624C16.3215 7.23374 16.3215 6.41624 15.819 5.91374C15.5771 5.67238 15.2494 5.53683 14.9077 5.53683C14.566 5.53683 14.2383 5.67238 13.9965 5.91374Z" fill="#2E2E2E"/>
</g>
</svg>
