<svg width="24" height="24" viewBox="0 0 24 24" fill="none" xmlns="http://www.w3.org/2000/svg">
<g id="emojione-monotone:strawberry" clip-path="url(#clip0_26_549)">
<path id="Vector" d="M19.2555 5.967C18.006 4.71187 16.5067 4.1685 14.9437 4.1685C14.8091 4.1685 14.6734 4.1745 14.5387 4.18275C14.1502 2.4345 13.6106 0.75 13.6106 0.75C13.6106 0.75 11.2515 2.24662 9.87187 3.6435C8.27625 2.39587 6.441 1.24688 6.441 1.24688C6.441 1.24688 6.0495 4.11413 6.18675 6.2145C4.09537 6.07913 1.24125 6.474 1.24125 6.474C1.24125 6.474 2.38538 8.316 3.62925 9.91838C2.23875 11.3047 0.75 13.6763 0.75 13.6763C0.75 13.6763 2.49225 14.2376 4.26825 14.628C4.20862 16.2859 4.74113 17.8834 6.05925 19.2079C8.84962 22.0095 13.6852 23.25 17.3899 23.25C19.5382 23.2496 21.3067 22.8326 22.0744 22.0613C24.1451 19.9804 23.6434 10.3759 19.2555 5.967ZM21.5332 21.5228C21.0697 21.9885 19.7374 22.4865 17.3899 22.4869C13.9117 22.4869 9.22612 21.3067 6.60075 18.6694C3.579 15.6334 5.33962 11.1007 8.2545 8.17425C10.2754 6.14437 12.7759 4.932 14.9437 4.932C16.4062 4.93237 17.6749 5.46113 18.7144 6.50625C20.5549 8.355 21.8734 11.4457 22.3305 14.985C22.7606 18.3191 22.2555 20.7971 21.5332 21.5228Z" fill="#2E2E2E"/>
<path id="Vector_2" d="M15.0645 6.87038C15.2813 7.0215 15.5202 7.09763 15.7287 7.098C15.9315 7.098 16.1059 7.02675 16.2053 6.88313C16.4097 6.5925 16.2289 6.11363 15.8033 5.81513C15.5858 5.66325 15.3477 5.5875 15.1384 5.5875C14.9363 5.5875 14.7612 5.65875 14.661 5.802C14.4574 6.093 14.6374 6.57225 15.0645 6.87038ZM16.5278 12.2734C16.406 12.2703 16.2873 12.3117 16.1937 12.3896C15.9255 12.6225 15.9848 13.1306 16.3257 13.524C16.5522 13.7846 16.8465 13.9294 17.097 13.929C17.2245 13.9294 17.3408 13.8919 17.4312 13.8131C17.7 13.5803 17.64 13.0725 17.2992 12.6791C17.0727 12.4181 16.779 12.2738 16.5278 12.2734ZM13.2349 8.9745C13.117 8.971 13.0019 9.01015 12.9105 9.08475C12.6379 9.31313 12.6885 9.82275 13.0242 10.2214C13.2499 10.4895 13.5458 10.6391 13.7982 10.6395C13.9219 10.6395 14.034 10.6031 14.1233 10.5289C14.3959 10.3001 14.3445 9.79163 14.0097 9.3915C13.7843 9.12375 13.4877 8.97413 13.2349 8.9745ZM19.6515 9.92588C19.4573 9.5715 19.1382 9.35213 18.8599 9.35213C18.781 9.35148 18.7031 9.37055 18.6334 9.40763C18.3214 9.57863 18.2708 10.0875 18.5205 10.5446C18.7155 10.899 19.0332 11.118 19.3122 11.118C19.392 11.118 19.4689 11.1004 19.5387 11.0625C19.851 10.8919 19.9013 10.383 19.6515 9.92588ZM20.6082 14.3974C20.5699 14.3974 20.532 14.4026 20.4945 14.412C20.1503 14.502 19.9774 14.9824 20.1094 15.4868C20.2268 15.936 20.5452 16.2506 20.8572 16.251C20.8954 16.251 20.9333 16.2461 20.9708 16.2368C21.315 16.1471 21.4879 15.6656 21.3559 15.1613C21.2389 14.7128 20.9194 14.3974 20.6082 14.3974ZM20.16 19.1329C20.0273 19.1333 19.9073 19.1723 19.8158 19.2555C19.5522 19.494 19.6215 20.0006 19.971 20.3876C20.1987 20.6393 20.4889 20.7769 20.7364 20.7773C20.8692 20.7769 20.9899 20.7375 21.0822 20.6539C21.345 20.4154 21.2757 19.9088 20.9254 19.5225C20.6982 19.2716 20.4083 19.1329 20.16 19.1329ZM12.3462 18.7658C12.1328 18.6218 11.9003 18.5509 11.6952 18.5513C11.4855 18.5513 11.3048 18.6255 11.2043 18.7755C11.0067 19.071 11.1968 19.5458 11.6299 19.8349C11.8437 19.9785 12.0765 20.0498 12.2809 20.0498C12.4913 20.0498 12.6717 19.9748 12.7718 19.8248C12.9698 19.53 12.7793 19.0549 12.3462 18.7658ZM7.93692 17.5061C7.72355 17.3629 7.49105 17.292 7.2863 17.292C7.07592 17.292 6.89555 17.3666 6.79542 17.5159C6.5978 17.811 6.78792 18.2865 7.22067 18.5753C7.43442 18.7185 7.66729 18.7905 7.87242 18.7901C8.08204 18.7901 8.26279 18.7155 8.36254 18.5651C8.55979 18.2704 8.37005 17.7956 7.93692 17.5061ZM15.9552 20.4833C15.8034 20.4207 15.6412 20.3877 15.477 20.3861C15.1782 20.3858 14.9284 20.5084 14.8392 20.7274C14.7064 21.0563 14.9907 21.4823 15.4733 21.6765C15.636 21.7421 15.7999 21.7733 15.9514 21.7729C16.2503 21.7729 16.5008 21.6514 16.5885 21.4324C16.722 21.1031 16.4385 20.6779 15.9552 20.4833ZM16.9365 16.761C16.7329 16.6399 16.5169 16.5806 16.3242 16.5806C16.0928 16.5803 15.8955 16.6665 15.7969 16.8326C15.6147 17.1379 15.8307 17.6025 16.278 17.8688C16.4817 17.9895 16.6977 18.0488 16.8912 18.0488C17.1218 18.0488 17.319 17.9629 17.4177 17.7968C17.5995 17.4908 17.3839 17.0265 16.9365 16.761ZM12.963 14.1574C12.7373 13.9699 12.4774 13.8731 12.2524 13.8735C12.078 13.8731 11.925 13.9316 11.8257 14.0513C11.5992 14.3246 11.7398 14.817 12.1403 15.1493C12.3664 15.336 12.6267 15.4335 12.8517 15.4335C13.026 15.4335 13.1783 15.375 13.278 15.2554C13.5045 14.9816 13.3647 14.4893 12.963 14.1574ZM8.95017 8.70863C8.8058 8.709 8.67642 8.75325 8.58192 8.84663C8.32842 9.096 8.41917 9.59963 8.78404 9.9705C9.01317 10.2023 9.29555 10.3279 9.53742 10.3283C9.68142 10.3279 9.81079 10.2836 9.90529 10.1903C10.1588 9.9405 10.0684 9.43725 9.70317 9.06675C9.47367 8.83388 9.19167 8.709 8.95017 8.70863ZM8.55455 13.1153C8.3303 12.9379 8.07642 12.8468 7.85592 12.8471C7.67442 12.8471 7.51504 12.9083 7.4153 13.0346C7.19442 13.3125 7.34629 13.8019 7.75429 14.1244C7.97854 14.3021 8.23279 14.3925 8.45329 14.3925C8.63479 14.3925 8.79379 14.3321 8.89354 14.2054C9.11367 13.9271 8.96255 13.4385 8.55455 13.1153Z" fill="#2E2E2E"/>
</g>
<defs>
<clipPath id="clip0_26_549">
<rect width="24" height="24" fill="white"/>
</clipPath>
</defs>
</svg>
