<svg width="24" height="24" viewBox="0 0 24 24" fill="none" xmlns="http://www.w3.org/2000/svg">
<g id="emojione-monotone:carrot" clip-path="url(#clip0_26_546)">
<path id="Vector" d="M3.39146 19.1554C3.18708 19.5994 2.91596 19.8098 2.78433 20.247C2.65271 20.6843 2.05346 21.2805 1.87871 21.699C1.70396 22.1168 1.77896 22.4408 2.17683 21.7463C2.57433 21.0518 2.72733 20.7881 3.12483 20.4079C3.52308 20.0284 3.39296 19.1565 4.11933 19.3774C4.52883 19.5011 3.59621 18.7114 3.39146 19.1554ZM5.79108 16.125C5.39208 16.2401 5.24508 17.0914 4.20558 18.1189C3.82946 18.4909 4.48046 19.0946 4.75346 18.8209C4.93308 18.6413 4.35296 18.5501 4.54308 18.2801C4.78721 17.9329 5.26421 17.6738 5.78321 16.6114C5.79896 16.6219 6.48896 17.1593 6.65208 16.941C6.86583 16.6538 6.00108 16.0643 5.79108 16.125ZM10.0713 11.0561C9.65808 11.1296 9.45408 11.9824 8.33021 12.9176C7.92296 13.2563 8.54696 13.9436 8.84208 13.695C9.03708 13.5311 8.45246 13.3744 8.66321 13.119C8.93433 12.7916 9.43608 12.5798 10.032 11.5526C10.0473 11.5643 10.7145 12.1883 10.8941 11.9831C11.1307 11.7143 10.2892 11.0175 10.0713 11.0561ZM7.39833 14.1439C6.90746 15.1361 6.26058 15.4331 6.30108 15.7519C6.32246 15.9191 7.09683 16.4231 7.25883 16.2034C7.38333 16.035 6.71058 15.6473 6.69708 15.6375C7.39121 15.0203 7.44296 14.613 7.64396 14.3565C7.80108 14.1563 8.07183 14.5624 8.15771 14.3903C8.28933 14.1293 7.57571 13.785 7.39833 14.1439ZM12.1875 8.88526C11.8515 8.86913 11.652 9.55763 10.7103 10.1404C10.3683 10.3515 10.842 11.0569 11.0902 10.9009C11.2533 10.7989 10.7895 10.5533 10.9698 10.3766C11.2012 10.149 11.6137 10.0635 12.1357 9.30113C12.1473 9.31388 12.6592 9.97388 12.8126 9.83288C13.0125 9.64838 12.3645 8.89351 12.1875 8.88526Z" fill="#2E2E2E"/>
<path id="Vector_2" d="M22.0005 6.0465C22.2521 5.757 22.6463 5.41125 23.25 5.11387C22.0928 4.34175 20.598 4.89637 21.0683 4.17263C21.7853 3.07087 21.015 2.17238 21.015 2.17238C21.015 2.17238 19.9196 2.73938 19.1978 2.83388C19.2743 1.4985 18.7586 0.75 18.7586 0.75C18.7586 0.75 17.6846 1.54725 17.0051 1.78125C16.2161 1.10212 14.8339 1.2105 14.8339 1.2105C14.8339 1.2105 15.0401 2.18213 14.9381 2.841C14.1863 2.8425 13.5398 2.9745 13.5398 2.9745C14.5541 3.81862 14.976 4.33575 15.0698 4.6485C14.3486 4.64138 13.6466 4.96425 13.6466 4.96425C15.8419 6.49012 15.1789 8.09025 14.3535 9.11025C13.9196 8.66963 13.5281 8.23912 13.4258 8.0655C13.0391 7.4085 12.5108 7.31025 12.2299 7.31025C11.1795 7.31025 10.3444 8.60513 10.1134 9.00225C9.78527 9.56812 9.38627 10.0868 9.14289 10.2638C8.54664 10.698 7.71564 11.3888 7.39314 12.3615C7.26489 12.7478 6.80927 13.2184 6.47627 13.5619C6.25164 13.7936 6.05814 13.9939 5.93102 14.1893C5.89202 14.2489 5.84889 14.3171 5.80202 14.391C5.54589 14.7968 5.19564 15.3521 4.69464 15.7624C3.86627 16.4434 3.29139 17.2579 3.11739 17.9974C3.10577 18.0473 2.92427 18.1931 2.83727 18.2633C2.55939 18.4867 2.17952 18.7924 2.05352 19.3283C1.94027 19.8127 1.47114 20.7071 1.27314 20.9318C0.777394 21.4969 0.624394 22.1104 0.853144 22.6155C1.03127 23.0074 1.42127 23.25 1.87127 23.25C2.26689 23.25 2.68127 23.0704 3.06977 22.7288C3.18602 22.6268 3.34314 22.4576 3.56139 22.2236C3.87002 21.8918 4.68677 21.0154 4.98377 20.8894C5.77614 20.694 6.85052 19.8015 7.46364 19.0545C7.71039 18.753 8.27514 18.354 8.77314 18.0023C9.27264 17.6494 9.74439 17.316 10.0571 16.9875C10.3988 16.629 10.8416 16.3991 11.355 16.1329C12.012 15.7916 12.7568 15.405 13.4314 14.6591C13.6796 14.3846 14.1953 14.0715 14.694 13.7689C15.6968 13.1599 16.6444 12.5854 16.6384 11.667C16.635 11.1442 16.3114 10.6901 15.6773 10.3162C15.5456 10.2386 15.2648 9.993 14.9449 9.68925C15.9784 8.52975 17.6111 7.39838 19.1006 10.1186C19.1006 10.1186 19.5641 9.57975 19.7231 8.65425C20.0153 8.62575 20.4431 8.83238 21.0713 9.48413C21.0713 9.48413 21.4736 8.574 21.2314 7.716C21.8141 7.2705 22.9343 7.62113 22.9343 7.62113C22.9343 7.62113 22.8326 6.6015 22.0005 6.0465ZM15.3098 10.9425C17.2725 12.0986 13.9035 13.0567 12.8936 14.1727C11.7968 15.3851 10.4471 15.5272 9.53252 16.4876C8.94977 17.0989 7.46777 17.9047 6.90302 18.5944C6.33789 19.2825 5.38727 20.0494 4.80152 20.187C4.21652 20.325 2.92352 21.891 2.59089 22.1835C2.31827 22.4231 2.06627 22.5244 1.87127 22.5244C1.43664 22.5244 1.28477 22.0185 1.81877 21.4106C2.11089 21.078 2.62352 20.0783 2.76039 19.494C2.89802 18.9079 3.68739 18.7485 3.82427 18.1631C3.96189 17.5778 4.46702 16.8889 5.15514 16.3234C5.84477 15.7582 6.27264 14.9932 6.53964 14.5845C6.80552 14.1754 7.81164 13.4047 8.08239 12.5895C8.35277 11.775 9.14702 11.1589 9.57114 10.8499C9.99414 10.5416 10.4741 9.8265 10.7411 9.36675C10.9406 9.02325 11.6205 8.0355 12.2303 8.0355C12.4354 8.0355 12.6326 8.14725 12.801 8.43375C12.9356 8.66213 13.3774 9.15413 13.8615 9.645C13.743 9.7605 13.6324 9.86025 13.5405 9.9405C13.4693 10.0031 13.4558 10.0879 13.4771 10.1786L13.4764 10.1794C13.4895 10.2298 13.5099 10.278 13.5368 10.3226C13.701 10.6541 13.9313 10.6961 13.9313 10.6961L13.9316 10.6954C14.0288 10.7415 14.1154 10.7486 14.1585 10.689C14.2474 10.5675 14.3565 10.4164 14.4829 10.2517C14.8309 10.5772 15.1414 10.8431 15.3098 10.9425ZM18.3285 2.004C18.3285 2.004 19.3868 4.34625 16.9594 6.64612C16.9594 6.64612 18.312 4.47525 18.3285 2.004ZM15.7016 7.68975C15.7016 7.68975 16.3211 5.4375 15.693 3.27112C15.693 3.27112 17.2286 5.04525 15.7016 7.68975ZM15.2025 8.72662C18.5531 4.92412 21.432 6.585 21.432 6.585C18.1864 6.1995 15.2025 8.72662 15.2025 8.72662ZM17.8751 6.1215C19.9328 4.08187 21.5111 5.14012 21.5111 5.14012C19.7111 5.02987 17.8751 6.1215 17.8751 6.1215Z" fill="#2E2E2E"/>
</g>
<defs>
<clipPath id="clip0_26_546">
<rect width="24" height="24" fill="white"/>
</clipPath>
</defs>
</svg>
