<svg width="24" height="24" viewBox="0 0 24 24" fill="none" xmlns="http://www.w3.org/2000/svg">
<g id="game-icons:weight-scale">
<path id="Vector" d="M3.24094 1.92188L1.92188 3.18047V20.8266L3.14625 22.0781H20.8266L22.0781 20.8266V3.17484L20.8266 1.92188H3.24094ZM11.5781 3.37828V5.25H12.4219V3.37828C13.6078 3.39234 14.7891 3.46406 15.9188 3.59531L15.3422 5.89688L16.1578 6.10312L16.7578 3.70547C18.0328 3.89156 19.2188 4.15641 20.25 4.5L18 9.75C16.7766 9.44531 15.0516 9.2625 13.2422 9.20625C13.4344 9.46406 13.5469 9.78281 13.5469 10.125C13.5469 10.9734 12.8484 11.6719 12 11.6719C11.1516 11.6719 10.4531 10.9734 10.4531 10.125C10.4531 9.78281 10.5656 9.46406 10.7578 9.20625C8.94375 9.2625 7.22344 9.44531 6 9.75L3.75 4.5C4.78125 4.15641 5.96719 3.89156 7.24219 3.70547L7.84219 6.10312L8.65781 5.89688L8.08125 3.59531C9.21094 3.46406 10.3922 3.39234 11.5781 3.37828ZM10.1391 4.33406L9.36094 4.66594L11.1469 8.83594C11.3859 8.68125 11.6625 8.5875 11.9625 8.57812L10.1391 4.33406ZM12 9.42188C11.6062 9.42188 11.2969 9.73125 11.2969 10.125C11.2969 10.5188 11.6062 10.8281 12 10.8281C12.3938 10.8281 12.7031 10.5188 12.7031 10.125C12.7031 9.73125 12.3938 9.42188 12 9.42188ZM6 16.8281H18V17.6719H6V16.8281ZM6 19.0781H18V19.9219H6V19.0781Z" fill="#2E2E2E"/>
</g>
</svg>
