<svg width="24" height="24" viewBox="0 0 24 24" fill="none" xmlns="http://www.w3.org/2000/svg">
<path fill-rule="evenodd" clip-rule="evenodd" d="M12.0119 11.9167C11.4596 11.9167 11.0119 12.3644 11.0119 12.9167C11.0119 13.4689 11.4596 13.9167 12.0119 13.9167L15.6903 13.9167C16.2426 13.9167 16.6903 13.4689 16.6903 12.9167C16.6903 12.3644 16.2426 11.9167 15.6903 11.9167L12.0119 11.9167ZM8.3335 15.5958C7.78121 15.5958 7.3335 16.0435 7.3335 16.5958C7.3335 17.1481 7.78121 17.5958 8.3335 17.5958L15.6903 17.5958C16.2426 17.5958 16.6903 17.1481 16.6903 16.5958C16.6903 16.0435 16.2426 15.5958 15.6903 15.5958L8.3335 15.5958Z" fill="#53E88B" fill-opacity="1.0"/>
<path d="M16.5832 5.79255C15.5986 5.70017 14.4592 5.66218 13.1477 5.66218C5.0476 5.66218 3.10892 7.11135 2.16365 13.8728C2.01948 14.9041 1.93296 15.8118 1.91863 16.6096M16.5832 5.79255C21.6794 6.27073 22.6282 8.20612 21.836 13.8728C20.8908 20.6342 18.9521 22.0833 10.852 22.0833C3.98737 22.0833 1.83896 21.0425 1.91863 16.6096M16.5832 5.79255C16.5832 5.79255 16.7227 4.94868 16.5832 3.8376C16.2394 1.10072 4.94418 1.45819 3.74988 3.8376C1.91829 7.4867 1.91863 16.6096 1.91863 16.6096" stroke="#53E88B" stroke-opacity="1.0" stroke-width="2" stroke-linecap="round" stroke-linejoin="round"/>
</svg>
