<svg width="20" height="20" viewBox="0 0 20 20" fill="none" xmlns="http://www.w3.org/2000/svg">
<path fill-rule="evenodd" clip-rule="evenodd" d="M10.5547 2.57164C10.2188 2.3477 9.7812 2.3477 9.4453 2.57164L2.4453 7.2383C2.1671 7.42377 2 7.736 2 8.07035V17C2 17.5523 2.44772 18 3 18H6V14C6 12.3431 7.34315 11 9 11H11C12.6569 11 14 12.3431 14 14V18H17C17.5523 18 18 17.5523 18 17V8.07035C18 7.736 17.8329 7.42377 17.5547 7.2383L10.5547 2.57164ZM8.3359 0.907536C9.3436 0.235737 10.6564 0.235737 11.6641 0.907536L18.6641 5.5742C19.4987 6.1306 20 7.06729 20 8.07035V17C20 18.6568 18.6569 20 17 20H13C12.4477 20 12 19.5523 12 19V14C12 13.4477 11.5523 13 11 13H9C8.44772 13 8 13.4477 8 14V19C8 19.5523 7.55228 20 7 20H3C1.34315 20 0 18.6568 0 17V8.07035C0 7.06729 0.501303 6.1306 1.3359 5.5742L8.3359 0.907536Z" fill="#53E88B" fill-opacity="1.0"/>
</svg>
