<svg width="243" height="247" viewBox="0 0 243 247" fill="none" xmlns="http://www.w3.org/2000/svg">
<g id="Group 9697">
<g id="freepik--background-simple--inject-26">
<path id="Vector" d="M177.884 189.622C177.884 189.622 206.51 187.838 226.211 152.635C245.912 117.433 242.359 63.7333 217.858 33.9035C193.357 4.07379 155.211 -6.07743 118.819 3.47191C101.086 8.12547 89.2613 20.1851 79.044 34.7256C70.1406 47.3945 60.1288 59.6082 46.6526 67.6235C33.3158 75.5654 19.5973 81.8925 12.8886 96.9835C-3.50899 133.684 8.48458 176.417 47.2471 190.818C89.0264 206.327 158.793 197.975 177.884 189.622Z" fill="#92E3A9"/>
<path id="Vector_2" opacity="0.7" d="M177.884 189.622C177.884 189.622 206.51 187.838 226.211 152.635C245.912 117.433 242.359 63.7333 217.858 33.9035C193.357 4.07379 155.211 -6.07743 118.819 3.47191C101.086 8.12547 89.2613 20.1851 79.044 34.7256C70.1406 47.3945 60.1288 59.6082 46.6526 67.6235C33.3158 75.5654 19.5973 81.8925 12.8886 96.9835C-3.50899 133.684 8.48458 176.417 47.2471 190.818C89.0264 206.327 158.793 197.975 177.884 189.622Z" fill="white"/>
</g>
<g id="freepik--Device--inject-26">
<path id="Vector_3" d="M38.1312 65.4068H209.755C211.005 65.4068 212.203 65.9033 213.087 66.787C213.971 67.6707 214.467 68.8693 214.467 70.1191V189.468H33.419V70.1264C33.418 69.507 33.5392 68.8935 33.7755 68.3209C34.0119 67.7483 34.3589 67.228 34.7966 66.7896C35.2342 66.3513 35.754 66.0035 36.3262 65.7662C36.8984 65.529 37.5118 65.4068 38.1312 65.4068Z" fill="#263238"/>
<path id="Vector_4" d="M214.842 189.835H33.0518V70.1264C33.0518 68.7787 33.5867 67.486 34.539 66.5323C35.4913 65.5785 36.7833 65.0418 38.131 65.0398H209.755C211.103 65.0418 212.396 65.5783 213.35 66.5318C214.303 67.4853 214.84 68.778 214.842 70.1264V189.835ZM33.7858 189.101H214.108V70.1264C214.106 68.9726 213.646 67.8667 212.831 67.0508C212.015 66.235 210.909 65.7758 209.755 65.7738H38.131C36.9779 65.7758 35.8727 66.2352 35.058 67.0513C34.2433 67.8673 33.7858 68.9733 33.7858 70.1264V189.101Z" fill="#263238"/>
<path id="Vector_5" d="M236.245 246.353H11.641C9.16011 246.353 7.06821 242.793 8.16921 240.569L33.4188 191.515H214.475L239.856 240.4C240.965 242.616 238.763 246.353 236.245 246.353Z" fill="#263238"/>
<path id="Vector_6" d="M236.245 246.72H11.6408C10.945 246.676 10.2719 246.455 9.68498 246.079C9.09808 245.702 8.61673 245.183 8.28638 244.569C7.86994 243.968 7.60962 243.273 7.52889 242.546C7.44816 241.82 7.54957 241.085 7.82396 240.407L33.1763 191.148H214.695L214.797 191.339L240.179 240.231C240.452 240.924 240.548 241.674 240.458 242.414C240.368 243.153 240.096 243.858 239.665 244.466C239.326 245.096 238.836 245.631 238.239 246.024C237.642 246.418 236.957 246.657 236.245 246.72ZM33.6608 191.882L8.4919 240.752C8.27456 241.317 8.20037 241.927 8.27593 242.528C8.35149 243.128 8.57446 243.701 8.92496 244.195C9.19206 244.697 9.58021 245.126 10.0544 245.441C10.5285 245.756 11.0737 245.948 11.6408 246H236.245C236.832 245.937 237.395 245.73 237.883 245.397C238.371 245.064 238.769 244.616 239.041 244.092C239.403 243.59 239.636 243.007 239.721 242.394C239.805 241.781 239.738 241.157 239.526 240.576L214.247 191.882H33.6608Z" fill="#263238"/>
<path id="Vector_7" d="M236.245 244.305H11.6407C11.0723 244.305 10.5132 244.16 10.0163 243.884C9.51943 243.608 9.10126 243.21 8.80139 242.727C8.50151 242.244 8.32984 241.692 8.30265 241.125C8.27546 240.557 8.39363 239.992 8.64599 239.482L33.4185 189.468H214.474L239.239 239.482C239.492 239.992 239.61 240.557 239.583 241.125C239.556 241.692 239.384 242.244 239.084 242.727C238.784 243.21 238.366 243.608 237.869 243.884C237.372 244.16 236.813 244.305 236.245 244.305Z" fill="white"/>
<path id="Vector_8" d="M236.244 244.672H11.6404C11.0071 244.677 10.383 244.52 9.82754 244.216C9.27208 243.912 8.80384 243.47 8.46746 242.934C8.13108 242.397 7.93779 241.783 7.90603 241.151C7.87427 240.518 8.0051 239.888 8.28603 239.321L33.0585 189.306C33.0873 189.243 33.134 189.19 33.1927 189.154C33.2515 189.117 33.3197 189.099 33.3888 189.101H214.474C214.542 189.099 214.609 189.118 214.667 189.154C214.724 189.191 214.769 189.244 214.797 189.306L239.569 239.321C239.849 239.886 239.98 240.514 239.95 241.144C239.919 241.774 239.729 242.386 239.396 242.921C239.063 243.457 238.599 243.899 238.047 244.205C237.496 244.512 236.875 244.672 236.244 244.672ZM33.6604 189.835L8.976 239.644C8.75108 240.097 8.64562 240.6 8.6696 241.106C8.69358 241.611 8.84621 242.102 9.11303 242.532C9.37986 242.962 9.75204 243.317 10.1943 243.563C10.6366 243.809 11.1344 243.938 11.6404 243.938H236.244C236.75 243.938 237.248 243.809 237.691 243.563C238.133 243.317 238.505 242.962 238.772 242.532C239.039 242.102 239.191 241.611 239.215 241.106C239.239 240.6 239.134 240.097 238.909 239.644L214.246 189.835H33.6604Z" fill="#263238"/>
<path id="Vector_9" d="M203.509 75.2278H44.3848V179.639H203.509V75.2278Z" fill="white"/>
<path id="Vector_10" d="M203.868 180.006H44.0176V74.8681H203.868V180.006ZM44.7516 179.272H203.134V75.6021H44.7516V179.272Z" fill="#263238"/>
<path id="Vector_11" d="M199.955 122.813H48.5166V175.881H199.955V122.813Z" fill="#92E3A9"/>
<path id="Vector_12" opacity="0.46" d="M67.8723 154.727V153.406C67.8723 153.211 67.795 153.025 67.6573 152.887C67.5197 152.749 67.333 152.672 67.1383 152.672H66.1254C65.9713 151.999 65.7059 151.357 65.34 150.771L66.074 150.037C66.202 149.901 66.2732 149.721 66.2732 149.534C66.2732 149.347 66.202 149.168 66.074 149.031L65.1271 148.085C64.9906 147.954 64.8093 147.882 64.6207 147.882C64.4321 147.882 64.2507 147.954 64.1142 148.085L63.3802 148.819C62.7927 148.451 62.1476 148.186 61.4718 148.033V146.998C61.4718 146.804 61.3945 146.617 61.2568 146.479C61.1192 146.342 60.9325 146.264 60.7378 146.264H59.4019C59.2073 146.264 59.0206 146.342 58.8829 146.479C58.7453 146.617 58.6679 146.804 58.6679 146.998V148.033C57.9949 148.187 57.3524 148.453 56.7669 148.819L56.0329 148.085C55.8967 147.957 55.7169 147.885 55.5301 147.885C55.3432 147.885 55.1634 147.957 55.0273 148.085L54.1171 149.002C53.9891 149.138 53.9179 149.318 53.9179 149.505C53.9179 149.692 53.9891 149.872 54.1171 150.008L54.8511 150.742C54.4852 151.327 54.2198 151.97 54.0657 152.643H53.0602C52.8655 152.643 52.6788 152.72 52.5412 152.858C52.4035 152.995 52.3262 153.182 52.3262 153.377V154.713C52.3262 154.907 52.4035 155.094 52.5412 155.232C52.6788 155.369 52.8655 155.447 53.0602 155.447H54.0951C54.2478 156.122 54.5133 156.768 54.8805 157.355L54.1465 158.089C54.0185 158.225 53.9472 158.405 53.9472 158.592C53.9472 158.779 54.0185 158.958 54.1465 159.095L55.0934 160.041C55.2295 160.169 55.4093 160.241 55.5961 160.241C55.783 160.241 55.9628 160.169 56.0989 160.041L56.8329 159.307C57.4184 159.673 58.061 159.939 58.734 160.093V161.128C58.734 161.322 58.8113 161.509 58.949 161.647C59.0866 161.784 59.2733 161.862 59.468 161.862H60.8039C60.9985 161.862 61.1852 161.784 61.3229 161.647C61.4605 161.509 61.5379 161.322 61.5379 161.128V160.093C62.2136 159.94 62.8588 159.675 63.4463 159.307L64.1803 160.041C64.3168 160.172 64.4981 160.244 64.6867 160.244C64.8753 160.244 65.0567 160.172 65.1932 160.041L66.1401 159.095C66.268 158.958 66.3393 158.779 66.3393 158.592C66.3393 158.405 66.268 158.225 66.1401 158.089L65.4061 157.355C65.7732 156.768 66.0387 156.122 66.1914 155.447H67.2264C67.4029 155.425 67.5657 155.341 67.6845 155.208C67.8033 155.076 67.87 154.905 67.8723 154.727ZM60.4002 157.076C59.7732 157.14 59.142 157.007 58.593 156.698C58.0441 156.388 57.6044 155.917 57.3342 155.347C57.064 154.778 56.9766 154.139 57.0839 153.518C57.1912 152.897 57.488 152.325 57.9336 151.879C58.3792 151.433 58.9518 151.137 59.5727 151.029C60.1937 150.922 60.8326 151.009 61.4019 151.28C61.9712 151.55 62.443 151.99 62.7525 152.538C63.062 153.087 63.1941 153.719 63.1307 154.346C63.0598 155.046 62.7494 155.7 62.2518 156.197C61.7543 156.695 61.1002 157.005 60.4002 157.076Z" fill="white"/>
<path id="Vector_13" opacity="0.46" d="M80.475 164.086V162.75C80.475 162.555 80.3977 162.369 80.26 162.231C80.1224 162.093 79.9357 162.016 79.741 162.016H78.7501C78.5948 161.34 78.3268 160.695 77.9574 160.108L78.6914 159.374C78.8215 159.237 78.8941 159.056 78.8941 158.867C78.8941 158.678 78.8215 158.497 78.6914 158.361L77.7445 157.414C77.608 157.284 77.4266 157.211 77.238 157.211C77.0494 157.211 76.8681 157.284 76.7316 157.414L75.9976 158.148C75.4095 157.782 74.7645 157.516 74.0892 157.362V156.342C74.0892 156.147 74.0118 155.961 73.8742 155.823C73.7365 155.685 73.5498 155.608 73.3552 155.608H72.012C71.8173 155.608 71.6306 155.685 71.493 155.823C71.3553 155.961 71.278 156.147 71.278 156.342V157.377C70.6026 157.531 69.9577 157.797 69.3696 158.162L68.6356 157.428C68.4991 157.298 68.3177 157.226 68.1291 157.226C67.9405 157.226 67.7591 157.298 67.6226 157.428L66.6758 158.375C66.5457 158.512 66.4731 158.693 66.4731 158.882C66.4731 159.07 66.5457 159.252 66.6758 159.388L67.4098 160.122C67.0372 160.708 66.769 161.353 66.6171 162.031H65.5895C65.3948 162.031 65.2081 162.108 65.0705 162.246C64.9328 162.383 64.8555 162.57 64.8555 162.765V164.1C64.8555 164.295 64.9328 164.482 65.0705 164.619C65.2081 164.757 65.3948 164.834 65.5895 164.834H66.6171C66.7691 165.509 67.0374 166.153 67.4098 166.736L66.6758 167.47C66.5457 167.606 66.4731 167.787 66.4731 167.976C66.4731 168.165 66.5457 168.346 66.6758 168.482L67.6226 169.422C67.7591 169.552 67.9405 169.625 68.1291 169.625C68.3177 169.625 68.4991 169.552 68.6356 169.422L69.3696 168.688C69.9577 169.054 70.6026 169.319 71.278 169.473V170.508C71.278 170.703 71.3553 170.89 71.493 171.027C71.6306 171.165 71.8173 171.242 72.012 171.242H73.3552C73.5498 171.242 73.7365 171.165 73.8742 171.027C74.0118 170.89 74.0892 170.703 74.0892 170.508V169.473C74.7645 169.319 75.4095 169.054 75.9976 168.688L76.7316 169.422C76.8681 169.552 77.0494 169.625 77.238 169.625C77.4266 169.625 77.608 169.552 77.7445 169.422L78.6914 168.482C78.8215 168.346 78.8941 168.165 78.8941 167.976C78.8941 167.787 78.8215 167.606 78.6914 167.47L77.9574 166.736C78.3268 166.151 78.5948 165.508 78.7501 164.834H79.7777C79.9685 164.825 80.1481 164.741 80.2783 164.602C80.4085 164.462 80.479 164.277 80.475 164.086ZM73.0029 166.464C72.374 166.529 71.7405 166.397 71.1893 166.088C70.6382 165.778 70.1965 165.305 69.9249 164.734C69.6532 164.164 69.565 163.523 69.6724 162.9C69.7798 162.277 70.0774 161.702 70.5244 161.255C70.9715 160.808 71.5459 160.51 72.1689 160.403C72.792 160.296 73.4329 160.384 74.0038 160.655C74.5747 160.927 75.0474 161.369 75.3571 161.92C75.6668 162.471 75.7982 163.105 75.7333 163.733C75.6612 164.433 75.3503 165.086 74.853 165.584C74.3558 166.081 73.7024 166.392 73.0029 166.464Z" fill="white"/>
<path id="Vector_14" d="M81.9069 127.922H54.4553C54.3716 127.922 54.2913 127.888 54.2321 127.829C54.1729 127.77 54.1396 127.69 54.1396 127.606C54.1396 127.522 54.1726 127.441 54.2316 127.38C54.2906 127.32 54.3709 127.285 54.4553 127.283H81.9069C81.9925 127.283 82.0747 127.317 82.1352 127.378C82.1958 127.438 82.2298 127.52 82.2298 127.606C82.2279 127.69 82.193 127.771 82.1327 127.83C82.0723 127.889 81.9913 127.922 81.9069 127.922Z" fill="#263238"/>
<path id="Vector_15" d="M81.9069 131.885H54.4553C54.3709 131.883 54.2906 131.848 54.2316 131.788C54.1726 131.728 54.1396 131.647 54.1396 131.562C54.1396 131.479 54.1729 131.398 54.2321 131.339C54.2913 131.28 54.3716 131.247 54.4553 131.247H81.9069C81.9913 131.247 82.0723 131.28 82.1327 131.339C82.193 131.398 82.2279 131.478 82.2298 131.562C82.2298 131.648 82.1958 131.73 82.1352 131.791C82.0747 131.851 81.9925 131.885 81.9069 131.885Z" fill="#263238"/>
<path id="Vector_16" d="M81.9069 135.841H54.4553C54.3716 135.841 54.2913 135.808 54.2321 135.749C54.1729 135.69 54.1396 135.61 54.1396 135.526C54.1396 135.441 54.1726 135.36 54.2316 135.3C54.2906 135.24 54.3709 135.205 54.4553 135.203H81.9069C81.9925 135.203 82.0747 135.237 82.1352 135.297C82.1958 135.358 82.2298 135.44 82.2298 135.526C82.2279 135.61 82.193 135.69 82.1327 135.749C82.0723 135.808 81.9913 135.841 81.9069 135.841Z" fill="#263238"/>
<path id="Vector_17" d="M81.9069 139.805H54.4553C54.3709 139.803 54.2906 139.768 54.2316 139.708C54.1726 139.648 54.1396 139.567 54.1396 139.482C54.1396 139.398 54.1729 139.318 54.2321 139.259C54.2913 139.2 54.3716 139.166 54.4553 139.166H81.9069C81.9913 139.166 82.0723 139.199 82.1327 139.258C82.193 139.317 82.2279 139.398 82.2298 139.482C82.2298 139.568 82.1958 139.65 82.1352 139.71C82.0747 139.771 81.9925 139.805 81.9069 139.805Z" fill="#263238"/>
<path id="Vector_18" d="M197.049 80.1529H51.4232C49.818 80.1529 48.5166 81.4542 48.5166 83.0595V83.3898C48.5166 84.9951 49.818 86.2965 51.4232 86.2965H197.049C198.654 86.2965 199.955 84.9951 199.955 83.3898V83.0595C199.955 81.4542 198.654 80.1529 197.049 80.1529Z" fill="#92E3A9"/>
<path id="Vector_19" d="M197.049 100.411H51.4232C49.818 100.411 48.5166 101.713 48.5166 103.318V103.648C48.5166 105.254 49.818 106.555 51.4232 106.555H197.049C198.654 106.555 199.955 105.254 199.955 103.648V103.318C199.955 101.713 198.654 100.411 197.049 100.411Z" fill="#92E3A9"/>
<path id="Vector_20" d="M116.39 206.827L116.706 200.14H107.142L106.503 206.827H116.39Z" fill="#263238"/>
<path id="Vector_21" d="M116.743 207.194H106.1L106.834 199.773H117.11L116.743 207.194ZM106.907 206.46H116.038L116.324 200.507H107.472L106.907 206.46Z" fill="white"/>
<path id="Vector_22" d="M136.164 206.827L135.841 200.14H126.27L126.277 206.827H136.164Z" fill="#263238"/>
<path id="Vector_23" d="M136.553 207.194H125.91V199.773H136.186L136.553 207.194ZM126.644 206.46H135.775L135.489 200.507H126.637L126.644 206.46Z" fill="white"/>
<path id="Vector_24" d="M187.654 213.968H197.886L195.486 206.827H185.599L187.654 213.968Z" fill="#263238"/>
<path id="Vector_25" d="M198.393 214.328H187.383L185.107 206.452H195.75L198.393 214.328ZM187.933 213.594H197.373L195.222 207.186H186.084L187.933 213.594Z" fill="white"/>
<path id="Vector_26" d="M106.503 206.827L107.142 200.14H97.5704L96.6162 206.827H106.503Z" fill="#263238"/>
<path id="Vector_27" d="M106.84 207.194H96.1973L97.2542 199.773H107.53L106.84 207.194ZM97.0414 206.46H106.172L106.738 200.507H97.9295L97.0414 206.46Z" fill="white"/>
<path id="Vector_28" d="M86.7288 206.827L88.0059 200.14H78.4346L76.8418 206.827H86.7288Z" fill="#263238"/>
<path id="Vector_29" d="M87.0376 207.194H76.3799L78.1488 199.773H88.4248L87.0376 207.194ZM77.3121 206.46H86.4283L87.5587 200.507H78.7507L77.3121 206.46Z" fill="white"/>
<path id="Vector_30" d="M175.712 206.827L174.104 200.14H164.54L165.825 206.827H175.712Z" fill="#263238"/>
<path id="Vector_31" d="M176.174 207.194H165.517L164.093 199.773H174.369L176.174 207.194ZM166.126 206.46H175.242L173.818 200.507H165.01L166.126 206.46Z" fill="white"/>
<path id="Vector_32" d="M185.599 206.827L183.669 200.14H174.104L175.712 206.827H185.599Z" fill="#263238"/>
<path id="Vector_33" d="M186.083 207.194H175.418L173.642 199.773H183.918L186.083 207.194ZM175.998 206.46H185.107L183.396 200.507H174.588L175.998 206.46Z" fill="white"/>
<path id="Vector_34" d="M76.8421 206.827L78.4348 200.14H68.8708L66.9551 206.827H76.8421Z" fill="#263238"/>
<path id="Vector_35" d="M77.1357 207.194H66.4707L68.592 199.773H78.9047L77.1357 207.194ZM67.4469 206.46H76.5485L77.9651 200.507H69.1571L67.4469 206.46Z" fill="white"/>
<path id="Vector_36" d="M146.051 206.827L145.405 200.14H135.841L136.164 206.827H146.051Z" fill="#263238"/>
<path id="Vector_37" d="M146.455 207.194H135.812L135.452 199.773H145.728L146.455 207.194ZM136.516 206.46H145.647L145.075 200.507H136.223L136.516 206.46Z" fill="white"/>
<path id="Vector_38" d="M195.485 206.827L193.239 200.14H183.668L185.598 206.827H195.485Z" fill="#263238"/>
<path id="Vector_39" d="M195.992 207.194H185.32L183.184 199.773H193.504L195.992 207.194ZM185.87 206.46H194.972L192.975 200.507H184.167L185.87 206.46Z" fill="white"/>
<path id="Vector_40" d="M165.825 206.827L164.54 200.14H154.969L155.938 206.827H165.825Z" fill="#263238"/>
<path id="Vector_41" d="M166.265 207.194H155.622L154.551 199.773H164.827L166.265 207.194ZM156.254 206.46H165.363L164.218 200.507H155.41L156.254 206.46Z" fill="white"/>
<path id="Vector_42" d="M155.938 206.827L154.969 200.14H145.405L146.051 206.827H155.938Z" fill="#263238"/>
<path id="Vector_43" d="M156.363 207.194H145.72L144.986 199.773H155.262L156.363 207.194ZM146.381 206.46H155.512L154.653 200.507H145.808L146.381 206.46Z" fill="white"/>
<path id="Vector_44" d="M126.277 206.827L126.269 200.14H116.705L116.39 206.827H126.277Z" fill="#263238"/>
<path id="Vector_45" d="M126.643 207.194H116.008L116.353 199.773H126.629L126.643 207.194ZM116.779 206.46H125.909V200.507H117.057L116.779 206.46Z" fill="white"/>
<path id="Vector_46" d="M57.0755 206.827H47.1885L44.458 213.968H54.6826L57.0755 206.827Z" fill="#263238"/>
<path id="Vector_47" d="M54.9465 214.328H43.9365L46.9459 206.452H57.5963L54.9465 214.328ZM44.9861 213.594H54.418L56.5613 207.186H47.4377L44.9861 213.594Z" fill="white"/>
<path id="Vector_48" d="M59.3068 200.14H49.7355L47.1885 206.827H57.0755L59.3068 200.14Z" fill="#263238"/>
<path id="Vector_49" d="M57.332 207.194H46.6523L49.4856 199.773H59.813L57.332 207.194ZM47.7166 206.46H56.8036L58.7927 200.507H49.9847L47.7166 206.46Z" fill="white"/>
<path id="Vector_50" d="M66.9548 206.827L68.8706 200.14H59.3066L57.0752 206.827H66.9548Z" fill="#263238"/>
<path id="Vector_51" d="M67.2339 207.194H56.5615L59.0424 199.773H69.3184L67.2339 207.194ZM57.5818 206.46H66.6834L68.3863 200.507H59.5783L57.5818 206.46Z" fill="white"/>
<path id="Vector_52" d="M41.5292 221.624L38.3877 229.852H49.3757L52.1282 221.624H41.5292Z" fill="#263238"/>
<path id="Vector_53" d="M49.6396 230.219H37.8516L41.316 221.257H52.671L49.6396 230.219ZM38.9159 229.485H49.1111L51.592 221.991H41.7858L38.9159 229.485Z" fill="white"/>
<path id="Vector_54" d="M54.6826 213.968H44.458L41.5293 221.624H52.1283L54.6826 213.968Z" fill="#263238"/>
<path id="Vector_55" d="M52.3922 221.991H40.9932L44.2007 213.594H55.2107L52.3922 221.991ZM42.0648 221.257H51.8637L54.1758 214.335H44.7072L42.0648 221.257Z" fill="white"/>
<path id="Vector_56" d="M52.1285 221.624L49.376 229.852H60.364L62.7201 221.624H52.1285Z" fill="#263238"/>
<path id="Vector_57" d="M60.6424 230.219H48.8984L51.8932 221.257H63.2335L60.6424 230.219ZM49.882 229.485H60.0846L62.2352 221.991H52.3923L49.882 229.485Z" fill="white"/>
<path id="Vector_58" d="M96.6155 206.827L97.5697 200.14H88.0057L86.7285 206.827H96.6155Z" fill="#263238"/>
<path id="Vector_59" d="M96.9384 207.194H86.2881L87.6974 199.773H97.9734L96.9384 207.194ZM87.1762 206.46H96.2998L97.1439 200.507H88.2919L87.1762 206.46Z" fill="white"/>
<path id="Vector_60" d="M95.5957 213.968L96.616 206.827H86.729L85.3711 213.968H95.5957Z" fill="#263238"/>
<path id="Vector_61" d="M95.9182 214.328H84.9082L86.4129 206.452H97.0265L95.9182 214.328ZM85.811 213.594H95.2796L96.1971 207.186H87.0368L85.811 213.594Z" fill="white"/>
<path id="Vector_62" d="M85.3706 213.968L86.7285 206.827H76.8415L75.1387 213.968H85.3706Z" fill="#263238"/>
<path id="Vector_63" d="M85.6721 214.328H74.6621L76.5485 206.46H87.1695L85.6721 214.328ZM75.609 213.594H85.0629L86.2887 207.186H77.1357L75.609 213.594Z" fill="white"/>
<path id="Vector_64" d="M105.828 213.968L106.503 206.827H96.616L95.5957 213.968H105.828Z" fill="#263238"/>
<path id="Vector_65" d="M106.157 214.328H95.1475L96.2705 206.452H106.877L106.157 214.328ZM96.0209 213.594H105.49L106.099 207.186H96.9384L96.0209 213.594Z" fill="white"/>
<path id="Vector_66" d="M66.9551 206.827H57.0755L54.6826 213.968H64.9146L66.9551 206.827Z" fill="#263238"/>
<path id="Vector_67" d="M65.1858 214.328H54.1758L56.8035 206.452H67.4465L65.1858 214.328ZM55.196 213.594H64.6353L66.4703 207.186H57.332L55.196 213.594Z" fill="white"/>
<path id="Vector_68" d="M189.864 221.624H200.455L197.886 213.968H187.654L189.864 221.624Z" fill="#263238"/>
<path id="Vector_69" d="M200.969 221.991H189.585L187.17 213.594H198.18L200.969 221.991ZM190.135 221.257H199.949L197.659 214.328H188.117L190.135 221.257Z" fill="white"/>
<path id="Vector_70" d="M75.1387 213.968L76.8416 206.827H66.9546L64.9141 213.968H75.1387Z" fill="#263238"/>
<path id="Vector_71" d="M75.4329 214.328H64.4229L66.6836 206.452H77.2825L75.4329 214.328ZM65.3991 213.594H74.853L76.3797 207.186H67.2341L65.3991 213.594Z" fill="white"/>
<path id="Vector_72" d="M54.6823 213.968L52.1279 221.624H62.7196L64.9142 213.968H54.6823Z" fill="#263238"/>
<path id="Vector_73" d="M62.9991 221.991H51.5928L54.4187 213.594H65.4287L62.9991 221.991ZM52.6351 221.257H62.4413L64.4231 214.335H54.9472L52.6351 221.257Z" fill="white"/>
<path id="Vector_74" d="M167.197 213.968L165.824 206.827H155.938L156.972 213.968H167.197Z" fill="#263238"/>
<path id="Vector_75" d="M167.645 214.328H156.635L155.497 206.452H166.096L167.645 214.328ZM157.288 213.594H166.757L165.516 207.186H156.363L157.288 213.594Z" fill="white"/>
<path id="Vector_76" d="M156.973 213.968L155.938 206.827H146.051L146.741 213.968H156.973Z" fill="#263238"/>
<path id="Vector_77" d="M157.391 214.328H146.381L145.647 206.452H156.254L157.391 214.328ZM147.071 213.594H156.555L155.63 207.186H146.455L147.071 213.594Z" fill="white"/>
<path id="Vector_78" d="M187.654 213.968L185.599 206.827H175.712L177.429 213.968H187.654Z" fill="#263238"/>
<path id="Vector_79" d="M188.117 214.328H177.107L175.213 206.452H185.841L188.117 214.328ZM177.686 213.594H187.14L185.291 207.186H176.174L177.686 213.594Z" fill="white"/>
<path id="Vector_80" d="M126.285 213.968L126.277 206.827H116.39L116.053 213.968H126.285Z" fill="#263238"/>
<path id="Vector_81" d="M126.652 214.328H115.642L116.009 206.452H126.615L126.652 214.328ZM116.442 213.594H125.918V207.186H116.743L116.442 213.594Z" fill="white"/>
<path id="Vector_82" d="M146.741 213.968L146.051 206.827H136.164L136.509 213.968H146.741Z" fill="#263238"/>
<path id="Vector_83" d="M147.144 214.328H136.134L135.745 206.452H146.351L147.144 214.328ZM136.868 213.594H146.344L145.728 207.186H136.553L136.868 213.594Z" fill="white"/>
<path id="Vector_84" d="M136.509 213.968L136.164 206.827H126.277L126.285 213.968H136.509Z" fill="#263238"/>
<path id="Vector_85" d="M136.898 214.328H125.888V206.46H136.516L136.898 214.328ZM126.622 213.594H136.098L135.782 207.186H126.644L126.622 213.594Z" fill="white"/>
<path id="Vector_86" d="M116.052 213.968L116.389 206.827H106.502L105.827 213.968H116.052Z" fill="#263238"/>
<path id="Vector_87" d="M116.405 214.328H105.395L106.129 206.452H116.735L116.405 214.328ZM106.231 213.594H115.707L116.008 207.186H106.841L106.231 213.594Z" fill="white"/>
<path id="Vector_88" d="M146.741 213.968L147.483 221.624H158.074L156.973 213.968H146.741Z" fill="#263238"/>
<path id="Vector_89" d="M158.499 221.991H147.144L146.337 213.594H157.288L158.499 221.991ZM147.812 221.257H157.655L156.65 214.328H147.144L147.812 221.257Z" fill="white"/>
<path id="Vector_90" d="M156.973 213.968L158.074 221.624H168.673L167.197 213.968H156.973Z" fill="#263238"/>
<path id="Vector_91" d="M169.113 221.991H157.758L156.555 213.594H167.506L169.113 221.991ZM158.397 221.257H168.225L166.897 214.328H157.391L158.397 221.257Z" fill="white"/>
<path id="Vector_92" d="M64.9144 213.968L62.7197 221.624H73.3113L75.139 213.968H64.9144Z" fill="#263238"/>
<path id="Vector_93" d="M73.6124 221.991H62.2354L64.6355 213.594H75.6088L73.6124 221.991ZM63.2116 221.257H73.0251L74.6766 214.335H65.186L63.2116 221.257Z" fill="white"/>
<path id="Vector_94" d="M167.197 213.968L168.673 221.624H179.264L177.429 213.968H167.197Z" fill="#263238"/>
<path id="Vector_95" d="M179.734 221.991H168.372L166.757 213.594H177.715L179.734 221.991ZM168.974 221.257H178.802L177.106 214.328H167.645L168.974 221.257Z" fill="white"/>
<path id="Vector_96" d="M126.284 213.968L126.292 221.624H136.883L136.509 213.968H126.284Z" fill="#263238"/>
<path id="Vector_97" d="M137.272 221.991H125.925V213.594H136.869L137.272 221.991ZM126.659 221.257H136.502L136.164 214.335H126.622L126.659 221.257Z" fill="white"/>
<path id="Vector_98" d="M177.43 213.968L179.265 221.624H189.864L187.654 213.968H177.43Z" fill="#263238"/>
<path id="Vector_99" d="M190.319 221.991H178.978L176.96 213.594H187.933L190.319 221.991ZM179.529 221.257H189.343L187.383 214.328H177.892L179.529 221.257Z" fill="white"/>
<path id="Vector_100" d="M136.509 213.968L136.883 221.624H147.482L146.741 213.968H136.509Z" fill="#263238"/>
<path id="Vector_101" d="M147.886 221.991H136.538L136.127 213.594H147.071L147.886 221.991ZM137.235 221.257H147.078L146.41 214.335H136.868L137.235 221.257Z" fill="white"/>
<path id="Vector_102" d="M85.3708 213.968L83.9102 221.624H94.5091L95.5954 213.968H85.3708Z" fill="#263238"/>
<path id="Vector_103" d="M94.8247 221.991H83.4697L85.0625 213.594H96.0211L94.8247 221.991ZM84.3505 221.257H94.1641L95.155 214.335H85.6717L84.3505 221.257Z" fill="white"/>
<path id="Vector_104" d="M75.1392 213.968L73.3115 221.624H83.9105L85.3711 213.968H75.1392Z" fill="#263238"/>
<path id="Vector_105" d="M84.2109 221.991H72.8779L74.8524 213.594H85.811L84.2109 221.991ZM73.7807 221.257H83.609L84.9229 214.335H75.4322L73.7807 221.257Z" fill="white"/>
<path id="Vector_106" d="M116.053 213.968L115.7 221.624H126.292L126.284 213.968H116.053Z" fill="#263238"/>
<path id="Vector_107" d="M126.658 221.991H115.311L115.707 213.601H126.651L126.658 221.991ZM116.081 221.257H125.924V214.328H116.382L116.081 221.257Z" fill="white"/>
<path id="Vector_108" d="M105.827 213.968L105.101 221.624H115.7L116.052 213.968H105.827Z" fill="#263238"/>
<path id="Vector_109" d="M116.045 221.991H104.697L105.49 213.594H116.441L116.045 221.991ZM105.505 221.257H115.348L115.671 214.335H106.129L105.505 221.257Z" fill="white"/>
<path id="Vector_110" d="M95.5961 213.968L94.5098 221.624H105.101L105.828 213.968H95.5961Z" fill="#263238"/>
<path id="Vector_111" d="M105.432 221.991H94.084L95.2804 213.594H106.232L105.432 221.991ZM94.9281 221.257H104.764L105.424 214.335H95.8823L94.9281 221.257Z" fill="white"/>
<path id="Vector_112" d="M177.43 213.968L175.712 206.827H165.825L167.198 213.968H177.43Z" fill="#263238"/>
<path id="Vector_113" d="M177.892 214.328H166.882L165.362 206.46H175.983L177.892 214.328ZM167.498 213.594H176.959L175.418 207.186H166.265L167.498 213.594Z" fill="white"/>
<path id="Vector_114" d="M59.3067 200.14L61.5894 193.299H52.3484L49.7354 200.14H59.3067Z" fill="#263238"/>
<path id="Vector_115" d="M59.5711 200.507H49.207L52.099 192.932H62.1034L59.5711 200.507ZM50.2713 199.773H59.0793L61.1198 193.666H52.6055L50.2713 199.773Z" fill="white"/>
<path id="Vector_116" d="M49.7356 200.14H40.9055L38.0576 206.827H47.1886L49.7356 200.14Z" fill="#263238"/>
<path id="Vector_117" d="M47.4379 207.194H37.5068L40.663 199.773H50.2711L47.4379 207.194ZM38.6299 206.46H46.9461L49.2215 200.507H41.1475L38.6299 206.46Z" fill="white"/>
<path id="Vector_118" d="M52.3483 193.299H43.8193L40.9053 200.14H49.7353L52.3483 193.299Z" fill="#263238"/>
<path id="Vector_119" d="M49.9919 200.507H40.3545L43.5768 192.932H52.8839L49.9919 200.507ZM41.4628 199.773H49.4855L51.8196 193.666H44.0685L41.4628 199.773Z" fill="white"/>
<path id="Vector_120" d="M47.1888 206.827H38.0578L35.0117 213.968H44.4583L47.1888 206.827Z" fill="#263238"/>
<path id="Vector_121" d="M44.7076 214.328H34.4316L37.786 206.452H47.6877L44.7076 214.328ZM35.5693 213.594H44.2012L46.6527 207.186H38.2998L35.5693 213.594Z" fill="white"/>
<path id="Vector_122" d="M44.4575 213.968H35.0109L31.752 221.624H41.5288L44.4575 213.968Z" fill="#263238"/>
<path id="Vector_123" d="M41.786 221.991H31.1943L34.7689 213.594H44.9862L41.786 221.991ZM32.3027 221.257H41.3162L43.9586 214.335H35.2534L32.3027 221.257Z" fill="white"/>
<path id="Vector_124" d="M41.5295 221.624H31.7527L28.2441 229.852H38.388L41.5295 221.624Z" fill="#263238"/>
<path id="Vector_125" d="M38.6368 230.219H27.6855L31.5097 221.257H42.0499L38.6368 230.219ZM28.8012 229.485H38.1304L40.993 221.991H31.9941L28.8012 229.485Z" fill="white"/>
<path id="Vector_126" d="M205.373 206.827L208.111 213.968H217.161L214.115 206.827H205.373Z" fill="#263238"/>
<path id="Vector_127" d="M217.719 214.328H207.861L204.837 206.452H214.379L217.719 214.328ZM208.367 213.594H216.603L213.872 207.186H205.901L208.367 213.594Z" fill="white"/>
<path id="Vector_128" d="M211.054 221.624H220.427L217.161 213.968H208.11L211.054 221.624Z" fill="#263238"/>
<path id="Vector_129" d="M220.978 221.991H210.797L207.582 213.594H217.403L220.978 221.991ZM211.303 221.257H219.869L216.933 214.335H208.668L211.303 221.257Z" fill="white"/>
<path id="Vector_130" d="M214.21 229.852H223.928L220.427 221.624H211.054L214.21 229.852Z" fill="#263238"/>
<path id="Vector_131" d="M224.486 230.219H213.96L210.518 221.257H220.669L224.486 230.219ZM214.459 229.485H223.348L220.155 221.991H211.604L214.459 229.485Z" fill="white"/>
<path id="Vector_132" d="M135.84 200.14L135.503 193.299H126.262L126.269 200.14H135.84Z" fill="#263238"/>
<path id="Vector_133" d="M136.222 200.507H125.902V192.932H135.855L136.222 200.507ZM126.636 199.773H135.444L135.143 193.666H126.629L126.636 199.773Z" fill="white"/>
<path id="Vector_134" d="M205.373 206.827H214.115L211.267 200.14H202.804L205.373 206.827Z" fill="#263238"/>
<path id="Vector_135" d="M214.672 207.194H205.13L202.282 199.773H211.523L214.672 207.194ZM205.622 206.46H213.556L211.024 200.507H203.339L205.622 206.46Z" fill="white"/>
<path id="Vector_136" d="M200.455 221.624H211.054L208.11 213.968H197.886L200.455 221.624Z" fill="#263238"/>
<path id="Vector_137" d="M211.604 221.991H200.191L197.372 213.594H208.382L211.604 221.991ZM200.734 221.257H210.533L207.861 214.328H198.392L200.734 221.257Z" fill="white"/>
<path id="Vector_138" d="M68.8707 200.14L70.8305 193.299H61.5894L59.3066 200.14H68.8707Z" fill="#263238"/>
<path id="Vector_139" d="M69.1497 200.507H58.793L61.3253 192.932H71.315L69.1497 200.507ZM59.8132 199.773H68.6212L70.3755 193.666H61.8684L59.8132 199.773Z" fill="white"/>
<path id="Vector_140" d="M193.239 200.14L195.485 206.827H205.372L202.803 200.14H193.239Z" fill="#263238"/>
<path id="Vector_141" d="M205.901 207.194H195.221L192.726 199.773H203.053L205.901 207.194ZM195.75 206.46H204.837L202.554 200.507H193.746L195.75 206.46Z" fill="white"/>
<path id="Vector_142" d="M211.267 200.14L208.353 193.299H200.176L202.804 200.14H211.267Z" fill="#263238"/>
<path id="Vector_143" d="M211.825 200.507H202.554L199.618 192.932H208.595L211.825 200.507ZM203.053 199.773H210.709L208.111 193.666H200.712L203.053 199.773Z" fill="white"/>
<path id="Vector_144" d="M202.804 200.14L200.176 193.299H190.942L193.24 200.14H202.804Z" fill="#263238"/>
<path id="Vector_145" d="M203.34 200.507H192.976L190.429 192.932H200.433L203.34 200.507ZM193.504 199.773H202.268L199.927 193.666H191.449L193.504 199.773Z" fill="white"/>
<path id="Vector_146" d="M168.673 221.624L170.258 229.852H181.246L179.264 221.624H168.673Z" fill="#263238"/>
<path id="Vector_147" d="M181.708 230.219H169.964L168.239 221.257H179.572L181.708 230.219ZM170.559 229.485H180.776L178.978 221.991H169.113L170.559 229.485Z" fill="white"/>
<path id="Vector_148" d="M203.222 229.852H214.21L211.054 221.624H200.455L203.222 229.852Z" fill="#263238"/>
<path id="Vector_149" d="M214.746 230.219H202.958L199.948 221.257H211.303L214.746 230.219ZM203.486 229.485H213.674L210.797 221.991H200.969L203.486 229.485Z" fill="white"/>
<path id="Vector_150" d="M193.24 200.14L190.942 193.299H181.701L183.668 200.14H193.24Z" fill="#263238"/>
<path id="Vector_151" d="M193.746 200.507H183.396L181.194 192.932H191.191L193.746 200.507ZM183.947 199.773H192.755L190.707 193.666H182.185L183.947 199.773Z" fill="white"/>
<path id="Vector_152" d="M189.863 221.624L192.234 229.852H203.222L200.455 221.624H189.863Z" fill="#263238"/>
<path id="Vector_153" d="M203.728 230.219H191.984L189.4 221.257H200.748L203.728 230.219ZM192.505 229.485H202.708L200.19 221.991H190.318L192.505 229.485Z" fill="white"/>
<path id="Vector_154" d="M179.265 221.624L181.246 229.852H192.234L189.864 221.624H179.265Z" fill="#263238"/>
<path id="Vector_155" d="M192.719 230.219H180.975L178.824 221.257H190.157L192.719 230.219ZM181.533 229.485H191.743L189.585 221.991H179.734L181.533 229.485Z" fill="white"/>
<path id="Vector_156" d="M197.886 213.968H208.11L205.372 206.827H195.485L197.886 213.968Z" fill="#263238"/>
<path id="Vector_157" d="M208.669 214.328H197.659L195.009 206.452H205.659L208.669 214.328ZM198.172 213.594H207.604L205.138 207.186H195.992L198.172 213.594Z" fill="white"/>
<path id="Vector_158" d="M107.142 200.14L107.788 193.299H98.5465L97.5703 200.14H107.142Z" fill="#263238"/>
<path id="Vector_159" d="M107.472 200.507H97.1445L98.2308 192.932H108.191L107.472 200.507ZM97.996 199.773H106.804L107.384 193.666H98.8694L97.996 199.773Z" fill="white"/>
<path id="Vector_160" d="M183.668 200.14L181.701 193.299H172.46L174.104 200.14H183.668Z" fill="#263238"/>
<path id="Vector_161" d="M184.16 200.507H173.818L171.969 192.932H181.944L184.16 200.507ZM174.391 199.773H183.199L181.437 193.666H172.93L174.391 199.773Z" fill="white"/>
<path id="Vector_162" d="M97.5699 200.14L98.5461 193.299H89.305L88.0059 200.14H97.5699Z" fill="#263238"/>
<path id="Vector_163" d="M97.8933 200.507H87.5586L89.0266 192.932H98.9943L97.8933 200.507ZM88.4467 199.773H97.2547L98.1282 193.666H89.6138L88.4467 199.773Z" fill="white"/>
<path id="Vector_164" d="M126.269 200.14L126.262 193.299H117.028L116.705 200.14H126.269Z" fill="#263238"/>
<path id="Vector_165" d="M126.637 200.507H116.324L116.677 192.932H126.63L126.637 200.507ZM117.095 199.773H125.903V193.666H117.374L117.095 199.773Z" fill="white"/>
<path id="Vector_166" d="M88.0059 200.14L89.3051 193.299H80.0714L78.4346 200.14H88.0059Z" fill="#263238"/>
<path id="Vector_167" d="M88.2927 200.507H77.9727L79.7783 192.932H89.7607L88.2927 200.507ZM78.8902 199.773H87.6982L88.8652 193.666H80.3582L78.8902 199.773Z" fill="white"/>
<path id="Vector_168" d="M78.4351 200.14L80.0719 193.299H70.8309L68.8711 200.14H78.4351Z" fill="#263238"/>
<path id="Vector_169" d="M78.7508 200.507H68.3867L70.5887 192.932H80.5711L78.7508 200.507ZM69.3776 199.773H78.1856L79.6536 193.666H71.1099L69.3776 199.773Z" fill="white"/>
<path id="Vector_170" d="M116.706 200.14L117.029 193.299H107.788L107.142 200.14H116.706Z" fill="#263238"/>
<path id="Vector_171" d="M117.058 200.507H106.738L107.472 192.932H117.433L117.058 200.507ZM107.516 199.773H116.324L116.611 193.666H108.111L107.516 199.773Z" fill="white"/>
<path id="Vector_172" d="M174.104 200.14L172.46 193.299H163.219L164.54 200.14H174.104Z" fill="#263238"/>
<path id="Vector_173" d="M174.566 200.507H164.232L162.764 192.932H172.739L174.566 200.507ZM164.841 199.773H173.649L172.181 193.666H163.666L164.841 199.773Z" fill="white"/>
<path id="Vector_174" d="M164.54 200.14L163.219 193.299H153.985L154.969 200.14H164.54Z" fill="#263238"/>
<path id="Vector_175" d="M164.981 200.507H154.653L153.56 192.932H163.527L164.981 200.507ZM155.292 199.773H164.1L162.925 193.666H154.411L155.292 199.773Z" fill="white"/>
<path id="Vector_176" d="M145.405 200.14L144.744 193.299H135.503L135.841 200.14H145.405Z" fill="#263238"/>
<path id="Vector_177" d="M145.808 200.507H135.488L135.121 192.932H145.074L145.808 200.507ZM136.185 199.773H144.993L144.399 193.666H135.884L136.185 199.773Z" fill="white"/>
<path id="Vector_178" d="M168.672 221.624H158.073H147.482H136.883H126.291H115.7H105.101H94.509H83.91H73.311H62.7194L60.3633 229.852H71.3513H82.3392H93.3346H104.323H115.311H126.299H137.286H148.274H159.262H170.258L168.672 221.624Z" fill="#263238"/>
<path id="Vector_179" d="M170.698 230.219H59.8643L62.4259 221.257H168.973L170.698 230.219ZM60.8478 229.485H169.81L168.342 221.991H62.9984L60.8478 229.485Z" fill="white"/>
<path id="Vector_180" d="M154.969 200.14L153.985 193.299H144.744L145.405 200.14H154.969Z" fill="#263238"/>
<path id="Vector_181" d="M155.395 200.507H145.075L144.341 192.932H154.301L155.395 200.507ZM145.735 199.773H154.543L153.655 193.666H145.141L145.735 199.773Z" fill="white"/>
</g>
<g id="freepik--Character--inject-26">
<g id="Clip path group">
<mask id="mask0_470_3960" style="mask-type:luminance" maskUnits="userSpaceOnUse" x="60" y="45" width="131" height="135">
<g id="freepik--clip-path-6--inject-26">
<path id="Vector_182" d="M190.267 45.5742H60.8926V179.265H190.267V45.5742Z" fill="white"/>
</g>
</mask>
<g mask="url(#mask0_470_3960)">
<g id="Group">
<path id="Vector_183" d="M138.294 135.188C149.105 135.188 157.869 124.031 157.869 110.269C157.869 96.5064 149.105 85.3496 138.294 85.3496C127.482 85.3496 118.718 96.5064 118.718 110.269C118.718 124.031 127.482 135.188 138.294 135.188Z" fill="#263238"/>
<path id="Vector_184" d="M138.293 135.548C127.283 135.548 118.343 124.208 118.343 110.269C118.343 96.3303 127.29 84.9826 138.293 84.9826C149.296 84.9826 158.236 96.3229 158.236 110.269C158.236 124.215 149.288 135.548 138.293 135.548ZM138.293 85.7166C127.694 85.7166 119.077 96.7266 119.077 110.269C119.077 123.811 127.694 134.814 138.293 134.814C148.892 134.814 157.502 123.804 157.502 110.269C157.502 96.734 148.885 85.7166 138.293 85.7166Z" fill="#263238"/>
<path id="Vector_185" d="M94.1647 173.731C92.3664 173.731 90.3259 172.138 89.2396 171.154C87.7129 169.767 86.1348 167.822 86.1348 166.956C86.1348 165.715 100.815 121.448 102.51 116.42C102.529 116.361 102.563 116.308 102.608 116.266C102.653 116.223 102.707 116.193 102.767 116.178C102.826 116.163 102.887 116.162 102.946 116.176C103.005 116.191 103.059 116.219 103.105 116.258L108.661 121.33C108.705 121.37 108.738 121.419 108.758 121.474C108.779 121.529 108.786 121.588 108.779 121.646L103.303 169.738C103.296 169.793 103.277 169.847 103.247 169.894C103.216 169.941 103.175 169.98 103.127 170.009C102.899 170.149 97.5411 173.408 94.451 173.716L94.1647 173.731ZM103.031 117.213C98.4072 131.159 86.9935 165.657 86.8834 167C86.8834 167.418 87.9991 169.055 89.746 170.633C91.493 172.211 93.2325 173.121 94.3923 173.011C97.042 172.747 101.732 170.039 102.606 169.503L108.045 121.793L103.031 117.213Z" fill="#263238"/>
<path id="Vector_186" d="M135.306 110.034L102.834 116.53L108.031 180.505H171.36L179.801 113.932L141.149 109.711L135.306 110.034Z" fill="#92E3A9"/>
<path id="Vector_187" d="M171.36 180.872H108.031C107.939 180.873 107.851 180.838 107.784 180.775C107.717 180.712 107.677 180.626 107.671 180.535L102.467 116.559C102.46 116.47 102.486 116.381 102.54 116.309C102.594 116.237 102.673 116.188 102.761 116.17L135.269 109.674L141.141 109.344L179.845 113.572C179.942 113.582 180.032 113.63 180.095 113.704C180.125 113.743 180.147 113.788 180.159 113.836C180.172 113.884 180.175 113.934 180.168 113.983L171.727 180.564C171.713 180.651 171.668 180.73 171.601 180.786C171.534 180.843 171.448 180.874 171.36 180.872ZM108.376 180.138H171.037L179.39 114.262L141.141 110.1L135.38 110.423L103.252 116.853L108.376 180.138Z" fill="#263238"/>
<g id="Clip path group_2">
<mask id="mask1_470_3960" style="mask-type:luminance" maskUnits="userSpaceOnUse" x="102" y="109" width="78" height="72">
<g id="freepik--clip-path-7--inject-26">
<g id="Clip path group_3">
<mask id="mask2_470_3960" style="mask-type:luminance" maskUnits="userSpaceOnUse" x="102" y="109" width="78" height="72">
<g id="freepik--clip-path-2--inject-26">
<path id="Vector_188" d="M135.306 110.034L102.834 116.53L108.031 180.505H171.36L179.801 113.932L141.149 109.711L135.306 110.034Z" fill="white"/>
</g>
</mask>
<g mask="url(#mask2_470_3960)">
<path id="Vector_189" d="M171.36 180.872H108.031C107.939 180.873 107.851 180.838 107.784 180.775C107.717 180.712 107.677 180.626 107.671 180.535L102.467 116.559C102.46 116.47 102.486 116.381 102.54 116.309C102.594 116.237 102.673 116.188 102.761 116.17L135.269 109.674L141.141 109.344L179.845 113.572C179.942 113.582 180.032 113.63 180.095 113.704C180.125 113.743 180.147 113.788 180.159 113.836C180.172 113.884 180.175 113.934 180.168 113.983L171.727 180.564C171.713 180.651 171.668 180.73 171.601 180.786C171.534 180.843 171.448 180.874 171.36 180.872ZM108.376 180.138H171.037L179.39 114.262L141.141 110.1L135.38 110.423L103.252 116.853L108.376 180.138Z" fill="white"/>
</g>
</g>
</g>
</mask>
<g mask="url(#mask1_470_3960)">
<g id="Group_2">
<path id="Vector_190" opacity="0.3" d="M108.031 180.505H171.361L172.953 167.976L172.836 167.367L157.554 170.699L164.219 142.646L127.548 158.757L118.659 167.646H124.216L107.862 178.406L108.031 180.505Z" fill="black"/>
</g>
</g>
</g>
<path id="Vector_191" d="M131.856 106.43C131.856 106.43 126.586 109.315 125.25 111.906C123.914 114.497 118.387 133.742 118.387 133.742L127.481 135.695L118.717 139.915L131.98 177.907L153.09 176.608L166.831 136.664L158.382 133.096L165.855 129.845C165.855 129.845 158.713 116.207 154.845 110.364C150.976 104.522 131.856 106.43 131.856 106.43Z" fill="#92E3A9"/>
<path id="Vector_192" d="M132.01 178.274C131.935 178.274 131.861 178.251 131.799 178.207C131.738 178.164 131.691 178.103 131.665 178.032L118.387 140.033C118.359 139.948 118.362 139.855 118.398 139.773C118.433 139.69 118.497 139.623 118.578 139.585L126.38 135.827L118.306 134.102C118.257 134.091 118.21 134.071 118.168 134.042C118.127 134.013 118.091 133.976 118.064 133.933C118.038 133.889 118.022 133.841 118.016 133.79C118.009 133.74 118.013 133.688 118.027 133.639C118.255 132.854 123.621 114.343 124.92 111.744C126.219 109.146 131.423 106.232 131.643 106.107C131.686 106.084 131.734 106.071 131.783 106.07C132.568 105.99 151.087 104.199 155.058 110.159C158.926 115.95 166.068 129.544 166.119 129.676C166.141 129.722 166.152 129.772 166.152 129.823C166.152 129.873 166.141 129.924 166.119 129.969C166.104 130.017 166.078 130.062 166.044 130.098C166.01 130.135 165.968 130.164 165.921 130.182L159.234 133.118L166.89 136.355C166.976 136.393 167.045 136.461 167.083 136.547C167.121 136.632 167.125 136.729 167.095 136.818L153.406 176.762C153.382 176.83 153.338 176.888 153.281 176.931C153.224 176.975 153.155 177 153.083 177.004L131.973 178.303L132.01 178.274ZM119.195 140.106L132.267 177.54L152.819 176.278L166.317 136.884L158.192 133.449C158.125 133.421 158.068 133.374 158.027 133.314C157.987 133.254 157.965 133.183 157.964 133.111C157.965 133.04 157.986 132.97 158.025 132.91C158.064 132.85 158.12 132.803 158.185 132.773L165.297 129.683C164.152 127.481 157.957 115.825 154.456 110.599C150.845 105.182 133.236 106.709 131.937 106.826C131.335 107.164 126.74 109.762 125.58 112.111C124.421 114.46 119.642 130.799 118.85 133.507L127.562 135.372C127.637 135.388 127.704 135.427 127.756 135.484C127.807 135.54 127.839 135.611 127.848 135.687C127.855 135.763 127.84 135.839 127.803 135.906C127.766 135.973 127.711 136.027 127.643 136.062L119.195 140.106Z" fill="#263238"/>
<path id="Vector_193" d="M131.034 181.159L130.763 114.262L148.298 112.632L153.443 180.505L131.034 181.159Z" fill="white"/>
<path id="Vector_194" d="M131.034 181.526C130.939 181.525 130.847 181.488 130.777 181.423C130.708 181.352 130.669 181.258 130.667 181.159L130.396 114.262C130.393 114.17 130.426 114.081 130.488 114.013C130.549 113.945 130.634 113.902 130.726 113.895L148.261 112.302C148.31 112.295 148.359 112.299 148.406 112.313C148.453 112.327 148.496 112.351 148.533 112.383C148.609 112.448 148.656 112.54 148.665 112.64L153.803 180.513C153.806 180.562 153.799 180.611 153.782 180.658C153.766 180.705 153.74 180.748 153.707 180.784C153.674 180.821 153.634 180.851 153.588 180.871C153.542 180.892 153.493 180.902 153.443 180.902L131.042 181.555L131.034 181.526ZM131.13 114.592L131.401 180.777L153.047 180.153L147.96 113.036L131.13 114.592Z" fill="#263238"/>
<path id="Vector_195" d="M128.164 96.7193C128.164 96.7193 130.432 109.388 130.762 112.632C131.093 115.877 139.475 138.946 141.985 135.181C144.723 131.078 147.975 118.159 148.591 115.231C149.208 112.302 149.245 99.6479 149.245 99.6479C149.245 99.6479 140.826 105.491 128.164 96.7193Z" fill="white"/>
<path id="Vector_196" d="M141.325 135.966C141.231 135.964 141.137 135.952 141.046 135.93C137.596 135.071 130.711 115.803 130.396 112.669C130.08 109.535 127.827 96.9175 127.797 96.7853C127.784 96.7136 127.792 96.6394 127.821 96.5724C127.85 96.5054 127.898 96.4485 127.96 96.4091C128.021 96.3697 128.093 96.3496 128.166 96.3512C128.239 96.3528 128.31 96.3762 128.37 96.4183C140.686 104.947 148.98 99.3984 149.061 99.3543C149.119 99.3201 149.185 99.302 149.252 99.302C149.319 99.302 149.385 99.3201 149.443 99.3543C149.502 99.3869 149.552 99.4346 149.587 99.4927C149.622 99.5507 149.64 99.617 149.641 99.6846C149.641 100.198 149.641 112.42 148.98 115.348C148.246 118.534 145.068 131.261 142.294 135.423C142.191 135.588 142.048 135.724 141.879 135.819C141.71 135.914 141.519 135.965 141.325 135.966ZM128.663 97.512C129.177 100.448 130.865 109.829 131.108 112.596C131.423 115.759 138.382 134.513 141.207 135.218C141.34 135.218 141.494 135.218 141.67 134.983C144.349 130.953 147.593 118.101 148.276 115.165C148.826 112.691 148.907 102.892 148.914 100.294C146.8 101.373 139.167 104.404 128.663 97.512Z" fill="#263238"/>
<g id="Clip path group_4">
<mask id="mask3_470_3960" style="mask-type:luminance" maskUnits="userSpaceOnUse" x="128" y="96" width="22" height="40">
<g id="freepik--clip-path-8--inject-26">
<g id="Clip path group_5">
<mask id="mask4_470_3960" style="mask-type:luminance" maskUnits="userSpaceOnUse" x="128" y="96" width="22" height="40">
<g id="freepik--clip-path-3--inject-26">
<path id="Vector_197" d="M128.164 96.7193C128.164 96.7193 130.432 109.388 130.762 112.632C131.093 115.877 139.475 138.946 141.985 135.181C144.723 131.078 147.975 118.159 148.591 115.231C149.208 112.302 149.245 99.6479 149.245 99.6479C149.245 99.6479 140.826 105.491 128.164 96.7193Z" fill="white"/>
</g>
</mask>
<g mask="url(#mask4_470_3960)">
<path id="Vector_198" d="M141.325 135.966C141.231 135.964 141.137 135.952 141.046 135.93C137.596 135.071 130.711 115.803 130.396 112.669C130.08 109.535 127.827 96.9175 127.797 96.7853C127.784 96.7136 127.792 96.6394 127.821 96.5724C127.85 96.5054 127.898 96.4485 127.96 96.4091C128.021 96.3697 128.093 96.3496 128.166 96.3512C128.239 96.3528 128.31 96.3762 128.37 96.4183C140.686 104.947 148.98 99.3984 149.061 99.3543C149.119 99.3201 149.185 99.302 149.252 99.302C149.319 99.302 149.385 99.3201 149.443 99.3543C149.502 99.3869 149.552 99.4346 149.587 99.4927C149.622 99.5507 149.64 99.617 149.641 99.6846C149.641 100.198 149.641 112.42 148.98 115.348C148.246 118.534 145.068 131.261 142.294 135.423C142.191 135.588 142.048 135.724 141.879 135.819C141.71 135.914 141.519 135.965 141.325 135.966ZM128.663 97.512C129.177 100.448 130.865 109.829 131.108 112.596C131.423 115.759 138.382 134.513 141.207 135.218C141.34 135.218 141.494 135.218 141.67 134.983C144.349 130.953 147.593 118.101 148.276 115.165C148.826 112.691 148.907 102.892 148.914 100.294C146.8 101.373 139.167 104.404 128.663 97.512Z" fill="white"/>
</g>
</g>
</g>
</mask>
<g mask="url(#mask3_470_3960)">
<g id="Group_3">
<path id="Vector_199" d="M149.142 108.067C149.274 103.912 149.274 99.6479 149.274 99.6479C149.274 99.6479 140.826 105.52 128.164 96.7119C128.164 96.7119 129.096 101.931 129.852 106.525C131.584 108.727 134.88 112.229 138.947 112.882C143.123 113.557 146.499 111.34 149.142 108.067Z" fill="#92E3A9"/>
<path id="Vector_200" opacity="0.5" d="M149.142 108.067C149.274 103.912 149.274 99.6479 149.274 99.6479C149.274 99.6479 140.826 105.52 128.164 96.7119C128.164 96.7119 129.096 101.931 129.852 106.525C131.584 108.727 134.88 112.229 138.947 112.882C143.123 113.557 146.499 111.34 149.142 108.067Z" fill="white"/>
</g>
</g>
</g>
<path id="Vector_201" d="M156.093 84.0578C156.093 84.0578 159.66 79.507 159.66 84.7037C159.66 89.9004 156.093 90.5757 156.093 90.5757V84.0578Z" fill="white"/>
<path id="Vector_202" d="M156.093 90.9207C156.006 90.9218 155.922 90.8904 155.858 90.8326C155.815 90.8 155.781 90.7576 155.758 90.7091C155.735 90.6606 155.724 90.6073 155.726 90.5537V84.0578C155.724 83.9759 155.75 83.8958 155.799 83.8303C156.115 83.4339 157.73 81.4814 158.963 81.9072C159.697 82.1567 160.027 83.0742 160.027 84.7037C160.027 90.1426 156.196 90.906 156.159 90.9133L156.093 90.9207ZM156.46 84.1826V90.0546C157.348 89.7022 159.293 88.4911 159.293 84.7037C159.293 82.9861 158.897 82.6632 158.728 82.6045C158.185 82.421 157.091 83.4119 156.46 84.1826Z" fill="#263238"/>
<path id="Vector_203" d="M120.691 73.3414C120.691 73.3414 124.912 92.4768 124.912 95.0971C124.912 100.609 135.305 106.79 139.849 108.089C144.392 109.388 155.439 99.3177 156.092 96.7193C156.745 94.1209 157.061 71.389 155.762 66.8455C154.463 62.302 147.013 59.3734 142.124 59.3734C137.236 59.3734 122.967 61.9717 120.691 73.3414Z" fill="white"/>
<path id="Vector_204" d="M140.745 108.573C140.41 108.577 140.077 108.532 139.754 108.441C135.35 107.179 124.546 100.94 124.546 95.0971C124.546 92.5502 120.377 73.613 120.333 73.4221C120.325 73.371 120.325 73.3191 120.333 73.268C122.659 61.6267 137.215 59.0064 142.125 59.0064C147.036 59.0064 154.75 61.9424 156.115 66.7427C157.48 71.5431 157.084 94.2604 156.445 96.8367C155.968 98.7525 150.617 104.045 145.802 106.826C143.762 107.979 142.066 108.573 140.745 108.573ZM121.067 73.3414C121.397 74.8461 125.28 92.5355 125.28 95.1045C125.28 100.36 135.475 106.459 139.96 107.744C141.171 108.089 143.065 107.546 145.443 106.173C150.214 103.421 155.344 98.2166 155.719 96.6312C156.328 94.187 156.695 71.4844 155.396 66.9482C154.141 62.5442 146.691 59.7404 142.11 59.7404C137.376 59.7404 123.349 62.2433 121.067 73.334V73.3414Z" fill="#263238"/>
<g id="Clip path group_6">
<mask id="mask5_470_3960" style="mask-type:luminance" maskUnits="userSpaceOnUse" x="120" y="59" width="37" height="50">
<g id="freepik--clip-path-9--inject-26">
<g id="Clip path group_7">
<mask id="mask6_470_3960" style="mask-type:luminance" maskUnits="userSpaceOnUse" x="120" y="59" width="37" height="50">
<g id="freepik--clip-path-4--inject-26">
<path id="Vector_205" d="M120.691 73.3414C120.691 73.3414 124.912 92.4768 124.912 95.0971C124.912 100.609 135.305 106.79 139.849 108.089C144.392 109.388 155.439 99.3177 156.092 96.7193C156.745 94.1209 157.061 71.389 155.762 66.8455C154.463 62.302 147.013 59.3734 142.124 59.3734C137.236 59.3734 122.967 61.9717 120.691 73.3414Z" fill="white"/>
</g>
</mask>
<g mask="url(#mask6_470_3960)">
<path id="Vector_206" d="M140.744 108.573C140.409 108.577 140.076 108.532 139.753 108.441C135.349 107.179 124.545 100.94 124.545 95.0971C124.545 92.5502 120.376 73.613 120.332 73.4221C120.324 73.371 120.324 73.3191 120.332 73.268C122.658 61.6267 137.214 59.0064 142.124 59.0064C147.035 59.0064 154.749 61.9424 156.114 66.7427C157.479 71.5431 157.083 94.2604 156.444 96.8367C155.967 98.7525 150.617 104.045 145.801 106.826C143.761 107.979 142.065 108.573 140.744 108.573ZM121.066 73.3414C121.396 74.8461 125.279 92.5355 125.279 95.1045C125.279 100.36 135.474 106.459 139.959 107.744C141.17 108.089 143.064 107.546 145.442 106.173C150.213 103.421 155.343 98.2166 155.718 96.6312C156.327 94.187 156.694 71.4844 155.395 66.9482C154.14 62.5442 146.69 59.7404 142.109 59.7404C137.375 59.7404 123.348 62.2433 121.066 73.334V73.3414Z" fill="white"/>
</g>
</g>
</g>
</mask>
<g mask="url(#mask5_470_3960)">
<g id="Group_4">
<path id="Vector_207" d="M142.124 59.3734C137.258 59.3734 122.967 61.9717 120.691 73.3194C120.691 73.3194 123.216 84.7698 124.361 91.1703C124.361 88.2343 124.875 82.6118 128.031 80.1603C132.391 76.7692 139.665 76.2774 143.783 74.3396C147.901 72.4019 148.87 67.3153 148.87 67.3153C148.87 67.3153 149.112 76.2774 151.072 78.4647C153.031 80.652 154.955 82.1347 155.197 85.9735C155.439 89.8124 156.166 93.7246 154.228 96.8808C152.29 100.037 144.29 106.085 140.656 107.296C140.098 107.487 139.555 107.649 139.041 107.803C139.328 107.905 139.607 108.001 139.863 108.074C144.414 109.373 155.454 99.303 156.107 96.7046C156.76 94.1063 157.076 71.3743 155.777 66.8308C154.477 62.2874 147.013 59.3734 142.124 59.3734Z" fill="#92E3A9"/>
<path id="Vector_208" d="M135.379 106.166C133.61 104.382 128.773 99.4424 126.571 96.8954C125.935 96.1698 125.365 95.3887 124.868 94.5613C124.868 94.7742 124.868 94.965 124.868 95.0971C124.912 99.1708 130.579 103.604 135.379 106.166Z" fill="#92E3A9"/>
<g id="Group_5" opacity="0.5">
<path id="Vector_209" d="M142.124 59.3734C137.258 59.3734 122.967 61.9717 120.691 73.3194C120.691 73.3194 123.216 84.7698 124.361 91.1703C124.361 88.2343 124.875 82.6118 128.031 80.1603C132.391 76.7692 139.665 76.2774 143.783 74.3396C147.901 72.4019 148.87 67.3153 148.87 67.3153C148.87 67.3153 149.112 76.2774 151.072 78.4647C153.031 80.652 154.955 82.1347 155.197 85.9735C155.439 89.8124 156.166 93.7246 154.228 96.8808C152.29 100.037 144.29 106.085 140.656 107.296C140.098 107.487 139.555 107.649 139.041 107.803C139.328 107.905 139.607 108.001 139.863 108.074C144.414 109.373 155.454 99.303 156.107 96.7046C156.76 94.1063 157.076 71.3743 155.777 66.8308C154.477 62.2874 147.013 59.3734 142.124 59.3734Z" fill="white"/>
<path id="Vector_210" d="M135.379 106.166C133.61 104.382 128.773 99.4424 126.571 96.8954C125.935 96.1698 125.365 95.3887 124.868 94.5613C124.868 94.7742 124.868 94.965 124.868 95.0971C124.912 99.1708 130.579 103.604 135.379 106.166Z" fill="white"/>
</g>
</g>
</g>
</g>
<path id="Vector_211" d="M137.507 85.0927C137.507 86.0029 137.104 86.7369 136.597 86.7369C136.091 86.7369 135.68 86.0029 135.68 85.0927C135.68 84.1826 136.091 83.4486 136.597 83.4486C137.104 83.4486 137.507 84.1826 137.507 85.0927Z" fill="#263238"/>
<path id="Vector_212" d="M148.202 85.0927C148.202 86.0029 147.791 86.7369 147.285 86.7369C146.778 86.7369 146.367 86.0029 146.367 85.0927C146.367 84.1826 146.778 83.4486 147.285 83.4486C147.791 83.4486 148.202 84.1826 148.202 85.0927Z" fill="#263238"/>
<path id="Vector_213" d="M143.233 92.0437C143.159 92.0448 143.087 92.0228 143.026 91.9806C142.966 91.9385 142.92 91.8784 142.895 91.8088C142.859 91.7192 142.859 91.6188 142.896 91.5295C142.933 91.4401 143.004 91.3691 143.093 91.3317C144.561 90.7592 146.631 89.6288 146.763 88.9242C146.822 88.6526 146.712 88.5572 145.78 88.3517C145.103 88.2594 144.465 87.9797 143.938 87.5443C142.844 86.4506 143.739 83.3825 143.85 83.0375C143.878 82.9402 143.943 82.858 144.032 82.8092C144.076 82.785 144.125 82.7697 144.174 82.7642C144.224 82.7586 144.275 82.763 144.323 82.7769C144.371 82.7909 144.416 82.8143 144.455 82.8456C144.494 82.877 144.527 82.9157 144.551 82.9597C144.575 83.0037 144.591 83.052 144.596 83.1018C144.602 83.1517 144.597 83.2022 144.584 83.2504C144.231 84.3954 143.894 86.4359 144.488 87.0305C144.918 87.354 145.423 87.5613 145.956 87.6324C146.69 87.8012 147.71 88.0287 147.497 89.1004C147.233 90.4509 144.018 91.7941 143.38 92.0364C143.332 92.0496 143.282 92.0521 143.233 92.0437Z" fill="#263238"/>
<path id="Vector_214" d="M139.982 96.9321C139.228 96.9762 138.476 96.8258 137.797 96.4955C137.119 96.1651 136.536 95.6659 136.106 95.0458C136.079 95.006 136.06 94.9612 136.05 94.9139C136.041 94.8667 136.041 94.818 136.05 94.7708C136.06 94.7235 136.079 94.6787 136.106 94.6389C136.133 94.5992 136.168 94.5653 136.209 94.5393C136.29 94.4862 136.388 94.4672 136.483 94.4864C136.578 94.5057 136.661 94.5616 136.715 94.6421C138.477 97.2918 142.587 95.7357 142.587 95.721C142.678 95.685 142.779 95.6864 142.868 95.725C142.958 95.7635 143.028 95.836 143.064 95.9266C143.1 96.0171 143.099 96.1182 143.06 96.2077C143.022 96.2971 142.949 96.3676 142.859 96.4037C141.935 96.7371 140.963 96.9157 139.982 96.9321Z" fill="#263238"/>
<path id="Vector_215" d="M133.243 82.5384C133.199 82.5454 133.155 82.5454 133.111 82.5384C133.066 82.5213 133.024 82.4954 132.989 82.4621C132.953 82.4288 132.925 82.3887 132.905 82.3444C132.885 82.3 132.874 82.2521 132.873 82.2035C132.872 82.1549 132.881 82.1066 132.898 82.0613C133.279 81.1627 133.98 80.4379 134.865 80.0281C135.408 79.8178 135.988 79.7197 136.569 79.7399C137.151 79.7601 137.722 79.8981 138.249 80.1456C138.34 80.1816 138.412 80.2521 138.451 80.3416C138.489 80.431 138.491 80.5321 138.455 80.6227C138.419 80.7132 138.348 80.7857 138.259 80.8242C138.169 80.8628 138.068 80.8642 137.977 80.8282C137.541 80.6173 137.066 80.4969 136.582 80.4742C136.097 80.4515 135.613 80.527 135.159 80.6961C134.455 81.0327 133.895 81.6109 133.581 82.3256C133.553 82.391 133.505 82.4464 133.445 82.4844C133.385 82.5224 133.314 82.5412 133.243 82.5384Z" fill="#263238"/>
<path id="Vector_216" d="M148.928 81.3346C148.872 81.3339 148.817 81.3211 148.766 81.297C148.716 81.273 148.671 81.2382 148.635 81.1952C147.901 80.2777 147.233 79.8299 146.572 79.8593C146.253 79.9135 145.949 80.0343 145.68 80.2139C145.41 80.3935 145.182 80.6278 145.009 80.9016C144.956 80.9829 144.874 81.0407 144.779 81.0626C144.685 81.0845 144.586 81.0689 144.502 81.019C144.461 80.9942 144.424 80.9613 144.396 80.922C144.367 80.8828 144.346 80.8382 144.335 80.7909C144.324 80.7436 144.323 80.6945 144.332 80.6467C144.34 80.5988 144.358 80.5532 144.385 80.5126C144.618 80.138 144.931 79.8195 145.302 79.5797C145.672 79.34 146.091 79.1848 146.528 79.1253C147.468 79.0739 148.356 79.6244 149.215 80.7474C149.274 80.8244 149.3 80.9217 149.288 81.018C149.275 81.1143 149.225 81.2018 149.149 81.2612C149.085 81.3094 149.008 81.3352 148.928 81.3346Z" fill="#263238"/>
<path id="Vector_217" d="M157.392 61.9717C154.177 58.3017 150.786 58.5219 148.76 59.3146C146.015 54.6904 136.943 51.0204 125.272 55.4758C111.635 60.6725 113.257 74.6406 113.91 77.2389C114.563 79.8373 119.107 86.6561 122.028 86.9791C122.028 86.9791 124.626 84.7037 124.626 82.4356C124.626 80.1676 130.799 75.6168 136.965 73.6643C140.848 72.4386 145.112 70.1852 147.578 67.3079C147.533 69.1972 148.019 71.0613 148.98 72.6881C150.933 75.6241 153.854 77.2389 153.854 78.2151C153.854 79.1914 155.476 82.7586 156.79 82.7586C158.104 82.7586 158.089 77.5619 158.412 75.2865C158.735 73.0111 161.936 67.1684 157.392 61.9717Z" fill="#263238"/>
<path id="Vector_218" d="M121.991 87.3461H121.947C118.754 86.9864 114.174 79.94 113.513 77.327C113.476 77.1655 109.887 60.9368 125.11 55.1382C136.348 50.8516 145.662 53.839 148.914 58.8669C150.573 58.3091 154.199 57.7659 157.663 61.7295C161.458 66.0674 160.019 70.8311 159.131 73.6864C158.952 74.2271 158.807 74.7787 158.698 75.3379C158.617 75.8884 158.559 76.6297 158.492 77.4077C158.214 80.8649 157.935 83.1256 156.709 83.1256C155.094 83.1256 153.421 79.2501 153.421 78.2151C153.421 77.9069 152.687 77.2169 151.953 76.5563C150.695 75.4744 149.576 74.2418 148.62 72.8863C147.738 71.4769 147.232 69.8643 147.152 68.2034C144.818 70.5742 141.097 72.7101 136.979 74.0093C130.755 75.9764 124.897 80.4171 124.897 82.4283C124.897 84.8358 122.284 87.1479 122.174 87.2507C122.123 87.2994 122.06 87.3325 121.991 87.3461ZM135.452 53.839C131.998 53.8809 128.58 54.5525 125.367 55.8208C110.738 61.3992 114.188 76.9894 114.225 77.1508C114.871 79.7345 119.187 86.0616 121.873 86.5901C122.372 86.1203 124.222 84.2413 124.222 82.4356C124.222 79.8887 130.578 75.2865 136.817 73.312C141.185 71.9394 145.09 69.598 147.262 67.0657C147.312 67.009 147.378 66.9689 147.452 66.9506C147.525 66.9322 147.602 66.9365 147.673 66.9629C147.743 66.9898 147.803 67.0371 147.845 67.0988C147.887 67.1604 147.909 67.2333 147.908 67.3079C147.862 69.1269 148.327 70.9224 149.251 72.4899C150.176 73.7928 151.258 74.9762 152.474 76.0131C153.501 76.96 154.184 77.5839 154.184 78.2151C154.184 79.162 155.769 82.3916 156.738 82.3916C157.384 82.3916 157.67 78.8611 157.795 77.349C157.854 76.5563 157.92 75.8076 158.001 75.2351C158.113 74.6384 158.265 74.0499 158.456 73.4735C159.322 70.5962 160.658 66.2436 157.113 62.2139C153.854 58.4926 150.565 59.0137 148.892 59.6596C148.81 59.6903 148.72 59.6909 148.638 59.6613C148.556 59.6317 148.487 59.5739 148.444 59.4981C146.719 56.6062 142.029 53.839 135.452 53.839Z" fill="#263238"/>
<path id="Vector_219" d="M119.261 78.8684H119.195C119.1 78.8506 119.015 78.7958 118.96 78.716C118.905 78.6363 118.884 78.538 118.901 78.4427C119.114 77.305 119.914 76.3361 121.353 75.4626C121.436 75.415 121.535 75.4021 121.628 75.4267C121.722 75.4514 121.801 75.5115 121.85 75.5943C121.899 75.6771 121.914 75.7758 121.891 75.8693C121.868 75.9627 121.809 76.0434 121.727 76.0939C120.487 76.8279 119.797 77.6573 119.621 78.5821C119.604 78.6643 119.558 78.7379 119.493 78.7902C119.427 78.8425 119.345 78.8702 119.261 78.8684Z" fill="white"/>
<path id="Vector_220" d="M123.907 75.0149C123.832 75.0144 123.76 74.9918 123.698 74.95C123.637 74.9082 123.589 74.849 123.562 74.78C123.528 74.6895 123.532 74.5894 123.572 74.5015C123.612 74.4135 123.684 74.3448 123.775 74.3103C126.322 73.4069 128.926 72.6713 131.57 72.1083C133.537 71.6532 135.401 71.2128 136.95 70.721C142.763 68.8713 146.022 63.8067 146.059 63.7627C146.084 63.7209 146.117 63.6846 146.156 63.6559C146.195 63.6272 146.24 63.6067 146.287 63.5957C146.334 63.5848 146.383 63.5835 146.431 63.592C146.479 63.6005 146.525 63.6186 146.565 63.6453C146.647 63.6979 146.704 63.7808 146.725 63.8757C146.746 63.9707 146.728 64.0699 146.675 64.1517C144.36 67.5392 141.013 70.0899 137.133 71.4256C135.563 71.9248 133.684 72.3652 131.702 72.8276C129.092 73.3705 126.52 74.0815 124.002 74.9562C123.973 74.9799 123.941 74.9997 123.907 75.0149Z" fill="white"/>
<path id="Vector_221" d="M118.167 68.4676C118.094 68.4682 118.021 68.445 117.962 68.4016C117.881 68.3478 117.825 68.2644 117.806 68.1695C117.787 68.0746 117.806 67.976 117.859 67.8951C118.593 66.7574 120.575 66.8382 123.533 66.9556C125.932 67.09 128.336 67.0753 130.733 66.9116C137.405 66.3757 143.366 62.3607 143.424 62.3167C143.505 62.2636 143.604 62.2446 143.699 62.2638C143.793 62.2831 143.877 62.339 143.931 62.4195C143.958 62.4588 143.978 62.5032 143.988 62.5502C143.998 62.5971 143.999 62.6456 143.99 62.6928C143.981 62.74 143.963 62.785 143.936 62.825C143.91 62.8651 143.875 62.8994 143.835 62.9259C143.586 63.0947 137.655 67.0951 130.792 67.6456C128.366 67.8129 125.932 67.8277 123.503 67.6896C120.89 67.5868 119.004 67.5061 118.468 68.3061C118.435 68.3559 118.391 68.3967 118.338 68.4249C118.286 68.4531 118.227 68.4678 118.167 68.4676Z" fill="white"/>
<path id="Vector_222" d="M157.597 72.2991C157.549 72.2972 157.502 72.2858 157.458 72.2656C157.414 72.2454 157.375 72.2168 157.342 72.1813C157.309 72.1459 157.284 72.1043 157.267 72.059C157.251 72.0138 157.243 71.9656 157.245 71.9174C157.278 71.0101 157.212 70.1018 157.047 69.209C157.036 69.1617 157.035 69.1127 157.044 69.065C157.053 69.0173 157.071 68.9718 157.098 68.9314C157.124 68.8909 157.159 68.8563 157.2 68.8296C157.24 68.8029 157.285 68.7846 157.333 68.7759C157.381 68.7663 157.43 68.7664 157.478 68.776C157.526 68.7856 157.571 68.8047 157.611 68.832C157.652 68.8593 157.686 68.8944 157.713 68.9352C157.739 68.9759 157.757 69.0216 157.766 69.0695C157.94 70.0183 158.011 70.9828 157.979 71.9468C157.977 71.995 157.966 72.0424 157.946 72.0862C157.925 72.13 157.897 72.1694 157.861 72.2021C157.826 72.2348 157.784 72.2602 157.739 72.2769C157.694 72.2935 157.646 72.3011 157.597 72.2991Z" fill="white"/>
<path id="Vector_223" d="M156.996 68.0346C156.919 68.0351 156.844 68.0112 156.782 67.9663C156.72 67.9214 156.674 67.8579 156.651 67.785C156.177 66.479 155.417 65.2956 154.426 64.3215C153.435 63.3474 152.239 62.6072 150.926 62.1552C150.832 62.1278 150.753 62.0649 150.705 61.9799C150.657 61.8949 150.644 61.7945 150.669 61.7001C150.682 61.6539 150.705 61.6107 150.735 61.5731C150.765 61.5356 150.802 61.5043 150.845 61.4811C150.887 61.4579 150.933 61.4433 150.981 61.4381C151.029 61.4328 151.078 61.4371 151.124 61.4506C152.556 61.9244 153.861 62.7197 154.939 63.7757C156.016 64.8317 156.838 66.1203 157.341 67.5428C157.357 67.5886 157.364 67.6371 157.361 67.6855C157.359 67.734 157.346 67.7815 157.325 67.8252C157.304 67.8689 157.274 67.9079 157.238 67.9401C157.202 67.9722 157.159 67.9969 157.113 68.0125C157.076 68.027 157.036 68.0344 156.996 68.0346Z" fill="white"/>
<path id="Vector_224" d="M133.39 101.351C132.435 101.388 131.485 101.192 130.623 100.778C127.826 99.3103 122.857 92.7043 122.652 92.396C122.593 92.3182 122.568 92.2203 122.582 92.1239C122.596 92.0276 122.647 91.9406 122.725 91.8822C122.803 91.8238 122.901 91.7987 122.997 91.8125C123.093 91.8263 123.18 91.8778 123.239 91.9556C123.29 92.0217 128.311 98.7304 130.968 100.132C133.625 101.534 138.609 99.5819 138.66 99.5599C138.705 99.5425 138.754 99.5343 138.802 99.5356C138.851 99.5369 138.898 99.5477 138.943 99.5675C138.987 99.5872 139.027 99.6156 139.06 99.6508C139.094 99.686 139.12 99.7274 139.137 99.7727C139.155 99.818 139.163 99.8663 139.161 99.9148C139.16 99.9633 139.149 100.011 139.13 100.055C139.11 100.1 139.081 100.14 139.046 100.173C139.011 100.206 138.97 100.232 138.924 100.25C137.149 100.906 135.281 101.277 133.39 101.351Z" fill="#263238"/>
<path id="Vector_225" d="M140.612 99.9636C140.612 100.631 139.79 101.182 138.785 101.182C137.779 101.182 136.957 100.631 136.957 99.9636C136.957 99.2956 137.772 98.7451 138.785 98.7451C139.798 98.7451 140.612 99.2883 140.612 99.9636Z" fill="#263238"/>
<path id="Vector_226" d="M120.083 82.8834C120.083 82.8834 114.056 67.2785 120.083 57.9714C120.083 57.9714 110.768 67.5501 118.989 85.078L120.083 82.8834Z" fill="white"/>
<path id="Vector_227" d="M124.26 87.9406C124.81 91.6106 123.812 94.7815 122.021 95.0531C120.23 95.3247 118.351 92.5722 117.793 88.9095C117.235 85.2469 118.248 82.0686 120.032 81.7971C121.815 81.5255 123.738 84.278 124.26 87.9406Z" fill="white"/>
<path id="Vector_228" d="M121.8 95.4201C119.884 95.4201 118.013 92.6823 117.455 88.9536C117.168 87.289 117.256 85.5815 117.712 83.955C118.174 82.487 118.989 81.5695 120.002 81.4227C122.013 81.1218 124.061 83.9477 124.648 87.8672C124.93 89.5321 124.843 91.2387 124.391 92.8658C123.921 94.3338 123.114 95.2513 122.101 95.3981C122.001 95.4127 121.901 95.4201 121.8 95.4201ZM120.332 82.1347C120.266 82.1274 120.2 82.1274 120.134 82.1347C119.4 82.2375 118.813 82.9788 118.438 84.1605C118.018 85.6807 117.941 87.275 118.211 88.8288C118.717 92.2199 120.457 94.899 122.02 94.6567C122.754 94.554 123.349 93.8126 123.723 92.6309C124.139 91.1102 124.217 89.5167 123.951 87.9627C123.429 84.7331 121.807 82.1494 120.303 82.1494L120.332 82.1347Z" fill="#263238"/>
<path id="Vector_229" d="M121.021 94.9435C122.609 94.7049 123.45 91.5444 122.899 87.8845C122.349 84.2245 120.616 81.451 119.029 81.6896C117.441 81.9283 116.6 85.0888 117.151 88.7487C117.701 92.4087 119.434 95.1822 121.021 94.9435Z" fill="white"/>
<path id="Vector_230" d="M120.816 95.332C119.979 95.332 119.121 94.6934 118.379 93.5117C117.538 92.0683 116.994 90.471 116.779 88.8141C116.185 84.8872 117.154 81.6062 118.981 81.3346C120.809 81.0631 122.651 83.9183 123.275 87.8379C123.554 89.4853 123.504 91.1716 123.128 92.7997C122.732 94.2677 122.005 95.1779 121.08 95.3173L120.816 95.332ZM119.201 82.0466H119.077C117.888 82.2228 116.948 84.9826 117.506 88.6526C117.702 90.2027 118.2 91.6992 118.974 93.0566C119.62 94.0769 120.324 94.6127 120.934 94.5246C121.543 94.4365 122.071 93.7099 122.402 92.5428C122.753 91.0132 122.798 89.429 122.534 87.8819C121.998 84.4101 120.383 82.0466 119.201 82.0466Z" fill="#263238"/>
<path id="Vector_231" d="M179.801 113.932L188.264 180.836L171.36 180.505L179.801 113.932Z" fill="#92E3A9"/>
<path id="Vector_232" d="M188.263 181.203L171.381 180.872C171.33 180.872 171.279 180.86 171.232 180.839C171.186 180.817 171.144 180.786 171.11 180.748C171.077 180.708 171.053 180.662 171.039 180.613C171.025 180.564 171.022 180.512 171.029 180.461L179.463 113.888C179.474 113.798 179.517 113.716 179.585 113.656C179.652 113.596 179.74 113.564 179.83 113.565C179.919 113.566 180.004 113.599 180.07 113.658C180.136 113.718 180.179 113.799 180.189 113.888L188.652 180.784C188.661 180.837 188.657 180.89 188.642 180.941C188.627 180.992 188.6 181.039 188.564 181.078C188.527 181.12 188.481 181.154 188.428 181.176C188.376 181.197 188.32 181.206 188.263 181.203ZM171.778 180.146L187.845 180.461L179.771 116.853L171.778 180.146Z" fill="#263238"/>
<g id="Clip path group_8">
<mask id="mask7_470_3960" style="mask-type:luminance" maskUnits="userSpaceOnUse" x="171" y="113" width="18" height="68">
<g id="freepik--clip-path-10--inject-26">
<g id="Clip path group_9">
<mask id="mask8_470_3960" style="mask-type:luminance" maskUnits="userSpaceOnUse" x="171" y="113" width="18" height="68">
<g id="freepik--clip-path-5--inject-26">
<path id="Vector_233" d="M179.801 113.932L188.264 180.836L171.36 180.505L179.801 113.932Z" fill="white"/>
</g>
</mask>
<g mask="url(#mask8_470_3960)">
<path id="Vector_234" d="M188.264 181.203L171.382 180.872C171.331 180.872 171.28 180.86 171.233 180.839C171.187 180.817 171.145 180.786 171.111 180.748C171.078 180.708 171.054 180.662 171.04 180.613C171.026 180.564 171.023 180.512 171.03 180.461L179.464 113.888C179.475 113.798 179.518 113.716 179.586 113.656C179.653 113.596 179.741 113.564 179.831 113.565C179.92 113.566 180.005 113.599 180.071 113.658C180.137 113.718 180.18 113.799 180.19 113.888L188.653 180.784C188.662 180.837 188.658 180.89 188.643 180.941C188.628 180.992 188.601 181.039 188.565 181.078C188.528 181.12 188.482 181.154 188.429 181.176C188.377 181.197 188.321 181.206 188.264 181.203ZM171.779 180.146L187.846 180.461L179.772 116.853L171.779 180.146Z" fill="white"/>
</g>
</g>
</g>
</mask>
<g mask="url(#mask7_470_3960)">
<g id="Group_6">
<path id="Vector_235" opacity="0.3" d="M184.411 150.419L175.61 155.704L175.757 145.817L171.36 180.505L188.264 180.836L186.877 169.906L179.5 170.149L186.048 163.344L185.996 162.897L176.997 165.98L185.138 156.122L184.411 150.419Z" fill="black"/>
</g>
</g>
</g>
<path id="Vector_236" d="M119.326 94.2017C119.326 94.2017 121.822 93.3282 122.365 94.2898C122.908 95.2513 123.54 99.4277 123.525 100.022C123.51 100.617 123.305 101.16 122.174 100.756C121.044 100.353 119.238 96.6753 119.238 96.6753L119.326 94.2017Z" fill="white"/>
<path id="Vector_237" d="M122.843 101.292C122.571 101.285 122.303 101.23 122.05 101.131C120.846 100.683 119.232 97.5047 118.923 96.8661C118.912 96.8103 118.912 96.753 118.923 96.6973L118.997 94.231C118.998 94.1568 119.022 94.0849 119.065 94.0246C119.109 93.9643 119.169 93.9186 119.239 93.8934C119.709 93.7319 122.058 92.9759 122.718 94.1503C123.298 95.1705 123.951 99.4571 123.929 100.074C123.94 100.272 123.904 100.47 123.825 100.652C123.746 100.834 123.626 100.995 123.474 101.123C123.287 101.244 123.066 101.303 122.843 101.292ZM119.621 96.6239C120.303 97.9964 121.595 100.176 122.3 100.441C122.806 100.624 122.982 100.543 123.034 100.514C123.085 100.485 123.166 100.301 123.173 100.052C123.173 99.5452 122.564 95.4127 122.058 94.5099C121.815 94.0695 120.59 94.2383 119.701 94.5099L119.621 96.6239Z" fill="#263238"/>
<path id="Vector_238" d="M108.404 107.443C108.404 107.443 110.716 92.5795 110.768 90.9647C110.819 89.3499 112.97 88.0287 113.997 87.6324C115.025 87.236 120.897 87.4268 121.521 87.4489C122.145 87.4709 124.655 87.3388 124.633 88.1829C124.611 89.027 124.391 89.3866 122.292 89.7243C120.192 90.0619 115.172 90.3261 115.172 90.3261L113.858 92.3079L120.09 93.497C120.09 93.497 121.558 94.143 121.293 95.1485C121.029 96.1541 120.302 100.565 120.288 101.167C120.273 101.769 119.627 102.158 118.137 103.127C117.248 103.702 116.248 104.085 115.201 104.25C115.201 104.25 115.319 107.282 114.467 107.656L112.346 108.603L112.052 125.947L102.474 124.861L108.404 107.443Z" fill="white"/>
<path id="Vector_239" d="M112.046 126.248H112.002L102.46 125.162C102.405 125.155 102.352 125.137 102.305 125.108C102.258 125.079 102.218 125.039 102.188 124.993C102.165 124.944 102.152 124.89 102.152 124.835C102.152 124.781 102.165 124.727 102.188 124.677L108.119 107.326C108.236 106.592 110.423 92.4621 110.468 90.928C110.519 89.0783 112.875 87.6324 113.939 87.258C115.004 86.8837 119.635 86.9938 121.595 87.0525H121.925C123.144 87.0525 124.369 87.0892 124.861 87.5883C124.931 87.6586 124.986 87.7424 125.023 87.8345C125.059 87.9265 125.077 88.0251 125.074 88.1241C125.074 89.2839 124.472 89.6876 122.424 90.0252C120.531 90.3335 116.391 90.5684 115.451 90.6197L114.549 91.985L120.237 93.0713H120.318C120.384 93.0713 122.035 93.8567 121.727 95.1412C121.47 96.2202 120.744 100.558 120.729 101.094C120.729 101.828 120.046 102.29 118.608 103.223L118.417 103.347C117.567 103.89 116.623 104.271 115.635 104.47C115.635 105.469 115.561 107.509 114.681 107.905L112.78 108.757L112.486 125.866C112.485 125.918 112.473 125.968 112.451 126.015C112.43 126.062 112.399 126.103 112.361 126.138C112.321 126.18 112.272 126.212 112.217 126.231C112.162 126.25 112.103 126.256 112.046 126.248ZM102.973 124.516L111.686 125.514L111.972 108.573C111.975 108.504 111.997 108.437 112.036 108.38C112.075 108.323 112.129 108.278 112.192 108.25L114.306 107.304C114.673 107.135 114.872 105.557 114.82 104.243C114.816 104.15 114.847 104.059 114.907 103.988C114.966 103.918 115.051 103.872 115.143 103.861C116.14 103.707 117.093 103.344 117.94 102.797L118.138 102.672C119.393 101.85 119.907 101.505 119.921 101.138C119.921 100.463 120.722 96 120.942 95.0384C121.089 94.4219 120.208 93.9227 119.98 93.8273L113.793 92.6456C113.733 92.6338 113.677 92.6075 113.629 92.5691C113.582 92.5308 113.545 92.4814 113.521 92.4254C113.494 92.3719 113.48 92.3128 113.48 92.2529C113.48 92.193 113.494 92.1339 113.521 92.0804L114.827 90.0986C114.861 90.0515 114.905 90.0126 114.956 89.9846C115.007 89.9567 115.063 89.9405 115.121 89.9371C115.165 89.9371 120.142 89.6802 122.197 89.3426C124.252 89.0049 124.215 88.6893 124.23 88.1462C124.164 88.0361 123.768 87.8305 121.867 87.8305H121.47C118.534 87.7425 114.813 87.7351 114.086 87.992C113.095 88.3443 111.15 89.6215 111.099 90.9941C111.047 92.6089 108.831 106.907 108.735 107.516C108.735 107.516 108.735 107.56 108.735 107.575L102.973 124.516Z" fill="#263238"/>
<path id="Vector_240" d="M120.794 96.3229H120.728L113.168 94.965C113.071 94.9475 112.984 94.892 112.928 94.8108C112.872 94.7296 112.85 94.6293 112.867 94.532C112.885 94.4346 112.94 94.3482 113.021 94.2918C113.103 94.2354 113.203 94.2135 113.3 94.231L120.86 95.5963C120.958 95.605 121.048 95.6521 121.11 95.7271C121.173 95.8021 121.203 95.899 121.194 95.9963C121.186 96.0936 121.139 96.1835 121.064 96.2461C120.989 96.3088 120.892 96.339 120.794 96.3303V96.3229Z" fill="#263238"/>
<path id="Vector_241" d="M119.936 99.714H119.855L113.631 98.202C113.534 98.1796 113.449 98.1194 113.396 98.0348C113.343 97.9501 113.326 97.8479 113.348 97.7506C113.371 97.6532 113.431 97.5688 113.516 97.5158C113.6 97.4628 113.703 97.4456 113.8 97.468L120.032 98.98C120.079 98.9902 120.123 99.0099 120.162 99.038C120.201 99.066 120.234 99.1018 120.259 99.143C120.284 99.1843 120.3 99.2302 120.306 99.2779C120.312 99.3256 120.309 99.3741 120.296 99.4204C120.28 99.5039 120.235 99.5793 120.17 99.633C120.104 99.6868 120.021 99.7154 119.936 99.714Z" fill="#263238"/>
<path id="Vector_242" d="M115.187 104.58C115.126 104.582 115.065 104.567 115.011 104.537C114.957 104.508 114.911 104.464 114.879 104.412C114.615 104.001 114.02 102.995 114.218 102.444C114.25 102.357 114.301 102.278 114.369 102.214C114.436 102.15 114.518 102.103 114.607 102.077C115.187 101.901 116.538 101.556 116.538 101.556L116.721 102.29C116.721 102.29 115.518 102.599 114.908 102.775C115.03 103.226 115.229 103.653 115.496 104.037C115.548 104.119 115.566 104.218 115.545 104.313C115.525 104.408 115.467 104.491 115.385 104.544C115.323 104.572 115.255 104.585 115.187 104.58Z" fill="#263238"/>
<path id="Vector_243" d="M103.332 115.877L113.682 119.782C113.682 119.782 106.474 165.025 104.742 168.578C103.009 172.13 98.9577 176.256 93.7316 176.755C88.5055 177.254 84.7254 171.617 84.5712 165.693C84.4171 159.77 103.332 115.877 103.332 115.877Z" fill="#92E3A9"/>
<path id="Vector_244" d="M93.0641 177.151C91.2587 177.133 89.5244 176.445 88.1977 175.221C85.8195 173.107 84.2781 169.466 84.1827 165.679C84.0212 159.77 102.224 117.499 102.995 115.701C103.034 115.614 103.104 115.546 103.192 115.511C103.279 115.475 103.377 115.475 103.465 115.51L113.814 119.407C113.894 119.435 113.961 119.49 114.004 119.563C114.046 119.635 114.063 119.72 114.049 119.804C113.756 121.653 106.812 165.15 105.065 168.703C103.201 172.519 98.9728 176.593 93.7394 177.092C93.5192 177.144 93.2917 177.151 93.0641 177.151ZM103.531 116.346C101.813 120.354 84.7699 160.203 84.9167 165.686C85.0048 169.246 86.4508 172.688 88.6895 174.67C89.3519 175.292 90.1385 175.766 90.9975 176.062C91.8565 176.358 92.7684 176.469 93.6733 176.388C98.6205 175.918 102.628 172.042 104.412 168.416C106.034 165.106 112.647 123.936 113.278 120.016L103.531 116.346Z" fill="#263238"/>
<g id="Clip path group_10">
<mask id="mask9_470_3960" style="mask-type:luminance" maskUnits="userSpaceOnUse" x="84" y="115" width="30" height="62">
<g id="freepik--clip-path-11--inject-26">
<g id="Clip path group_11">
<mask id="mask10_470_3960" style="mask-type:luminance" maskUnits="userSpaceOnUse" x="84" y="115" width="30" height="62">
<g id="freepik--clip-path--inject-26">
<path id="Vector_245" d="M103.332 115.877L113.682 119.782C113.682 119.782 106.474 165.025 104.742 168.578C103.009 172.13 98.9577 176.256 93.7316 176.755C88.5055 177.254 84.7254 171.617 84.5712 165.693C84.4171 159.77 103.332 115.877 103.332 115.877Z" fill="white"/>
</g>
</mask>
<g mask="url(#mask10_470_3960)">
<path id="Vector_246" d="M93.0641 177.151C91.2587 177.133 89.5244 176.445 88.1977 175.221C85.8195 173.107 84.2781 169.466 84.1827 165.679C84.0212 159.77 102.224 117.499 102.995 115.701C103.034 115.614 103.104 115.546 103.192 115.511C103.279 115.475 103.377 115.475 103.465 115.51L113.814 119.407C113.894 119.435 113.961 119.49 114.004 119.563C114.046 119.635 114.063 119.72 114.049 119.804C113.756 121.653 106.812 165.15 105.065 168.703C103.201 172.519 98.9728 176.593 93.7394 177.092C93.5192 177.144 93.2917 177.151 93.0641 177.151ZM103.531 116.346C101.813 120.354 84.7699 160.203 84.9167 165.686C85.0048 169.246 86.4508 172.688 88.6895 174.67C89.3519 175.292 90.1385 175.766 90.9975 176.062C91.8565 176.358 92.7684 176.469 93.6733 176.388C98.6205 175.918 102.628 172.042 104.412 168.416C106.034 165.106 112.647 123.936 113.278 120.016L103.531 116.346Z" fill="white"/>
</g>
</g>
</g>
</mask>
<g mask="url(#mask9_470_3960)">
<g id="Group_7">
<path id="Vector_247" opacity="0.3" d="M94.767 153.758C92.2423 155.046 89.6063 156.102 86.8912 156.915C85.959 159.623 85.247 161.92 84.8653 163.565L89.7611 162.948C93.2493 162.546 96.6905 161.809 100.037 160.746C100.037 160.746 91.9631 165.745 84.7626 166.581H84.5938C85.0708 172.145 88.7115 177.254 93.7027 176.777C98.9508 176.278 102.995 172.145 104.713 168.6C105.564 166.853 107.737 155.065 109.726 143.519C105.115 147.45 100.101 150.883 94.767 153.758Z" fill="black"/>
</g>
</g>
</g>
</g>
</g>
</g>
</g>
<g id="freepik--Gears--inject-26">
<path id="Vector_248" d="M205.535 38.1681V36.1569C205.535 35.8727 205.422 35.6001 205.221 35.3992C205.02 35.1982 204.747 35.0853 204.463 35.0853H202.914C202.679 34.0719 202.277 33.1046 201.725 32.2227L202.819 31.1217C203.019 30.9196 203.132 30.6466 203.132 30.362C203.132 30.0774 203.019 29.8044 202.819 29.6023L201.402 28.1857C201.2 27.9853 200.927 27.8729 200.643 27.8729C200.358 27.8729 200.085 27.9853 199.883 28.1857L198.782 29.2793C197.9 28.7275 196.933 28.3256 195.919 28.0903V26.5415C195.919 26.2573 195.806 25.9847 195.605 25.7838C195.404 25.5828 195.132 25.4699 194.848 25.4699H192.836C192.552 25.4699 192.28 25.5828 192.079 25.7838C191.878 25.9847 191.765 26.2573 191.765 26.5415V28.0903C190.751 28.3256 189.784 28.7275 188.902 29.2793L187.801 28.1857C187.599 27.9853 187.326 27.8729 187.042 27.8729C186.757 27.8729 186.484 27.9853 186.282 28.1857L184.865 29.6023C184.665 29.8044 184.552 30.0774 184.552 30.362C184.552 30.6466 184.665 30.9196 184.865 31.1217L185.959 32.2227C185.406 33.1034 185.007 34.0713 184.777 35.0853H183.221C182.937 35.0853 182.664 35.1982 182.463 35.3992C182.262 35.6001 182.149 35.8727 182.149 36.1569V38.1681C182.149 38.4523 182.262 38.7249 182.463 38.9258C182.664 39.1268 182.937 39.2397 183.221 39.2397H184.777C185.007 40.2537 185.406 41.2216 185.959 42.1023L184.865 43.2033C184.665 43.4054 184.552 43.6784 184.552 43.963C184.552 44.2476 184.665 44.5206 184.865 44.7227L186.282 46.1393C186.484 46.3397 186.757 46.4521 187.042 46.4521C187.326 46.4521 187.599 46.3397 187.801 46.1393L188.902 45.0457C189.789 45.6056 190.764 46.0102 191.787 46.2421V47.7982C191.787 48.0824 191.9 48.355 192.101 48.5559C192.302 48.7569 192.574 48.8698 192.858 48.8698H194.87C195.154 48.8698 195.426 48.7569 195.627 48.5559C195.828 48.355 195.941 48.0824 195.941 47.7982V46.2421C196.955 46.0124 197.923 45.6129 198.804 45.0603L199.905 46.154C200.107 46.3544 200.38 46.4668 200.665 46.4668C200.949 46.4668 201.222 46.3544 201.424 46.154L202.797 44.7741C202.997 44.572 203.11 44.299 203.11 44.0144C203.11 43.7298 202.997 43.4568 202.797 43.2547L201.703 42.1537C202.255 41.2718 202.657 40.3045 202.892 39.2911H204.441C204.588 39.2943 204.734 39.2672 204.87 39.2115C205.006 39.1558 205.129 39.0727 205.232 38.9674C205.335 38.862 205.414 38.7367 205.466 38.5992C205.519 38.4617 205.542 38.3149 205.535 38.1681ZM194.312 41.7353C193.367 41.8362 192.414 41.6416 191.584 41.1782C190.754 40.7148 190.088 40.0055 189.678 39.148C189.268 38.2905 189.135 37.327 189.295 36.3902C189.456 35.4534 189.903 34.5895 190.575 33.9174C191.247 33.2453 192.111 32.7982 193.048 32.6377C193.984 32.4771 194.948 32.611 195.806 33.0208C196.663 33.4307 197.372 34.0964 197.836 34.9263C198.299 35.7561 198.494 36.7092 198.393 37.6543C198.285 38.7019 197.821 39.6808 197.078 40.4275C196.335 41.1743 195.359 41.6436 194.312 41.7573V41.7353Z" fill="#263238"/>
<path id="Vector_249" d="M17.6307 125.852V124.34C17.6307 124.124 17.5448 123.916 17.3921 123.764C17.2393 123.611 17.032 123.525 16.8159 123.525H15.6269C15.4501 122.761 15.1475 122.032 14.7314 121.367L15.5608 120.545C15.6363 120.47 15.6961 120.381 15.737 120.282C15.7779 120.184 15.7989 120.079 15.7989 119.972C15.7989 119.866 15.7779 119.761 15.737 119.662C15.6961 119.564 15.6363 119.475 15.5608 119.4L14.4892 118.328C14.4141 118.253 14.3249 118.193 14.2267 118.152C14.1284 118.111 14.0231 118.09 13.9166 118.09C13.8102 118.09 13.7049 118.111 13.6066 118.152C13.5084 118.193 13.4192 118.253 13.3441 118.328L12.5147 119.15C11.851 118.734 11.1212 118.434 10.3567 118.262V117.088C10.3567 116.874 10.2717 116.668 10.1203 116.517C9.96884 116.365 9.76348 116.28 9.54934 116.28H8.05932C7.84451 116.28 7.63837 116.365 7.48579 116.516C7.33321 116.668 7.24652 116.873 7.24458 117.088V118.262C6.4801 118.434 5.75036 118.734 5.08662 119.15L4.2572 118.328C4.18217 118.253 4.09296 118.193 3.99471 118.152C3.89646 118.111 3.79109 118.09 3.68468 118.09C3.57827 118.09 3.47291 118.111 3.37465 118.152C3.2764 118.193 3.18719 118.253 3.11216 118.328L2.04786 119.4C1.97151 119.474 1.91084 119.563 1.86942 119.662C1.82799 119.76 1.80665 119.866 1.80665 119.972C1.80665 120.079 1.82799 120.185 1.86942 120.283C1.91084 120.381 1.97151 120.47 2.04786 120.545L2.86994 121.367C2.45381 122.032 2.15118 122.761 1.97446 123.525H0.807399C0.592591 123.527 0.387243 123.614 0.236033 123.766C0.0848239 123.919 -8.71701e-06 124.125 6.71825e-10 124.34V125.852C6.71825e-10 126.066 0.0850645 126.271 0.236481 126.423C0.387898 126.574 0.593263 126.659 0.807399 126.659H1.97446C2.14852 127.424 2.45133 128.154 2.86994 128.817L2.04786 129.646C1.97151 129.721 1.91084 129.81 1.86942 129.908C1.82799 130.007 1.80665 130.112 1.80665 130.219C1.80665 130.326 1.82799 130.431 1.86942 130.53C1.91084 130.628 1.97151 130.717 2.04786 130.792L3.14886 131.863C3.22389 131.939 3.3131 131.999 3.41135 132.039C3.50961 132.08 3.61497 132.101 3.72138 132.101C3.82779 132.101 3.93315 132.08 4.03141 132.039C4.12966 131.999 4.21887 131.939 4.2939 131.863L5.12332 131.034C5.7867 131.452 6.51641 131.755 7.28128 131.929V133.096C7.28128 133.312 7.36712 133.52 7.51991 133.672C7.6727 133.825 7.87994 133.911 8.09602 133.911H9.60806C9.82287 133.909 10.0282 133.822 10.1794 133.67C10.3306 133.517 10.4155 133.311 10.4155 133.096V131.929C11.1803 131.755 11.91 131.452 12.5734 131.034L13.4028 131.863C13.4779 131.939 13.5671 131.999 13.6653 132.039C13.7636 132.08 13.8689 132.101 13.9754 132.101C14.0818 132.101 14.1871 132.08 14.2854 132.039C14.3836 131.999 14.4728 131.939 14.5479 131.863L15.6195 130.792C15.695 130.717 15.7549 130.627 15.7957 130.529C15.8366 130.431 15.8576 130.325 15.8576 130.219C15.8576 130.113 15.8366 130.007 15.7957 129.909C15.7549 129.811 15.695 129.722 15.6195 129.646L14.7901 128.817C15.2087 128.154 15.5115 127.424 15.6856 126.659H16.8526C17.061 126.65 17.2579 126.561 17.4026 126.411C17.5474 126.26 17.629 126.06 17.6307 125.852ZM9.16766 128.538C8.45584 128.612 7.73871 128.463 7.11481 128.112C6.49091 127.762 5.99085 127.227 5.68334 126.581C5.37584 125.935 5.27598 125.209 5.39748 124.504C5.51898 123.799 5.85589 123.148 6.3619 122.642C6.86792 122.136 7.51821 121.799 8.22343 121.678C8.92865 121.556 9.6542 121.656 10.3004 121.964C10.9465 122.271 11.4816 122.771 11.8321 123.395C12.1826 124.019 12.3313 124.736 12.2578 125.448C12.176 126.24 11.8242 126.979 11.2614 127.542C10.6987 128.105 9.95931 128.456 9.16766 128.538Z" fill="#263238"/>
<path id="Vector_250" d="M242.668 105.696V104.184C242.668 103.968 242.582 103.761 242.429 103.608C242.276 103.455 242.069 103.369 241.853 103.369H240.686C240.512 102.604 240.209 101.875 239.791 101.211L240.62 100.389C240.695 100.314 240.755 100.225 240.796 100.127C240.837 100.029 240.858 99.9232 240.858 99.8167C240.858 99.7103 240.837 99.605 240.796 99.5067C240.755 99.4085 240.695 99.3193 240.62 99.2442L239.548 98.1726C239.473 98.0971 239.384 98.0372 239.286 97.9964C239.188 97.9555 239.082 97.9345 238.976 97.9345C238.869 97.9345 238.764 97.9555 238.666 97.9964C238.567 98.0372 238.478 98.0971 238.403 98.1726L237.574 98.9947C236.909 98.579 236.18 98.2764 235.416 98.0992V96.8881C235.416 96.782 235.395 96.6771 235.354 96.5791C235.314 96.4811 235.254 96.3921 235.179 96.3172C235.104 96.2422 235.015 96.1827 234.917 96.1421C234.82 96.1016 234.715 96.0807 234.608 96.0807H233.089C232.875 96.0807 232.67 96.1657 232.518 96.3172C232.367 96.4686 232.282 96.6739 232.282 96.8881V98.0551C231.518 98.2324 230.789 98.535 230.124 98.9506L229.294 98.1285C229.219 98.0531 229.13 97.9932 229.032 97.9523C228.934 97.9115 228.828 97.8905 228.722 97.8905C228.615 97.8905 228.51 97.9115 228.412 97.9523C228.314 97.9932 228.224 98.0531 228.149 98.1285L227.085 99.2002C227.009 99.2747 226.948 99.3638 226.907 99.4621C226.865 99.5604 226.844 99.666 226.844 99.7727C226.844 99.8794 226.865 99.985 226.907 100.083C226.948 100.182 227.009 100.271 227.085 100.345L227.907 101.167C227.488 101.831 227.186 102.56 227.012 103.325H225.845C225.63 103.327 225.424 103.414 225.273 103.566C225.122 103.719 225.037 103.925 225.037 104.14V105.696C225.037 105.91 225.122 106.116 225.274 106.267C225.425 106.418 225.63 106.503 225.845 106.503H227.019C227.193 107.268 227.496 107.998 227.914 108.661L227.092 109.491C227.016 109.565 226.955 109.654 226.914 109.753C226.872 109.851 226.851 109.957 226.851 110.063C226.851 110.17 226.872 110.276 226.914 110.374C226.955 110.472 227.016 110.561 227.092 110.636L228.157 111.708C228.232 111.783 228.321 111.843 228.419 111.884C228.517 111.925 228.623 111.946 228.729 111.946C228.836 111.946 228.941 111.925 229.039 111.884C229.137 111.843 229.227 111.783 229.302 111.708L230.131 110.878C230.794 111.297 231.524 111.6 232.289 111.774V112.941C232.289 113.155 232.374 113.362 232.525 113.514C232.676 113.667 232.882 113.753 233.096 113.755H234.616C234.831 113.753 235.036 113.667 235.187 113.514C235.338 113.362 235.423 113.155 235.423 112.941V111.774C236.188 111.6 236.918 111.297 237.581 110.878L238.411 111.708C238.486 111.783 238.575 111.843 238.673 111.884C238.771 111.925 238.877 111.946 238.983 111.946C239.09 111.946 239.195 111.925 239.293 111.884C239.391 111.843 239.481 111.783 239.556 111.708L240.627 110.636C240.703 110.561 240.763 110.472 240.803 110.373C240.844 110.275 240.865 110.17 240.865 110.063C240.865 109.957 240.844 109.852 240.803 109.753C240.763 109.655 240.703 109.566 240.627 109.491L239.791 108.632C240.209 107.969 240.512 107.239 240.686 106.474H241.853C242.063 106.474 242.265 106.394 242.417 106.249C242.568 106.104 242.658 105.906 242.668 105.696ZM234.205 108.383C233.493 108.456 232.776 108.307 232.152 107.957C231.528 107.606 231.028 107.071 230.72 106.425C230.413 105.779 230.313 105.053 230.435 104.348C230.556 103.643 230.893 102.993 231.399 102.487C231.905 101.981 232.555 101.644 233.261 101.522C233.966 101.401 234.691 101.501 235.337 101.808C235.984 102.116 236.519 102.616 236.869 103.24C237.22 103.863 237.368 104.581 237.295 105.292C237.21 106.081 236.857 106.817 236.294 107.377C235.732 107.937 234.994 108.287 234.205 108.368V108.383Z" fill="#263238"/>
<path id="Vector_251" d="M118.967 7.19328V6.41524C118.967 6.36064 118.956 6.30658 118.935 6.25623C118.914 6.20587 118.883 6.16023 118.844 6.12196C118.805 6.08369 118.759 6.05357 118.708 6.03335C118.657 6.01313 118.603 6.00322 118.548 6.0042H117.954C117.862 5.61187 117.705 5.23741 117.491 4.89586L117.917 4.47748C117.994 4.39921 118.037 4.29375 118.037 4.18388C118.037 4.07401 117.994 3.96855 117.917 3.89028L117.367 3.33978C117.29 3.26314 117.185 3.2201 117.077 3.2201C116.968 3.2201 116.864 3.26314 116.787 3.33978L116.361 3.7655C116.019 3.55155 115.645 3.39532 115.253 3.30308V2.70854C115.253 2.59884 115.21 2.49352 115.133 2.41526C115.056 2.33701 114.951 2.29209 114.842 2.29016H114.064C113.954 2.29209 113.849 2.33701 113.772 2.41526C113.696 2.49352 113.652 2.59884 113.653 2.70854V3.30308C113.26 3.39441 112.885 3.5507 112.544 3.7655L112.118 3.33978C112.04 3.26268 111.935 3.21946 111.825 3.21946C111.715 3.21946 111.61 3.26268 111.531 3.33978L110.988 3.89028C110.911 3.96855 110.868 4.07401 110.868 4.18388C110.868 4.29375 110.911 4.39921 110.988 4.47748L111.406 4.89586C111.195 5.23788 111.041 5.61232 110.951 6.0042H110.35C110.241 6.0042 110.136 6.0475 110.059 6.12459C109.982 6.20167 109.938 6.30622 109.938 6.41524V7.19328C109.938 7.30298 109.982 7.4083 110.058 7.48655C110.135 7.56481 110.24 7.60974 110.35 7.61166H110.951C111.04 8.00162 111.194 8.37383 111.406 8.71266L110.988 9.13838C110.911 9.21665 110.868 9.32211 110.868 9.43198C110.868 9.54185 110.911 9.64731 110.988 9.72558L111.531 10.2761C111.61 10.3532 111.715 10.3964 111.825 10.3964C111.935 10.3964 112.04 10.3532 112.118 10.2761L112.544 9.85036C112.884 10.0659 113.259 10.22 113.653 10.3054V10.9073C113.653 11.0163 113.696 11.1209 113.773 11.198C113.85 11.2751 113.955 11.3184 114.064 11.3184H114.842C114.951 11.3184 115.055 11.2751 115.132 11.198C115.209 11.1209 115.253 11.0163 115.253 10.9073V10.2761C115.645 10.1892 116.02 10.0352 116.361 9.821L116.787 10.2467C116.864 10.3234 116.968 10.3664 117.077 10.3664C117.185 10.3664 117.29 10.3234 117.367 10.2467L117.917 9.69622C117.994 9.61795 118.037 9.51249 118.037 9.40262C118.037 9.29275 117.994 9.18729 117.917 9.10902L117.491 8.6833C117.706 8.34483 117.862 7.97263 117.954 7.5823H118.548C118.654 7.58256 118.757 7.54254 118.834 7.47032C118.912 7.3981 118.959 7.29908 118.967 7.19328ZM114.636 8.5732C114.271 8.61853 113.9 8.54917 113.576 8.37471C113.252 8.20026 112.99 7.92934 112.826 7.59942C112.662 7.26951 112.605 6.89692 112.663 6.5332C112.72 6.16948 112.889 5.83261 113.147 5.5692C113.404 5.30579 113.737 5.12886 114.099 5.06289C114.461 4.99692 114.835 5.04516 115.169 5.20096C115.503 5.35675 115.78 5.61239 115.962 5.9325C116.144 6.25261 116.222 6.62136 116.185 6.98776C116.143 7.38797 115.968 7.76241 115.687 8.05023C115.405 8.33805 115.035 8.52236 114.636 8.5732Z" fill="#263238"/>
<path id="Vector_252" d="M24.5449 58.588H19.5537V63.5792H24.5449V58.588ZM20.5666 59.6009H23.5026V62.5736H20.5666V59.6009Z" fill="#263238"/>
<path id="Vector_253" d="M226.16 156.129H221.146V161.12H226.138L226.16 156.129ZM222.174 157.142H225.147V160.115H222.174V157.142Z" fill="#263238"/>
<path id="Vector_254" d="M151.278 13.1534H146.279V18.1446H151.27L151.278 13.1534ZM147.292 14.1589H150.265V17.0949H147.292V14.1589Z" fill="#263238"/>
<path id="Vector_255" d="M21.6094 138.293H16.6182V143.292H21.6094V138.293ZM17.6237 139.306H20.5597V142.242H17.6237V139.306Z" fill="#263238"/>
<path id="Vector_256" opacity="0.9" d="M167.344 47.7101C166.75 47.7086 166.169 47.8835 165.675 48.2124C165.18 48.5414 164.794 49.0098 164.566 49.5582C164.337 50.1066 164.277 50.7105 164.392 51.2933C164.507 51.8761 164.792 52.4117 165.212 52.8323C165.631 53.2529 166.166 53.5395 166.749 53.656C167.331 53.7724 167.935 53.7134 168.484 53.4864C169.033 53.2594 169.502 52.8746 169.833 52.3807C170.163 51.8869 170.339 51.3062 170.339 50.7121C170.339 49.9172 170.024 49.1547 169.462 48.5919C168.901 48.0292 168.139 47.712 167.344 47.7101ZM167.344 52.5104C166.989 52.5104 166.641 52.405 166.345 52.2074C166.05 52.0098 165.819 51.7289 165.683 51.4003C165.547 51.0717 165.511 50.7101 165.581 50.3613C165.65 50.0125 165.821 49.692 166.073 49.4405C166.324 49.1891 166.645 49.0178 166.994 48.9484C167.342 48.879 167.704 48.9146 168.033 49.0507C168.361 49.1868 168.642 49.4173 168.84 49.7131C169.037 50.0088 169.143 50.3565 169.143 50.7121C169.135 51.184 168.942 51.6339 168.606 51.9648C168.269 52.2957 167.816 52.4811 167.344 52.4811V52.5104Z" fill="#263238"/>
</g>
<g id="freepik--speech-bubble--inject-26">
<path id="Vector_257" d="M113.982 61.7882L107.259 52.4811C108.492 52.4772 109.673 51.9857 110.545 51.1138C111.417 50.242 111.908 49.0606 111.912 47.8275V22.4899C111.906 21.2574 111.414 20.0772 110.543 19.2057C109.671 18.3342 108.491 17.8421 107.259 17.8363H48.8323C47.5993 17.8402 46.4179 18.3317 45.546 19.2036C44.6741 20.0755 44.1826 21.2569 44.1787 22.4899V47.8275C44.1807 49.0611 44.6716 50.2437 45.5439 51.116C46.4161 51.9883 47.5987 52.4792 48.8323 52.4811H99.3535L113.982 61.7882Z" fill="#263238"/>
<path id="Vector_258" d="M63.5933 34.1238C63.5933 33.5605 63.4263 33.0099 63.1133 32.5415C62.8004 32.0732 62.3556 31.7082 61.8352 31.4926C61.3149 31.2771 60.7422 31.2207 60.1898 31.3306C59.6373 31.4405 59.1299 31.7117 58.7316 32.11C58.3333 32.5083 58.0621 33.0157 57.9522 33.5682C57.8423 34.1206 57.8987 34.6932 58.1142 35.2136C58.3298 35.734 58.6948 36.1788 59.1632 36.4917C59.6315 36.8047 60.1821 36.9717 60.7454 36.9717C61.1194 36.9717 61.4897 36.898 61.8352 36.7549C62.1808 36.6118 62.4947 36.402 62.7592 36.1376C63.0236 35.8731 63.2334 35.5591 63.3765 35.2136C63.5196 34.8681 63.5933 34.4978 63.5933 34.1238Z" fill="#92E3A9"/>
<path id="Vector_259" d="M80.3941 34.1238C80.3941 33.5602 80.2269 33.0093 79.9136 32.5408C79.6003 32.0723 79.1551 31.7073 78.6343 31.4919C78.1135 31.2766 77.5405 31.2206 76.9879 31.3311C76.4352 31.4416 75.9278 31.7136 75.5298 32.1126C75.1318 32.5116 74.8611 33.0197 74.7521 33.5727C74.643 34.1256 74.7005 34.6984 74.9171 35.2187C75.1338 35.739 75.5 36.1832 75.9693 36.4953C76.4386 36.8073 76.9899 36.9731 77.5535 36.9717C77.9271 36.9717 78.2971 36.898 78.6422 36.7548C78.9874 36.6115 79.3008 36.4016 79.5647 36.1371C79.8286 35.8725 80.0376 35.5585 80.18 35.2131C80.3223 34.8676 80.395 34.4974 80.3941 34.1238Z" fill="#92E3A9"/>
<path id="Vector_260" d="M97.2027 34.1238C97.2027 33.5605 97.0356 33.0099 96.7227 32.5415C96.4098 32.0732 95.965 31.7082 95.4446 31.4926C94.9242 31.2771 94.3516 31.2207 93.7992 31.3306C93.2467 31.4405 92.7393 31.7117 92.341 32.11C91.9427 32.5083 91.6714 33.0157 91.5616 33.5682C91.4517 34.1206 91.5081 34.6932 91.7236 35.2136C91.9392 35.734 92.3042 36.1788 92.7725 36.4917C93.2409 36.8047 93.7915 36.9717 94.3547 36.9717C94.7287 36.9717 95.0991 36.898 95.4446 36.7549C95.7901 36.6118 96.1041 36.402 96.3685 36.1376C96.633 35.8731 96.8428 35.5591 96.9859 35.2136C97.129 34.8681 97.2027 34.4978 97.2027 34.1238Z" fill="#92E3A9"/>
</g>
</g>
</svg>
