<svg width="22" height="22" viewBox="0 0 22 22" fill="none" xmlns="http://www.w3.org/2000/svg">
<path fill-rule="evenodd" clip-rule="evenodd" d="M17.9038 4.98373C16.1794 3.3111 13.4209 3.2303 11.5979 4.74857C11.4242 4.89323 11.2114 4.96346 10.9998 4.9608C10.7883 4.96346 10.5755 4.89323 10.4018 4.74857C8.57877 3.2303 5.82028 3.3111 4.09591 4.98373C2.38455 6.64373 2.30628 9.27462 3.85381 11.0229C3.87654 11.0486 3.89758 11.0752 3.91693 11.1026L10.9998 17.9729L18.0827 11.1026C18.1021 11.0752 18.1231 11.0486 18.1459 11.0229C19.6934 9.27462 19.6151 6.64373 17.9038 4.98373ZM19.6377 12.0996C21.7081 9.62117 21.5533 5.9696 19.1802 3.66777C16.9513 1.50573 13.5099 1.2559 10.9998 2.91252C8.48973 1.2559 5.04838 1.50573 2.81944 3.66777C0.446387 5.9696 0.291586 9.62117 2.36195 12.0996C2.40399 12.1725 2.45624 12.2399 2.51776 12.2995L10.3616 19.908C10.7172 20.2529 11.2825 20.2529 11.6381 19.908L19.4819 12.2995C19.5434 12.2399 19.5957 12.1725 19.6377 12.0996Z" fill="#2E2E2E" fill-opacity="1.0"/>
<path fill-rule="evenodd" clip-rule="evenodd" d="M16.4998 8.24998C16.4998 7.23746 15.679 6.41665 14.6665 6.41665V4.58331C16.6915 4.58331 18.3332 6.22494 18.3332 8.24998H16.4998Z" fill="#2E2E2E" fill-opacity="1.0"/>
</svg>
