<svg width="22" height="20" viewBox="0 0 22 20" fill="none" xmlns="http://www.w3.org/2000/svg">
<g id="favorite">
<path id="Union (Stroke)" fill-rule="evenodd" clip-rule="evenodd" d="M17.9042 3.98376C16.1799 2.31113 13.4214 2.23033 11.5984 3.7486C11.4247 3.89326 11.2119 3.96349 11.0003 3.96083C10.7888 3.96349 10.5759 3.89326 10.4023 3.7486C8.57926 2.23033 5.82077 2.31113 4.0964 3.98376C2.38503 5.64376 2.30677 8.27465 3.8543 10.0229C3.87703 10.0486 3.89807 10.0752 3.91742 10.1026L11.0003 16.973L18.0832 10.1026C18.1026 10.0752 18.1236 10.0486 18.1463 10.0229C19.6939 8.27465 19.6156 5.64376 17.9042 3.98376ZM19.6382 11.0996C21.7086 8.6212 21.5538 4.96963 19.1807 2.6678C16.9518 0.505757 13.5104 0.25593 11.0003 1.91255C8.49021 0.255931 5.04886 0.505757 2.81993 2.6678C0.446876 4.96963 0.292074 8.6212 2.36244 11.0996C2.40448 11.1725 2.45673 11.2399 2.51825 11.2996L10.3621 18.908C10.7177 19.2529 11.283 19.2529 11.6386 18.908L19.4824 11.2996C19.5439 11.2399 19.5962 11.1725 19.6382 11.0996Z" fill="white"/>
<path id="Ellipse 42 (Stroke)" fill-rule="evenodd" clip-rule="evenodd" d="M16.5003 7.25004C16.5003 6.23752 15.6795 5.41671 14.667 5.41671V3.58337C16.692 3.58337 18.3337 5.225 18.3337 7.25004H16.5003Z" fill="white"/>
</g>
</svg>
