<svg width="24" height="24" viewBox="0 0 24 24" fill="none" xmlns="http://www.w3.org/2000/svg">
<g id="Folder 1">
<path id="Union" fill-rule="evenodd" clip-rule="evenodd" d="M12.0114 11.9166C11.4591 11.9166 11.0114 12.3643 11.0114 12.9166C11.0114 13.4689 11.4591 13.9166 12.0114 13.9166L15.6898 13.9166C16.2421 13.9166 16.6898 13.4689 16.6898 12.9166C16.6898 12.3643 16.2421 11.9166 15.6898 11.9166H12.0114ZM8.33301 15.5958C7.78072 15.5958 7.33301 16.0435 7.33301 16.5958C7.33301 17.1481 7.78072 17.5958 8.33301 17.5958L15.6898 17.5958C16.2421 17.5958 16.6898 17.1481 16.6898 16.5958C16.6898 16.0435 16.2421 15.5958 15.6898 15.5958L8.33301 15.5958Z" fill="white"/>
<path id="Squircle" d="M16.5837 5.79252C15.5991 5.70014 14.4597 5.66215 13.1482 5.66215C5.04809 5.66215 3.10941 7.11132 2.16414 13.8727C2.01996 14.904 1.93345 15.8117 1.91911 16.6096M16.5837 5.79252C21.6799 6.2707 22.6287 8.20609 21.8365 13.8727C20.8912 20.6341 18.9526 22.0833 10.8525 22.0833C3.98786 22.0833 1.83945 21.0425 1.91911 16.6096M16.5837 5.79252C16.5837 5.79252 16.7232 4.94865 16.5837 3.83757C16.2399 1.10069 4.94467 1.45816 3.75037 3.83757C1.91878 7.48667 1.91911 16.6096 1.91911 16.6096" stroke="white" stroke-width="2" stroke-linecap="round" stroke-linejoin="round"/>
</g>
</svg>
