<svg xmlns="http://www.w3.org/2000/svg" fill="none" viewBox="53.98 78.73 268.95 247.12">
<path d="M252.942 90.3042C252.942 90.3042 213.532 68.2592 168.316 85.0122C123.099 101.765 94.2808 145.341 70.0358 180.049C45.7909 214.757 49.4802 254.893 77.9209 277.754C106.362 300.616 132.141 278.435 176.45 284.679C220.76 290.924 231.548 299.24 272.379 280.559C313.211 261.878 329.835 204.203 308.41 155.819C286.985 107.435 252.942 90.3042 252.942 90.3042Z" fill="#26B0FF"/>
<path opacity="0.8" d="M252.942 90.3042C252.942 90.3042 213.532 68.2592 168.316 85.0122C123.099 101.765 94.2808 145.341 70.0358 180.049C45.7909 214.757 49.4802 254.893 77.9209 277.754C106.362 300.616 132.141 278.435 176.45 284.679C220.76 290.924 231.548 299.24 272.379 280.559C313.211 261.878 329.835 204.203 308.41 155.819C286.985 107.435 252.942 90.3042 252.942 90.3042Z" fill="white"/>
<path d="M164.052 221.153C164.052 221.153 164.664 203.659 164.052 201.497C163.44 199.335 146.558 184.313 146.558 184.313C146.558 184.313 141.954 153.007 133.978 145.946L68.9094 153.929C68.9094 153.929 64.3054 158.231 64.6153 172.073C64.9253 185.916 65.5377 192.326 62.1583 198.465C58.779 204.604 55.4073 222.718 61.8559 231.926C68.3046 241.134 70.4441 243.266 76.2804 242.971C82.1167 242.676 164.052 221.153 164.052 221.153Z" fill="#26B0FF"/>
<path opacity="0.7" d="M164.052 221.153C164.052 221.153 164.664 203.659 164.052 201.497C163.44 199.335 146.558 184.313 146.558 184.313C146.558 184.313 141.954 153.007 133.978 145.946L68.9094 153.929C68.9094 153.929 64.3054 158.231 64.6153 172.073C64.9253 185.916 65.5377 192.326 62.1583 198.465C58.779 204.604 55.4073 222.718 61.8559 231.926C68.3046 241.134 70.4441 243.266 76.2804 242.971C82.1167 242.676 164.052 221.153 164.052 221.153Z" fill="white"/>
<path d="M164.052 201.504L57.2519 222.377C57.2519 222.377 59.3989 245.708 74.1334 243.545C88.8678 241.383 164.672 224.214 164.37 222.68C164.067 221.145 164.052 201.504 164.052 201.504Z" fill="#26B0FF"/>
<path opacity="0.5" d="M164.052 201.504L57.2519 222.377C57.2519 222.377 59.3989 245.708 74.1334 243.545C88.8678 241.383 164.672 224.214 164.37 222.68C164.067 221.145 164.052 201.504 164.052 201.504Z" fill="white"/>
<path d="M273.77 156.651C273.77 156.651 271.404 221.455 273.77 222.468C276.137 223.481 300.094 216.42 301.107 214.704C302.12 212.988 306.505 149.907 301.107 149.907C295.709 149.907 273.77 156.651 273.77 156.651Z" fill="#26B0FF"/>
<path d="M271.404 156.991C273.43 158.344 271.744 218.416 267.692 223.141C263.64 227.866 232.251 233.944 231.578 230.565C230.905 227.186 231.918 143.156 231.918 143.156C231.918 143.156 269.378 155.645 271.404 156.991ZM301.107 149.907C301.107 149.907 268.032 135.392 262.627 135.732C257.221 136.072 228.206 140.79 231.918 144.842C235.63 148.894 268.705 156.318 273.77 156.651C278.835 156.983 301.107 149.907 301.107 149.907Z" fill="#26B0FF"/>
<path opacity="0.5" d="M273.77 156.651C273.77 156.651 271.404 221.455 273.77 222.468C276.137 223.481 300.094 216.42 301.107 214.704C302.12 212.988 306.505 149.907 301.107 149.907C295.709 149.907 273.77 156.651 273.77 156.651Z" fill="white"/>
<path opacity="0.7" d="M271.404 156.991C273.43 158.344 271.744 218.416 267.692 223.141C263.64 227.866 232.251 233.944 231.578 230.565C230.905 227.186 231.918 143.156 231.918 143.156C231.918 143.156 269.378 155.645 271.404 156.991ZM301.107 149.907C301.107 149.907 268.032 135.392 262.627 135.732C257.221 136.072 228.206 140.79 231.918 144.842C235.63 148.894 268.705 156.318 273.77 156.651C278.835 156.983 301.107 149.907 301.107 149.907Z" fill="white"/>
<path d="M72.1224 153.468C72.1224 153.468 113.4 146.664 134.568 145.908C142.128 153.468 144.283 173.683 146.173 183.511C146.173 183.511 164.052 200.446 164.052 201.852C164.052 203.258 164.559 224.532 164.559 224.532" stroke="#263238" stroke-linecap="round" stroke-linejoin="round"/>
<path d="M150.951 84.4225V187.737" stroke="#263238" stroke-linecap="round" stroke-linejoin="round"/>
<path d="M63.1184 197.709L110.875 189.945L145.333 183.511" stroke="#263238" stroke-linecap="round" stroke-linejoin="round"/>
<path d="M56.9117 221.962L159.652 202.321" stroke="#263238" stroke-linecap="round" stroke-linejoin="round"/>
<path d="M91.476 193.158C91.476 193.158 108.108 209.79 107.73 212.058L106.974 235.872" stroke="#263238" stroke-linecap="round" stroke-linejoin="round"/>
<path d="M71.9637 243.969L158.526 225.061" stroke="#263238" stroke-linecap="round" stroke-linejoin="round"/>
<path d="M232.47 187.866V143.64L271.026 156.87V217.35" stroke="#263238" stroke-linecap="round" stroke-linejoin="round"/>
<path d="M232.092 191.775V233.604" stroke="#263238" stroke-linecap="round" stroke-linejoin="round"/>
<path d="M271.026 156.87L302.022 149.31V211.68" stroke="#263238" stroke-linecap="round" stroke-linejoin="round"/>
<path d="M232.47 143.64L265.734 136.458L302.022 149.31L271.026 156.87L232.47 143.64Z" stroke="#263238" stroke-linecap="round" stroke-linejoin="round"/>
<path d="M250.614 150.066V226.551" stroke="#263238" stroke-linecap="round" stroke-linejoin="round"/>
<path d="M255.203 185.538C255.203 186.944 254.583 188.085 253.827 188.085C253.071 188.085 252.451 186.944 252.451 185.538C252.451 184.131 253.063 182.99 253.827 182.99C254.591 182.99 255.203 184.131 255.203 185.538Z" fill="#263238"/>
<path d="M248.724 183.179C248.724 184.593 248.112 185.734 247.348 185.734C246.585 185.734 245.98 184.593 245.98 183.179C245.98 181.765 246.592 180.631 247.348 180.631C248.104 180.631 248.724 181.773 248.724 183.179Z" fill="#263238"/>
<path d="M164.559 207.393L219.489 235.116" stroke="#263238" stroke-linecap="round" stroke-linejoin="round"/>
<path d="M272.228 117.656C271.142 118.917 270.409 120.443 270.104 122.079L265.832 124.475V113.135L265.915 113.249L272.719 108.274C275.166 108.646 277.667 108.258 279.886 107.163C283.379 105.281 285.934 98.847 285.934 98.847C285.934 98.847 277.618 97.9096 274.791 101.402C273.245 103.214 272.422 105.531 272.478 107.911L265.84 112.773V104.419C267.084 103.843 268.184 102.996 269.059 101.941C269.934 100.885 270.562 99.6473 270.897 98.3178C272.107 93.6231 265.658 84.3545 265.658 84.3545C265.658 84.3545 258.945 93.8877 260.291 98.7185C260.604 100.016 261.234 101.217 262.124 102.211C263.015 103.206 264.138 103.965 265.394 104.419V122.563L260.601 118.571C260.703 117.307 260.536 116.036 260.111 114.841C259.686 113.646 259.013 112.555 258.136 111.639C254.916 108.01 246.32 108.282 246.32 108.282C246.32 108.282 249.949 115.532 253.033 117.951C255.732 120.06 259.459 119.199 260.359 118.949L265.394 123.145V128.656H257.909L260.933 147.745H270.119L273.143 128.656H265.802V125.012L270.497 122.381C272.932 123.081 275.537 122.891 277.845 121.845C281.625 119.962 284.687 115.933 284.687 115.933C284.687 115.933 275.721 113.627 272.228 117.656Z" fill="#263238"/>
<path d="M207.756 263.088L174.757 272.75C174.599 272.796 174.456 272.885 174.345 273.007C174.233 273.129 174.157 273.279 174.124 273.44C174.092 273.602 174.104 273.77 174.159 273.925C174.215 274.08 174.312 274.218 174.439 274.322L186.732 284.377C187.45 284.967 188.305 285.366 189.218 285.538C190.131 285.709 191.073 285.648 191.956 285.36L222.196 275.471C222.342 275.419 222.472 275.33 222.573 275.213C222.675 275.096 222.745 274.956 222.777 274.804C222.809 274.652 222.801 274.495 222.755 274.347C222.709 274.199 222.626 274.066 222.513 273.959L210.924 263.753C210.495 263.385 209.979 263.131 209.425 263.015C208.872 262.898 208.298 262.924 207.756 263.088Z" fill="#263238"/>
<path d="M191.684 263.632C190.798 264 190.006 264.562 189.368 265.278C188.729 265.994 188.261 266.845 187.997 267.767C187.733 268.689 187.681 269.659 187.844 270.604C188.007 271.549 188.382 272.446 188.94 273.226L189 273.317C191.223 276.205 202.328 277.754 207.431 276.424C212.534 275.093 213.298 271.427 210.092 268.652C208.134 266.959 201.02 263.103 195.66 262.884C194.295 262.822 192.933 263.078 191.684 263.632Z" fill="white" stroke="#263238" stroke-linecap="round" stroke-linejoin="round"/>
<path d="M241.92 279.342L217.879 258.348C217.608 258.112 217.406 257.807 217.294 257.465C217.182 257.124 217.163 256.759 217.24 256.408C217.318 256.057 217.488 255.733 217.733 255.471C217.979 255.208 218.29 255.016 218.635 254.916L267.382 241.406C268.498 241.097 269.673 241.063 270.805 241.306C271.937 241.55 272.993 242.064 273.884 242.805L297.486 262.332L241.92 279.342Z" fill="#26B0FF" stroke="#263238" stroke-linecap="round" stroke-linejoin="round"/>
<path d="M267.737 259.966L269.643 261.629L273.77 260.548L271.843 258.862L267.737 259.966Z" fill="#263238"/>
<path d="M258.794 252.141L262.944 251.075L261.092 249.45L256.957 250.531L258.794 252.141Z" fill="#263238"/>
<path d="M261.977 249.223L263.836 250.848L267.987 249.79L266.112 248.149L261.977 249.223Z" fill="#263238"/>
<path d="M269.567 250.168L271.555 251.907L275.305 250.947L273.233 249.231L269.567 250.168Z" fill="#263238"/>
<path d="M272.251 252.512L274.239 254.258L278.102 253.268L276.023 251.544L272.251 252.512Z" fill="#263238"/>
<path d="M281.655 256.224L277.701 257.282L279.66 258.998L283.712 257.932L281.655 256.224Z" fill="#263238"/>
<path d="M276.825 257.524L272.719 258.628L274.647 260.313L278.775 259.225L276.825 257.524Z" fill="#263238"/>
<path d="M274.927 254.863L277.021 256.685L280.945 255.634L278.82 253.865L274.927 254.863Z" fill="#263238"/>
<path d="M266.52 253.2L270.671 252.134L268.675 250.395L264.524 251.453L266.52 253.2Z" fill="#263238"/>
<path d="M251.234 263.625L248.845 261.531L244.695 262.589L247.136 264.729L251.234 263.625Z" fill="#263238"/>
<path d="M248.157 260.926L246.161 259.179L242.011 260.245L243.999 261.984L248.157 260.926Z" fill="#263238"/>
<path d="M245.473 258.582L243.477 256.836L239.327 257.894L241.323 259.641L245.473 258.582Z" fill="#263238"/>
<path d="M253.759 253.426L257.909 252.368L256.072 250.758L251.937 251.839L253.759 253.426Z" fill="#263238"/>
<path d="M253.744 265.817L251.922 264.222L247.817 265.326L249.616 266.898L253.744 265.817Z" fill="#263238"/>
<path d="M248.716 254.719L252.867 253.653L251.052 252.066L246.917 253.139L248.716 254.719Z" fill="#263238"/>
<path d="M243.674 256.004L247.832 254.946L246.033 253.373L241.897 254.447L243.674 256.004Z" fill="#263238"/>
<path d="M238.639 257.289L242.789 256.231L241.013 254.681L236.877 255.755L238.639 257.289Z" fill="#263238"/>
<path d="M259.815 258.726L262.075 260.707L266.18 259.603L263.965 257.66L259.815 258.726Z" fill="#263238"/>
<path d="M259.489 252.746L261.478 254.485L265.628 253.426L263.64 251.68L259.489 252.746Z" fill="#263238"/>
<path d="M274.458 261.145L270.33 262.234L272.44 264.078L276.537 262.967L274.458 261.145Z" fill="#263238"/>
<path d="M264.162 256.836L268.312 255.77L266.316 254.031L262.166 255.09L264.162 256.836Z" fill="#263238"/>
<path d="M256.435 255.777L260.593 254.712L258.597 252.973L254.447 254.031L256.435 255.777Z" fill="#263238"/>
<path d="M267.208 253.804L269.196 255.543L273.354 254.485L271.359 252.738L267.208 253.804Z" fill="#263238"/>
<path d="M256.639 268.35L254.432 266.414L250.304 267.503L252.542 269.461L256.639 268.35Z" fill="#263238"/>
<path d="M269 256.375L264.849 257.433L267.057 259.368L271.162 258.265L269 256.375Z" fill="#263238"/>
<path d="M274.042 255.09L269.892 256.148L272.039 258.03L276.144 256.927L274.042 255.09Z" fill="#263238"/>
<path d="M251.4 257.063L255.551 256.004L253.555 254.258L249.404 255.324L251.4 257.063Z" fill="#263238"/>
<path d="M264.441 263.784L260.313 264.865L262.491 266.77L266.588 265.658L264.441 263.784Z" fill="#263238"/>
<path d="M269.446 262.461L265.326 263.549L267.465 265.424L271.563 264.313L269.446 262.461Z" fill="#263238"/>
<path d="M246.358 258.355L250.508 257.289L248.52 255.543L244.369 256.609L246.358 258.355Z" fill="#263238"/>
<path d="M261.614 267.004L259.437 265.099L255.309 266.188L257.516 268.115L261.614 267.004Z" fill="#263238"/>
<path d="M266.86 260.2L262.755 261.304L264.638 262.944L268.758 261.863L266.86 260.2Z" fill="#263238"/>
<path d="M253.192 259.641L251.204 257.894L247.053 258.953L249.042 260.699L253.192 259.641Z" fill="#263238"/>
<path d="M256.216 262.287L253.88 260.238L249.729 261.304L252.111 263.39L256.216 262.287Z" fill="#263238"/>
<path d="M258.749 264.502L256.904 262.884L252.799 263.988L254.621 265.583L258.749 264.502Z" fill="#263238"/>
<path d="M238.964 263.277L238.072 263.504L238.767 264.109L239.652 263.882L238.964 263.277Z" fill="#263238"/>
<path d="M246.259 264.963L243.802 262.816L239.652 263.882L242.154 266.067L246.259 264.963Z" fill="#263238"/>
<path d="M248.732 267.133L246.94 265.56L242.835 266.664L244.611 268.221L248.732 267.133Z" fill="#263238"/>
<path d="M261.198 260.941L258.922 258.953L254.772 260.011L257.093 262.045L261.198 260.941Z" fill="#263238"/>
<path d="M242.154 266.067L241.277 266.301L241.958 266.898L242.835 266.664L242.154 266.067Z" fill="#263238"/>
<path d="M243.114 262.211L241.119 260.472L236.968 261.531L238.964 263.277L243.114 262.211Z" fill="#263238"/>
<path d="M263.753 263.179L261.878 261.538L257.781 262.65L259.633 264.267L263.753 263.179Z" fill="#263238"/>
<path d="M236.28 260.926L235.396 261.153L236.084 261.757L236.968 261.531L236.28 260.926Z" fill="#263238"/>
<path d="M254.084 259.406L258.234 258.348L256.239 256.609L252.088 257.667L254.084 259.406Z" fill="#263238"/>
<path d="M254.379 272.069L252.353 270.293L248.255 271.404L250.395 273.279L254.379 272.069Z" fill="#263238"/>
<path d="M247.378 271.638L243.167 272.78L245.481 274.768L249.54 273.536L247.378 271.638Z" fill="#263238"/>
<path d="M283.069 261.984L284.264 263.028L288.354 261.788L287.235 260.858L283.069 261.984Z" fill="#263238"/>
<path d="M247.567 270.807L246.69 271.041L247.378 271.638L248.255 271.404L247.567 270.807Z" fill="#263238"/>
<path d="M261.281 255.316L257.131 256.382L259.119 258.121L263.269 257.063L261.281 255.316Z" fill="#263238"/>
<path d="M244.611 268.221L243.727 268.448L244.415 269.053L245.299 268.818L244.611 268.221Z" fill="#263238"/>
<path d="M240.431 259.867L238.442 258.121L234.284 259.187L236.28 260.926L240.431 259.867Z" fill="#263238"/>
<path d="M251.665 269.695L249.42 267.73L245.299 268.818L247.567 270.807L251.665 269.695Z" fill="#263238"/>
<path d="M226.467 258.461L228.206 259.958L232.712 258.809L230.973 257.289L226.467 258.461Z" fill="#263238"/>
<path d="M275.335 260.911L277.414 262.733L281.512 261.621L279.463 259.83L275.335 260.911Z" fill="#263238"/>
<path d="M277.218 263.564L273.12 264.676L274.587 265.953L278.571 264.744L277.218 263.564Z" fill="#263238"/>
<path d="M282.192 262.219L278.095 263.33L279.425 264.487L283.409 263.285L282.192 262.219Z" fill="#263238"/>
<path d="M284.422 258.522L280.34 259.595L282.389 261.387L286.524 260.268L284.422 258.522Z" fill="#263238"/>
<path d="M233.596 258.582L232.712 258.809L233.4 259.414L234.284 259.187L233.596 258.582Z" fill="#263238"/>
<path d="M262.302 267.601L258.204 268.713L260.072 270.353L264.056 269.144L262.302 267.601Z" fill="#263238"/>
<path d="M268.871 249.563L272.515 248.633L270.542 246.993L266.997 247.915L268.871 249.563Z" fill="#263238"/>
<path d="M272.251 264.91L268.146 266.021L269.748 267.42L273.732 266.21L272.251 264.91Z" fill="#263238"/>
<path d="M267.276 266.256L263.179 267.367L264.91 268.887L268.894 267.677L267.276 266.256Z" fill="#263238"/>
<path d="M240.128 270.179L242.472 272.183L246.69 271.041L244.415 269.053L240.128 270.179Z" fill="#263238"/>
<path d="M235.993 255.982L231.858 257.063L233.596 258.582L237.747 257.516L235.993 255.982Z" fill="#263238"/>
<path d="M228.909 260.563L230.935 262.294L235.396 261.153L233.4 259.414L228.909 260.563Z" fill="#263238"/>
<path d="M259.217 270.61L257.327 268.947L253.23 270.058L255.233 271.812L259.217 270.61Z" fill="#263238"/>
<path d="M237.656 268.055L239.433 269.582L243.727 268.448L241.958 266.898L237.656 268.055Z" fill="#263238"/>
<path d="M234.36 265.235L236.961 267.465L241.277 266.301L238.767 264.109L234.36 265.235Z" fill="#263238"/>
<path d="M231.638 262.899L233.657 264.63L238.072 263.504L236.084 261.757L231.638 262.899Z" fill="#263238"/>
<path d="M256.375 239.145L241.92 279.342L297.486 262.332L315.184 223.474C315.324 223.163 315.373 222.82 315.325 222.483C315.277 222.146 315.133 221.83 314.912 221.571C314.691 221.313 314.401 221.123 314.075 221.023C313.75 220.923 313.403 220.919 313.075 221.009L260.382 235.441C259.465 235.692 258.623 236.159 257.926 236.804C257.228 237.449 256.696 238.252 256.375 239.145Z" fill="#26B0FF" stroke="#263238" stroke-linecap="round" stroke-linejoin="round"/>
<path d="M285.413 246.592C286.169 248.323 284.861 250.516 282.547 251.483C280.234 252.451 277.777 251.831 277.051 250.1C276.326 248.369 277.603 246.176 279.917 245.209C282.23 244.241 284.687 244.861 285.413 246.592Z" fill="#263238"/>
<path d="M148.252 277.407L107.934 286.864L132.504 325.352L175.029 316.643L148.252 277.407Z" fill="white" stroke="#263238" stroke-linecap="round" stroke-linejoin="round"/>
<path d="M120.96 278.964L150.444 315.63L190.512 302.778L158.004 269.136L120.96 278.964Z" fill="white" stroke="#263238" stroke-linecap="round" stroke-linejoin="round"/>
<path d="M131.967 284.385L157.475 276.84" stroke="#263238" stroke-linecap="round" stroke-linejoin="round"/>
<path d="M135.891 287.915L161.398 280.37" stroke="#263238" stroke-linecap="round" stroke-linejoin="round"/>
<path d="M139.815 291.446L165.322 283.901" stroke="#263238" stroke-linecap="round" stroke-linejoin="round"/>
<path d="M143.738 294.976L169.253 287.439" stroke="#263238" stroke-linecap="round" stroke-linejoin="round"/>
<path d="M147.662 298.514L173.177 290.969" stroke="#263238" stroke-linecap="round" stroke-linejoin="round"/>
<path d="M151.586 302.045L177.101 294.5" stroke="#263238" stroke-linecap="round" stroke-linejoin="round"/>
<path d="M155.517 305.575L181.024 298.03" stroke="#263238" stroke-linecap="round" stroke-linejoin="round"/>
<path d="M168.21 170.478L114.534 182.196C114.534 182.196 117.18 224.532 121.716 241.92C121.716 241.92 126.441 258.658 129.132 263.844L179.747 250.569C179.747 250.569 172.368 230.958 168.21 170.478Z" fill="#263238" stroke="#263238" stroke-linecap="round" stroke-linejoin="round"/>
<path d="M205.942 176.556C201.769 172.829 196.726 173.706 191.684 171.733C188.102 170.412 184.444 169.308 180.729 168.429L179.845 168.225C179.845 168.225 177.652 163.621 173.706 164.279C169.76 164.937 153.317 176.148 152.001 179.172C150.686 182.196 150.686 211.408 150.905 221.508C151.049 228.372 152.417 233.808 154.942 237.558L150.951 258.303L206.819 243.432C206.819 243.432 203.001 241.466 202.865 230.278C202.865 228.115 203.742 222.385 204.846 215.808C205.51 211.454 205.731 207.044 205.503 202.646C207.454 203.329 209.358 204.137 211.204 205.065C214.273 206.577 232.47 214.054 232.47 214.054L237.762 204.407C237.762 204.407 210.108 180.283 205.942 176.556Z" fill="#26B0FF" stroke="#263238" stroke-linecap="round" stroke-linejoin="round"/>
<path d="M67.7905 279.969L322.434 213.57" stroke="#263238" stroke-linecap="round" stroke-linejoin="round"/>
<path d="M155.895 219.414C155.895 219.414 160.968 207.484 163.349 197.346" stroke="#263238" stroke-linecap="round" stroke-linejoin="round"/>
<path d="M154.111 223.02C154.111 223.02 163.349 213.774 166.033 204.528" stroke="#263238" stroke-linecap="round" stroke-linejoin="round"/>
<path d="M180.631 231.654C180.631 231.654 189.658 226.944 193.581 222.627" stroke="#263238" stroke-linecap="round" stroke-linejoin="round"/>
<path d="M164.657 178.046C164.657 178.046 165.156 178.091 166.925 181.599C168.694 185.107 170.856 190.807 170.856 190.807L174.802 186.861L178.529 191.903" stroke="#263238" stroke-linecap="round" stroke-linejoin="round"/>
<path d="M188.078 173.358C188.078 173.358 189.711 175.241 191.026 179.406C192.342 183.572 192.342 184.449 192.342 184.449L187.05 183.353L186.173 190.807" stroke="#263238" stroke-linecap="round" stroke-linejoin="round"/>
<path d="M204.627 189.93L205.496 202.653L207.477 186.422" stroke="#263238" stroke-linecap="round" stroke-linejoin="round"/>
<path d="M183.035 164.12L181.44 169.987C182.997 173.176 184.116 176.56 184.766 180.049C186.105 187.412 184.698 201.973 184.698 201.973C184.698 201.973 178.499 188.274 174.916 181.75C171.332 175.226 170.017 171.96 169.692 168.701C169.367 165.443 171.65 156.961 172.3 155.978C172.95 154.995 183.035 164.12 183.035 164.12Z" fill="white" stroke="#263238" stroke-linecap="round" stroke-linejoin="round"/>
<path d="M195.434 112.584C191.791 109.5 187.386 107.452 182.681 106.654C177.975 105.856 173.142 106.337 168.686 108.048C153.03 113.884 152.712 132.149 152.712 142.589C152.712 153.03 148.365 170.115 140.215 177.94C132.066 185.764 128.875 194.126 130.856 202.933C132.837 211.74 140.964 216.957 146.838 216.307C152.712 215.657 149.106 189.559 154.995 184.343C160.884 179.127 168.369 174.515 173.26 159.879C176.061 156.356 177.963 152.205 178.802 147.783C180.109 140.608 185.001 129.193 190.217 128.218C195.434 127.242 197.074 142.892 195.116 148.766C193.158 154.64 183.368 161.489 183.02 164.097C182.685 166.104 182.141 168.071 181.395 169.964C181.395 169.964 187.065 173.464 197.051 174.5C198.457 174.677 199.879 174.677 201.285 174.5C201.285 174.5 203.629 172.557 210.168 161.784C216.594 151.2 210.538 124.891 203.364 118.692C196.19 112.493 195.434 112.584 195.434 112.584Z" fill="#263238" stroke="#263238" stroke-linecap="round" stroke-linejoin="round"/>
<path d="M142.204 181.175C141.146 181.775 140.053 182.311 138.93 182.778" stroke="white" stroke-linecap="round" stroke-linejoin="round"/>
<path d="M139.422 178.915C139.422 178.915 130.35 183.965 130.622 197.535C130.856 203.083 133.059 208.366 136.836 212.436" stroke="white" stroke-linecap="round" stroke-linejoin="round"/>
<path d="M164.112 130.433C160.658 143.867 159.221 160.99 154.481 169.518C152.389 173.101 149.553 176.195 146.165 178.59" stroke="white" stroke-linecap="round" stroke-linejoin="round"/>
<path d="M196.802 123.122C196.802 123.122 197.558 119.047 192.72 114.965C188.115 111.087 170.833 113.453 165.64 125.504" stroke="white" stroke-linecap="round" stroke-linejoin="round"/>
<path d="M183.443 108.108C179.673 106.743 175.53 106.824 171.816 108.335C167.301 110.04 163.355 112.977 160.426 116.812C157.496 120.647 155.701 125.228 155.245 130.032C154.224 139.21 155.502 153.468 151.419 162.404" stroke="white" stroke-linecap="round" stroke-linejoin="round"/>
<path d="M189.915 111.888C189.111 111.157 188.237 110.506 187.307 109.945" stroke="white" stroke-linecap="round" stroke-linejoin="round"/>
<path d="M210.055 159.327C210.311 158.056 210.496 156.771 210.606 155.479" stroke="white" stroke-linecap="round" stroke-linejoin="round"/>
<path d="M210.72 151.956C210.334 136.133 198.329 126.449 198.329 126.449" stroke="white" stroke-linecap="round" stroke-linejoin="round"/>
<path d="M196.409 125.299C196.409 125.299 201.958 137.395 199.35 146.83C196.741 156.265 191.192 164.12 187.254 166.078C183.315 168.036 173.23 159.879 173.23 159.879C173.23 159.879 176.488 152.704 176.488 145.197C176.488 137.69 179.104 128.565 184.971 125.632C186.746 124.774 188.683 124.301 190.654 124.244C192.625 124.187 194.586 124.546 196.409 125.299Z" fill="white" stroke="#263238" stroke-linecap="round" stroke-linejoin="round"/>
<path d="M189.756 144.396C189.578 145.788 189.681 147.202 190.058 148.554C190.686 150.285 192.258 151.381 191.003 151.699C189.806 151.888 188.591 151.942 187.382 151.858" stroke="#263238" stroke-linecap="round" stroke-linejoin="round"/>
<path d="M185.432 156.832C186.553 157.466 187.862 157.685 189.129 157.452" stroke="#263238" stroke-linecap="round" stroke-linejoin="round"/>
<path d="M184.388 144.449C184.388 145.318 184.003 146.021 183.527 146.021C183.05 146.021 182.657 145.318 182.657 144.449C182.657 143.58 183.043 142.876 183.527 142.876C184.01 142.876 184.388 143.58 184.388 144.449Z" fill="#263238"/>
<path d="M195.184 143.958C195.184 144.819 194.799 145.53 194.322 145.53C193.846 145.53 193.453 144.819 193.453 143.958C193.453 143.096 193.846 142.385 194.322 142.385C194.799 142.385 195.184 143.088 195.184 143.958Z" fill="#263238"/>
<path d="M197.603 139.338C197.468 139.373 197.326 139.369 197.192 139.328C197.059 139.287 196.939 139.209 196.847 139.104C196.646 138.811 196.379 138.568 196.068 138.395C195.758 138.222 195.411 138.123 195.056 138.106C194.257 138.269 193.552 138.735 193.09 139.406C192.976 139.572 192.8 139.685 192.603 139.721C192.405 139.757 192.201 139.713 192.035 139.599C191.87 139.485 191.757 139.31 191.721 139.112C191.684 138.914 191.728 138.71 191.843 138.545C191.895 138.469 193.135 136.7 194.972 136.594C195.56 136.589 196.141 136.723 196.667 136.986C197.192 137.249 197.648 137.633 197.996 138.106C198.128 138.257 198.193 138.455 198.179 138.655C198.165 138.855 198.072 139.041 197.921 139.172C197.829 139.251 197.72 139.308 197.603 139.338Z" fill="#263238"/>
<path d="M185.855 139.86C185.651 139.863 185.453 139.794 185.296 139.663C182.619 137.547 180.495 139.384 180.404 139.459C180.23 139.612 180.005 139.693 179.773 139.686C179.542 139.679 179.321 139.585 179.157 139.422C179.078 139.343 179.016 139.248 178.975 139.145C178.935 139.041 178.916 138.93 178.92 138.818C178.924 138.707 178.952 138.597 179 138.497C179.049 138.396 179.118 138.307 179.202 138.235C180.224 137.392 181.514 136.943 182.839 136.969C184.163 136.995 185.434 137.495 186.422 138.378C186.51 138.446 186.584 138.531 186.638 138.628C186.692 138.725 186.725 138.833 186.736 138.943C186.746 139.054 186.734 139.166 186.7 139.271C186.665 139.377 186.609 139.474 186.535 139.558C186.45 139.653 186.345 139.73 186.228 139.782C186.11 139.834 185.983 139.861 185.855 139.86Z" fill="#263238"/>
<path d="M187.654 144.85C187.656 145.798 187.376 146.725 186.85 147.515C186.324 148.304 185.576 148.919 184.701 149.283C183.825 149.647 182.861 149.743 181.931 149.559C181.001 149.375 180.146 148.919 179.475 148.249C178.804 147.579 178.346 146.725 178.161 145.795C177.975 144.865 178.07 143.901 178.432 143.025C178.795 142.148 179.409 141.399 180.198 140.872C180.986 140.345 181.913 140.064 182.861 140.064C184.131 140.064 185.349 140.568 186.248 141.465C187.146 142.363 187.652 143.58 187.654 144.85V144.85Z" stroke="#263238" stroke-linecap="round" stroke-linejoin="round"/>
<path d="M178.159 145.371L176.677 144.751" stroke="#263238" stroke-linecap="round" stroke-linejoin="round"/>
<path d="M199.894 144.003C199.894 144.951 199.613 145.878 199.086 146.667C198.559 147.455 197.81 148.069 196.933 148.432C196.057 148.794 195.093 148.889 194.163 148.703C193.233 148.518 192.379 148.06 191.709 147.389C191.039 146.718 190.583 145.864 190.399 144.933C190.215 144.003 190.311 143.039 190.675 142.163C191.039 141.288 191.654 140.54 192.444 140.014C193.233 139.488 194.16 139.208 195.108 139.21C196.378 139.212 197.596 139.718 198.493 140.616C199.39 141.515 199.894 142.733 199.894 144.003V144.003Z" stroke="#263238" stroke-linecap="round" stroke-linejoin="round"/>
<path d="M187.654 144.85C187.803 144.608 188.017 144.413 188.271 144.288C188.526 144.162 188.81 144.11 189.093 144.139C189.375 144.167 189.644 144.274 189.868 144.448C190.092 144.622 190.263 144.855 190.361 145.122" stroke="#263238" stroke-linecap="round" stroke-linejoin="round"/>
<path d="M154.678 236.552C154.678 236.552 156.484 222.188 157.248 213.192C158.012 204.196 158.821 184.063 153.468 181.818C148.116 179.573 142.189 181.221 139.391 195.177C136.594 209.132 136.367 240.786 136.367 240.786L154.678 236.552Z" fill="#26B0FF" stroke="#263238" stroke-linecap="round" stroke-linejoin="round"/>
<path d="M157.634 244.271C157.634 244.271 182.718 262.332 185.129 262.332C187.541 262.332 195.653 259.482 198.941 260.359C202.23 261.236 205.745 268.032 206.403 268.471C207.061 268.909 208.157 270.225 207.061 270.882C205.965 271.54 199.38 268.69 198.284 268.69C197.67 268.706 197.064 268.555 196.53 268.251L193.68 267.594C193.68 267.594 201.572 271.54 202.23 271.759C202.888 271.979 202.457 272.856 200.257 272.856C198.057 272.856 195.434 271.54 193.899 271.102C192.299 270.455 190.58 270.156 188.856 270.225C185.787 270.225 180.087 267.155 180.087 267.155C180.087 267.155 155.139 259.217 149.416 257.463C143.693 255.709 138.741 251.158 138.522 250.501C138.303 249.843 151.714 244.49 157.634 244.271Z" fill="white" stroke="#263238" stroke-linecap="round" stroke-linejoin="round"/>
<path d="M195.502 264.093C195.502 264.093 203.901 266.823 206.403 268.493" stroke="#263238" stroke-linecap="round" stroke-linejoin="round"/>
<path d="M196.56 261.773C196.56 261.773 201.383 262.309 203.53 264.275" stroke="#263238" stroke-linecap="round" stroke-linejoin="round"/>
<path d="M153.657 231.661C153.657 231.661 138.431 234.602 136.269 236.137C134.107 237.671 134.553 240.325 135.211 241.86C135.868 243.394 135.868 251.068 138.28 252.822C139.036 253.396 154.065 248.217 156.915 247.53C159.765 246.842 160.264 242.812 159.183 238.866C158.102 234.919 158.042 229.249 153.657 231.661Z" fill="#26B0FF" stroke="#263238" stroke-linecap="round" stroke-linejoin="round"/>
<path d="M224.577 197.165C224.577 197.165 220.193 204.18 219.973 207.915C219.754 211.65 220.631 211.861 222.166 212.958C223.7 214.054 230.716 217.123 235.32 217.562C239.924 218 244.309 208.354 244.528 205.284C244.747 202.215 237.951 197.384 233.128 195.411C228.304 193.438 224.797 195.411 224.577 197.165Z" fill="#26B0FF" stroke="#263238" stroke-linecap="round" stroke-linejoin="round"/>
<path d="M216.216 178.091C216.216 178.091 244.279 201.769 247.348 206.819C250.417 211.869 245.156 216.246 241.209 216.465C237.263 216.685 234.194 212.519 230.247 208.149C226.301 203.78 211.68 180.722 211.68 180.722L216.216 178.091Z" fill="white" stroke="#263238" stroke-linecap="round" stroke-linejoin="round"/>
<path d="M211.861 167.787C211.861 167.787 208.134 178.749 208.134 180.503C208.134 182.256 210.546 183.353 212.738 183.353C214.931 183.353 216.904 180.283 218.219 176.549C219.535 172.814 221.07 168.233 219.535 167.121C218 166.01 212.3 166.91 211.861 167.787Z" fill="white" stroke="#263238" stroke-linecap="round" stroke-linejoin="round"/>
<path d="M210.984 171.075L219.535 171.952" stroke="#263238" stroke-linecap="round" stroke-linejoin="round"/>
<path d="M210.108 175.241L218.219 176.556" stroke="#263238" stroke-linecap="round" stroke-linejoin="round"/>
<path d="M208.792 178.31L216.246 180.064" stroke="#263238" stroke-linecap="round" stroke-linejoin="round"/>
<path d="M215.989 164.347C215.497 164.331 215.007 164.278 214.523 164.188C212.806 163.855 208.943 163.296 208.785 164.861C208.58 166.879 208.785 168.391 210.221 168.391H216.564C218.408 168.391 219.021 167.129 218.613 165.617C218.333 164.566 216.859 164.37 215.989 164.347Z" fill="white" stroke="#263238" stroke-linecap="round" stroke-linejoin="round"/>
<path d="M181.44 169.987C181.31 171.869 181.31 173.759 181.44 175.641" stroke="#263238" stroke-miterlimit="10"/>
<path d="M205.466 180.336H198.707C197.716 180.336 196.758 179.979 196.009 179.331C195.259 178.682 194.768 177.786 194.625 176.806L193.06 161.587H211.113L209.556 176.806C209.411 177.787 208.918 178.683 208.167 179.331C207.416 179.979 206.457 180.336 205.466 180.336Z" fill="white" stroke="#263238" stroke-linecap="round" stroke-linejoin="round"/>
<path opacity="0.37" d="M202.487 161.247C202.298 160.325 201.315 159.282 200.332 157.966C198.541 155.577 227.768 157.067 231.328 155.88C234.889 154.693 230.436 154.685 229.816 152.001C229.197 149.318 236.976 152.296 244.725 151.699C252.474 151.102 249.798 149.015 239.954 146.929C230.111 144.842 219.973 147.821 223.557 151.102C227.14 154.383 221.765 153.196 209.835 153.196C197.906 153.196 197.308 155.282 196.122 159.456C195.927 160.126 195.575 160.741 195.093 161.247H202.487Z" fill="white"/>
</svg>