<svg width="103" height="172" viewBox="0 0 103 172" fill="none" xmlns="http://www.w3.org/2000/svg">
<path d="M96.8061 137.713L88.0432 140.362L92.7967 153.717L101.56 151.068C102.563 150.711 102.312 147.432 100.998 143.742C99.6846 140.056 97.8095 137.356 96.8061 137.713Z" fill="#53E88B" stroke="#263238" stroke-linecap="round" stroke-linejoin="round"/>
<path d="M92.2398 146.395C93.5536 150.081 93.8044 153.364 92.801 153.721C91.7976 154.078 89.9183 151.378 88.6087 147.692C87.2949 144.006 87.0441 140.723 88.0475 140.366C89.0509 140.009 90.9302 142.709 92.2398 146.395Z" fill="#263238" stroke="#263238" stroke-linecap="round" stroke-linejoin="round"/>
<path d="M61.0956 99.7063L62.5157 107.508C62.5157 107.508 67.4817 114.957 70.0838 120.986C72.6859 127.015 79.544 134.822 80.8451 135.885C82.1461 136.948 85.9302 139.197 86.8741 140.732C87.818 142.267 89.829 147.118 89.829 147.118L80.135 150.902C80.135 150.902 78.243 148.891 77.2991 146.055C76.3552 143.219 75.7642 140.97 75.7642 140.97C75.7642 140.97 66.423 133.993 63.349 131.748C60.275 129.503 59.3311 128.321 59.3311 128.321C59.3311 128.321 55.9042 112.36 55.3132 108.337C54.7222 104.315 58.3872 100.178 61.1083 99.7063H61.0956Z" fill="white" stroke="#263238" stroke-linecap="round" stroke-linejoin="round"/>
<path d="M89.3907 144.72C89.3907 144.72 91.4528 149.273 91.2828 149.873C91.1127 150.472 89.565 150.902 88.8762 150.732C88.1875 150.562 87.0735 145.834 87.0735 145.579C87.0735 145.324 88.4468 143.946 89.395 144.72H89.3907Z" fill="white" stroke="#263238" stroke-linecap="round" stroke-linejoin="round"/>
<path d="M86.5551 145.749C86.5551 145.749 88.6172 150.302 88.4429 150.902C88.2728 151.501 86.7252 151.931 86.0364 151.761C85.3476 151.591 84.2336 146.863 84.2336 146.608C84.2336 146.353 85.607 144.975 86.5551 145.749Z" fill="white" stroke="#263238" stroke-linecap="round" stroke-linejoin="round"/>
<path d="M83.8891 146.761C83.8891 146.761 85.7684 150.915 85.6111 151.459C85.4538 152.007 84.0464 152.399 83.4172 152.241C82.7922 152.084 81.7717 147.777 81.7717 147.539C81.7717 147.301 83.026 146.051 83.8849 146.756L83.8891 146.761Z" fill="white" stroke="#263238" stroke-linecap="round" stroke-linejoin="round"/>
<path d="M81.6317 147.688C81.6317 147.688 83.3366 151.455 83.1963 151.956C83.056 152.454 81.7762 152.811 81.2065 152.666C80.6367 152.522 79.7141 148.614 79.7141 148.402C79.7141 148.189 80.8536 147.05 81.6359 147.692L81.6317 147.688Z" fill="white" stroke="#263238" stroke-linecap="round" stroke-linejoin="round"/>
<path d="M80.8022 138.104C80.8022 138.104 81.7461 137.675 83.0344 137.76C84.3227 137.845 87.9325 138.878 88.4469 139.562C88.9614 140.251 90.2497 144.975 89.7352 145.319C89.2208 145.664 83.8933 147.641 83.1195 147.896C82.3456 148.155 82.1756 146.608 82.605 145.919C83.0344 145.23 84.1526 144.631 84.1526 144.631C84.1526 144.631 81.9205 144.46 81.0616 143.083" fill="white"/>
<path d="M80.8022 138.104C80.8022 138.104 81.7461 137.675 83.0344 137.76C84.3227 137.845 87.9325 138.878 88.4469 139.562C88.9614 140.251 90.2497 144.975 89.7352 145.319C89.2208 145.664 83.8933 147.641 83.1195 147.896C82.3456 148.155 82.1756 146.608 82.605 145.919C83.0344 145.23 84.1526 144.631 84.1526 144.631C84.1526 144.631 81.9205 144.46 81.0616 143.083" stroke="#263238" stroke-linecap="round" stroke-linejoin="round"/>
<path d="M87.6731 143.432C86.2147 143.172 84.1526 144.635 84.1526 144.635C84.1526 144.635 85.4409 142.313 86.3848 141.973" stroke="#263238" stroke-linecap="round" stroke-linejoin="round"/>
<path d="M76.2233 143.538L67.4604 146.187L72.2139 159.541L80.9768 156.893C81.9802 156.535 81.7294 153.257 80.4156 149.567C79.1018 145.876 77.2268 143.181 76.2233 143.538Z" fill="#53E88B" stroke="#263238" stroke-linecap="round" stroke-linejoin="round"/>
<path d="M71.6528 152.22C72.9666 155.906 73.2174 159.189 72.214 159.546C71.2106 159.903 69.3313 157.203 68.0218 153.517C66.7122 149.83 66.4571 146.548 67.4605 146.191C68.464 145.834 70.3432 148.534 71.6528 152.22Z" fill="#263238" stroke="#263238" stroke-linecap="round" stroke-linejoin="round"/>
<path d="M72.9495 170.911L64.7606 146.999C64.7606 146.999 63.8167 138.959 63.3405 133.049C62.8686 127.139 59.6755 120.514 59.6755 120.514C59.6755 120.514 54.2375 125.719 43.8334 127.725C33.4293 129.737 20.0702 123.112 17.3491 121.577L14.628 120.043C14.628 120.043 4.81489 136.357 4.93394 149.01C5.05299 161.659 8.71801 171 8.71801 171" fill="#263238"/>
<path d="M72.9495 170.911L64.7606 146.999C64.7606 146.999 63.8167 138.959 63.3405 133.049C62.8686 127.139 59.6755 120.514 59.6755 120.514C59.6755 120.514 54.2375 125.719 43.8334 127.725C33.4293 129.737 20.0702 123.112 17.3491 121.577L14.628 120.043C14.628 120.043 4.81489 136.357 4.93394 149.01C5.05299 161.659 8.71801 171 8.71801 171" stroke="#263238" stroke-linecap="round" stroke-linejoin="round"/>
<path d="M40.8784 157.637L43.0043 171" stroke="#8C8C8C" stroke-linecap="round" stroke-linejoin="round"/>
<path d="M42.0603 163.551L49.3904 156.927" stroke="#8C8C8C" stroke-linecap="round" stroke-linejoin="round"/>
<path d="M58.0424 109.086C58.0424 109.086 60.3851 115.076 60.3851 118.265C60.3851 121.454 58.965 123.822 54.237 126.658C49.5091 129.494 39.8108 130.676 31.4178 129.379C23.0248 128.078 15.1037 122.759 14.6275 120.038C14.1513 117.317 17.9949 110.055 17.9949 110.055C17.9949 110.055 44.7046 112.198 58.0424 109.086Z" fill="white" stroke="#263238" stroke-linecap="round" stroke-linejoin="round"/>
<path d="M48.0046 58.7872C48.0046 58.7872 55.2368 58.3536 58.583 64.8333C61.9291 71.313 60.7429 88.7963 60.7429 88.7963C60.7429 88.7963 49.4077 67.8563 48.6551 64.6164C47.8983 61.3766 48.0088 58.7872 48.0088 58.7872H48.0046Z" fill="white" stroke="#263238" stroke-linecap="round" stroke-linejoin="round"/>
<path d="M29.8704 41.406C29.8704 41.406 28.6842 54.3569 27.3874 56.6273C26.0906 58.8935 15.5122 62.3502 9.35988 68.1752C3.20757 74.0043 7.63367 90.3014 9.25359 96.0243C10.8735 101.747 17.9952 110.055 17.9952 110.055C17.9952 110.055 23.3907 113.184 37.8553 112.755C52.3198 112.321 57.9321 109.843 58.0384 109.086C58.1447 108.329 57.9321 106.496 57.9321 106.496C57.9321 106.496 62.0351 102.717 63.0045 97.5379C63.9739 92.355 61.5631 84.7231 58.149 80.1609C55.8445 77.0826 51.6735 67.8563 50.1599 64.9396C48.6505 62.0271 48 58.7872 48 58.7872C48 58.7872 44.437 58.4641 43.897 57.1673C43.357 55.8705 44.1139 52.3118 44.1139 52.3118C44.1139 52.3118 41.2014 53.6086 29.8662 41.4103L29.8704 41.406Z" fill="white" stroke="#263238" stroke-linecap="round" stroke-linejoin="round"/>
<path d="M35.1765 50.3305C35.1765 50.3305 35.9163 52.6775 38.3866 54.9011C40.8569 57.1248 43.9011 57.1673 43.9011 57.1673L44.118 52.3118L35.1765 50.3305Z" fill="#263238" stroke="#263238" stroke-linecap="round" stroke-linejoin="round"/>
<path d="M50.1642 64.9396C48.6548 62.0271 48.0043 58.7873 48.0043 58.7873C48.0043 58.7873 46.6608 58.664 45.5 58.2686C45.7339 59.5441 46.5545 63.0646 49.3011 69.472C52.8641 77.7842 54.5435 79.047 54.7731 82.6567C55.1856 89.0896 49.5392 92.0489 41.767 90.3227C33.9947 88.5964 30.9505 82.4229 29.6537 78.5368C28.3569 74.6506 27.2769 72.2781 25.4444 67.5289C24.3305 64.642 22.9019 61.7295 22.2939 59.9735C20.9333 60.6836 19.4027 61.4701 17.8337 62.3375C19.003 63.7066 22.7063 68.5153 25.6613 77.5716C29.2242 88.4731 19.1858 101.751 15.2997 103.584C14.6832 103.873 14.1602 104.154 13.6968 104.417C15.8822 107.589 17.9996 110.059 17.9996 110.059C17.9996 110.059 23.3951 113.189 37.8596 112.759C52.3241 112.326 57.9365 109.847 58.0427 109.09C58.149 108.333 57.9365 106.501 57.9365 106.501C57.9365 106.501 62.0394 102.721 63.0088 97.5422C63.9782 92.3593 61.3889 84.0513 58.1533 80.1652C55.6915 77.2145 51.6779 67.8606 50.1642 64.9438V64.9396Z" fill="#53E88B" stroke="#263238" stroke-linecap="round" stroke-linejoin="round"/>
<path d="M43.6931 58.9148L44.0928 61.8485C44.0928 61.8485 46.2272 62.1164 48.4934 61.0492" stroke="#263238" stroke-linecap="round" stroke-linejoin="round"/>
<path d="M26.7583 65.4498C26.7583 65.4498 33.9566 63.8511 35.0237 63.715C36.0909 63.579 37.5578 63.8468 37.5578 63.8468" stroke="#263238" stroke-linecap="round" stroke-linejoin="round"/>
<path d="M35.6824 108.21C39.1816 108.384 47.2217 108.405 55.5041 105.782" stroke="#263238" stroke-linecap="round" stroke-linejoin="round"/>
<path d="M33.8542 108.074C33.8542 108.074 34.2071 108.112 34.8534 108.159" stroke="#263238" stroke-linecap="round" stroke-linejoin="round"/>
<path d="M48.4038 108.992C47.2218 109.171 45.9717 109.311 44.6792 109.388" stroke="#263238" stroke-linecap="round" stroke-linejoin="round"/>
<path d="M57.9362 106.496C57.9362 106.496 54.5433 107.899 49.7175 108.775" stroke="#263238" stroke-linecap="round" stroke-linejoin="round"/>
<path d="M45.7423 10.3553C45.7423 10.3553 44.9174 6.15032 40.4658 2.93173C36.0142 -0.282612 27.8508 1.28204 26.4477 2.18767C25.0447 3.09329 24.139 4.4156 24.139 4.4156L28.8415 4.82802C28.8415 4.82802 22.162 6.31188 20.3465 9.53048C18.531 12.7448 19.0284 14.8069 19.0284 14.8069L21.2563 13.4889C21.2563 13.4889 18.2886 17.4473 19.36 22.0647C20.4315 26.6821 28.2675 31.6312 32.5533 29.8157C36.8433 28.0002 38.5738 17.4473 40.4701 15.7976C42.3664 14.1479 45.3341 13.9821 45.6658 13.2423C45.9974 12.4982 45.7465 10.3553 45.7465 10.3553H45.7423Z" fill="#263238" stroke="#263238" stroke-linecap="round" stroke-linejoin="round"/>
<path d="M54.3268 30.4237C54.3268 30.4237 52.3794 36.2784 53.9101 43.3278C55.4407 50.3815 52.6005 53.2982 51.1507 53.9827C49.7008 54.6673 49.2841 54.2634 49.2841 54.2634C49.2841 54.2634 52.0223 53.2897 52.6686 50.8704C53.3148 48.4512 53.0937 44.7394 53.0937 44.7394C53.0937 44.7394 51.2952 49.9521 50.2918 52.1077C49.2884 54.2634 47.9236 54.1656 47.9236 54.1656C47.9236 54.1656 53.3616 47.7666 52.0436 41.6228C50.7255 35.479 54.3268 30.4237 54.3268 30.4237Z" fill="#263238" stroke="#263238" stroke-linecap="round" stroke-linejoin="round"/>
<path d="M28.429 26.7629C28.429 26.7629 29.7768 14.5561 38.2421 11.4268C46.4863 8.37398 54.9005 11.2609 58.2807 17.2814C61.6608 23.302 59.2713 30.1473 58.3614 33.3616C57.4516 36.576 55.5595 38.5573 55.5595 39.7946C55.5595 41.0318 55.4787 43.753 54.403 45.4834C53.3316 47.2139 47.2303 52.2438 45.4148 53.2344C43.5993 54.2251 40.8782 54.9649 38.4887 53.4002C36.0992 51.8356 29.4196 45.8959 28.8414 42.0225C28.2632 38.1449 28.1824 32.7026 28.1824 32.7026L28.429 26.7671V26.7629Z" fill="white" stroke="#263238" stroke-linecap="round" stroke-linejoin="round"/>
<path d="M58.2768 17.2814C54.8967 11.2609 46.4867 8.37398 38.2382 11.4268C29.7729 14.5603 28.4251 26.7629 28.4251 26.7629L28.3401 28.7612L29.5773 29.0716C29.5773 29.0716 31.8053 28.3275 32.2985 26.9287C32.7917 25.5299 34.0332 24.0503 35.5128 23.2169C37.5749 22.0604 38.7059 20.5978 39.0588 18.4337C39.637 14.8877 43.5104 14.1436 48.047 16.0442C52.5837 17.9405 52.5794 18.2721 56.0446 18.2721C58.06 18.2721 59.6374 20.7934 60.02 24.7603C60.0711 22.3325 59.6501 19.739 58.2726 17.2814H58.2768Z" fill="#263238" stroke="#263238" stroke-linecap="round" stroke-linejoin="round"/>
<path d="M46.0738 31.2995C46.0738 31.2995 44.0968 28.4976 39.4751 29.0716" stroke="#263238" stroke-width="2" stroke-linecap="round" stroke-linejoin="round"/>
<path d="M39.4751 33.2766C39.4751 33.2766 40.6316 35.2537 44.0925 34.9263" stroke="#263238" stroke-linecap="round" stroke-linejoin="round"/>
<path d="M50.364 33.3617C50.364 33.3617 53.6634 32.5368 55.1473 35.5896" stroke="#263238" stroke-width="2" stroke-linecap="round" stroke-linejoin="round"/>
<path d="M49.6199 36.661C49.6199 36.661 50.4447 38.5573 53.9099 38.5573" stroke="#263238" stroke-linecap="round" stroke-linejoin="round"/>
<path d="M49.7006 33.1958C49.7006 33.1958 47.7235 34.1014 47.6385 35.0113C47.5577 35.917 47.8043 40.4536 47.5577 41.1126C47.3111 41.7716 45.249 42.3499 43.9309 40.5344" stroke="#263238" stroke-linecap="round" stroke-linejoin="round"/>
<path d="M39.4751 41.0318C39.4751 41.0318 41.2056 44.6586 45.5764 44.9902" stroke="#263238" stroke-linecap="round" stroke-linejoin="round"/>
<path d="M39.5601 34.2673C39.5601 34.2673 41.2097 35.1729 42.9402 35.3387" stroke="#263238" stroke-linecap="round" stroke-linejoin="round"/>
<path d="M49.7856 37.4859C49.7856 37.4859 51.1037 38.8039 52.8384 38.8039" stroke="#263238" stroke-linecap="round" stroke-linejoin="round"/>
<path d="M30.5421 30.3557C30.5421 30.3557 29.3388 24.2331 27.0429 25.5469C24.7469 26.8607 25.2954 32.1074 26.4944 34.0717C27.6976 36.0403 29.3346 35.275 29.3346 35.275" fill="white"/>
<path d="M30.5421 30.3557C30.5421 30.3557 29.3388 24.2331 27.0429 25.5469C24.7469 26.8607 25.2954 32.1074 26.4944 34.0717C27.6976 36.0403 29.3346 35.275 29.3346 35.275" stroke="#263238" stroke-linecap="round" stroke-linejoin="round"/>
<path d="M31.061 27.8046C31.061 27.8046 30.6273 33.9569 26.5286 39.8924C22.4256 45.8278 23.9393 49.6077 25.0192 50.7939C26.0992 51.9802 26.6392 51.7633 26.6392 51.7633C26.6392 51.7633 24.4792 49.8203 24.8024 47.3372C25.1255 44.8542 26.7454 41.508 26.7454 41.508C26.7454 41.508 26.4223 47.0141 26.5286 49.3866C26.6349 51.7633 27.9317 52.1928 27.9317 52.1928C27.9317 52.1928 25.3424 44.2037 28.9011 39.025C32.4641 33.8421 31.061 27.8003 31.061 27.8003V27.8046Z" fill="#263238" stroke="#263238" stroke-linecap="round" stroke-linejoin="round"/>
<path d="M48.2296 79.3871L39.1605 78.1371L37.9062 92.2572L46.9753 93.5072C48.0382 93.6007 49.1777 90.5182 49.5221 86.6193C49.8707 82.7205 49.2882 79.4806 48.2296 79.3871Z" fill="#53E88B" stroke="#263238" stroke-linecap="round" stroke-linejoin="round"/>
<path d="M40.4534 85.3693C40.1048 89.2682 38.9653 92.355 37.9066 92.2572C36.8479 92.1594 36.2654 88.9238 36.6141 85.0249C36.9627 81.1261 38.1022 78.0393 39.1609 78.1371C40.2238 78.2306 40.8021 81.4705 40.4534 85.3693Z" fill="#263238" stroke="#263238" stroke-linecap="round" stroke-linejoin="round"/>
<path d="M13.8073 65.2755C13.8073 65.2755 5.65238 68.3623 2.68889 75.6498C-0.27459 82.9373 0.835119 93.9324 4.66597 104.06C8.49681 114.188 13.0675 124.073 16.8941 125.06C20.7249 126.046 25.049 114.311 27.0218 110.485C28.9946 106.658 34.0627 96.6493 34.3093 95.4163C34.5559 94.1833 38.1402 90.2291 39.3732 88.9918C40.6062 87.7546 40.3596 85.5352 40.2363 84.7911C40.113 84.0513 38.7524 78.8599 38.3825 78.3667C38.0126 77.8735 37.3961 78.1201 36.8986 77.8735C36.4054 77.6269 31.8348 76.3896 31.8348 76.3896C31.8348 76.3896 29.7344 75.2799 28.748 75.7731C27.7616 76.2663 27.5107 77.0104 27.5107 77.0104C27.5107 77.0104 27.7573 80.2204 26.8942 82.5674C26.0311 84.9144 24.054 87.7546 24.4239 88.2478C24.7939 88.741 27.1408 92.0786 27.1408 92.0786C27.1408 92.0786 24.7939 96.7726 21.8304 100.357L19.73 92.3295" fill="white"/>
<path d="M13.8073 65.2755C13.8073 65.2755 5.65238 68.3623 2.68889 75.6498C-0.27459 82.9373 0.835119 93.9324 4.66597 104.06C8.49681 114.188 13.0675 124.073 16.8941 125.06C20.7249 126.046 25.049 114.311 27.0218 110.485C28.9946 106.658 34.0627 96.6493 34.3093 95.4163C34.5559 94.1833 38.1402 90.2291 39.3732 88.9918C40.6062 87.7546 40.3596 85.5352 40.2363 84.7911C40.113 84.0513 38.7524 78.8599 38.3825 78.3667C38.0126 77.8735 37.3961 78.1201 36.8986 77.8735C36.4054 77.6269 31.8348 76.3896 31.8348 76.3896C31.8348 76.3896 29.7344 75.2799 28.748 75.7731C27.7616 76.2663 27.5107 77.0104 27.5107 77.0104C27.5107 77.0104 27.7573 80.2204 26.8942 82.5674C26.0311 84.9144 24.054 87.7546 24.4239 88.2478C24.7939 88.741 27.1408 92.0786 27.1408 92.0786C27.1408 92.0786 24.7939 96.7726 21.8304 100.357L19.73 92.3295" stroke="#263238" stroke-linecap="round" stroke-linejoin="round"/>
<path d="M34.3133 95.4163C34.3473 95.2419 34.4536 95.0123 34.6067 94.7445L34.5429 94.5191C30.0616 94.4128 27.1491 92.0786 27.1491 92.0786C27.1491 92.0786 24.8021 96.7726 21.8386 100.357L20.1592 102.963C22.9228 106.892 26.3965 107.874 28.2461 108.112C30.5675 103.55 34.1092 96.4452 34.3176 95.4205L34.3133 95.4163Z" fill="#A1A1A1" stroke="#263238" stroke-linecap="round" stroke-linejoin="round"/>
<path d="M20.1593 102.963C20.1593 102.963 11.0903 109.532 10.6736 113.282" stroke="#263238" stroke-linecap="round" stroke-linejoin="round"/>
<path d="M36.907 77.8777C36.907 77.8777 38.1442 82.695 38.1442 84.9186" stroke="#263238" stroke-linecap="round" stroke-linejoin="round"/>
<path d="M34.6836 77.5078C34.6836 77.5078 35.3001 81.8319 35.5467 83.809" stroke="#263238" stroke-linecap="round" stroke-linejoin="round"/>
<path d="M31.8435 76.3939C31.8435 76.3939 32.5833 81.7043 32.5833 83.0649" stroke="#263238" stroke-linecap="round" stroke-linejoin="round"/>
<path d="M32.417 84.57C32.417 84.57 31.9663 84.9484 31.5879 85.3991" stroke="#263238" stroke-linecap="round" stroke-linejoin="round"/>
<path d="M35.2024 85.2503C35.2024 85.2503 34.7517 85.6287 34.3733 86.0794" stroke="#263238" stroke-linecap="round" stroke-linejoin="round"/>
<path d="M37.9871 85.9263C37.9871 85.9263 37.5364 86.3047 37.158 86.7554" stroke="#263238" stroke-linecap="round" stroke-linejoin="round"/>
<path d="M26.6771 75.8921L17.608 74.6421L16.3538 88.7622L25.4228 90.0123C26.4857 90.1058 27.6252 87.0233 27.9696 83.1244C28.3182 79.2255 27.7358 75.9857 26.6771 75.8921Z" fill="#53E88B" stroke="#263238" stroke-linecap="round" stroke-linejoin="round"/>
<path d="M18.9007 81.8701C18.552 85.769 17.4126 88.8558 16.3539 88.758C15.2952 88.6602 14.7127 85.4246 15.0613 81.5257C15.41 77.6269 16.5494 74.5401 17.6081 74.6379C18.6668 74.7314 19.2493 77.9712 18.9007 81.8701Z" fill="#263238" stroke="#263238" stroke-linecap="round" stroke-linejoin="round"/>
</svg>
