<svg width="41" height="32" viewBox="0 0 41 32" fill="none" xmlns="http://www.w3.org/2000/svg">
<path d="M12.3743 27.8128V19.5633H9.42798V12.4922C9.42798 11.844 9.65897 11.2889 10.1209 10.827C10.5829 10.365 11.1376 10.1344 11.785 10.1352H16.499C17.1472 10.1352 17.7023 10.3662 18.1643 10.8281C18.6263 11.2901 18.8569 11.8448 18.8561 12.4922V19.5633H15.9098V27.8128H12.3743ZM14.142 8.95666C13.4938 8.95666 12.9388 8.72567 12.4768 8.2637C12.0148 7.80172 11.7842 7.24704 11.785 6.59964C11.785 5.95146 12.016 5.39638 12.478 4.9344C12.9399 4.47243 13.4946 4.24183 14.142 4.24262C14.7902 4.24262 15.3453 4.47361 15.8073 4.93558C16.2692 5.39756 16.4998 5.95224 16.499 6.59964C16.499 7.24782 16.2681 7.8029 15.8061 8.26488C15.3441 8.72685 14.7894 8.95745 14.142 8.95666Z" fill="#2E2E2E"/>
<path d="M27.8334 4.68667L27.8267 7.04L25.9467 7.05333L25.9401 8.46L27.8267 8.45333V10.3467L24.5267 10.34V11.7533L27.8267 11.76L27.8267 13.64L25.9401 13.6467V15.06L27.8267 15.0533V16.9467L24.5267 16.94V18.3533L27.8267 18.36L27.8267 20.24H25.9467L25.9401 21.66L27.8267 21.6533V23.5467L24.5334 23.5333L24.5267 24.9533L27.8267 24.96L27.8334 27.3133H22.1667V4.68667H27.8334Z" fill="#2E2E2E"/>
</svg>
