<svg width="20" height="15" viewBox="0 0 20 15" fill="none" xmlns="http://www.w3.org/2000/svg">
<g id="logos:google-gmail" clip-path="url(#clip0_470_6136)">
<path id="Vector" d="M4.54547 14.9262V7.23886L2.14898 5.05779L0 3.84746V13.5696C0 14.3202 0.611328 14.9262 1.36367 14.9262H4.54547Z" fill="#4285F4"/>
<path id="Vector_2" d="M15.4541 14.9262H18.6359C19.3905 14.9262 19.9996 14.3179 19.9996 13.5696V3.84754L17.5655 5.23384L15.4541 7.23886V14.9262Z" fill="#34A853"/>
<path id="Vector_3" d="M4.54582 7.23886L4.21973 4.2352L4.54582 1.36041L10.0004 5.43015L15.4549 1.36041L15.8196 4.08L15.4549 7.23886L10.0004 11.3086L4.54582 7.23886Z" fill="#EA4335"/>
<path id="Vector_4" d="M15.4541 1.36041V7.23886L19.9996 3.84746V2.03868C19.9996 0.361087 18.0746 -0.59526 16.7269 0.410828L15.4541 1.36041Z" fill="#FBBC04"/>
<path id="Vector_5" d="M0 3.84747L2.09055 5.40732L4.54547 7.23887V1.36043L3.27266 0.410841C1.92266 -0.595325 0 0.3611 0 2.03861V3.84739V3.84747Z" fill="#C5221F"/>
</g>
<defs>
<clipPath id="clip0_470_6136">
<rect width="20" height="15" fill="white"/>
</clipPath>
</defs>
</svg>
