<svg width="15" height="15" viewBox="0 0 15 15" fill="none" xmlns="http://www.w3.org/2000/svg">
<g id="logos:linkedin-icon" clip-path="url(#clip0_470_6134)">
<path id="Vector" d="M12.7807 12.7808H10.5582V9.30016C10.5582 8.47018 10.5434 7.40172 9.40225 7.40172C8.24467 7.40172 8.06754 8.30606 8.06754 9.23975V12.7806H5.84508V5.62299H7.97865V6.60115H8.00854C8.22206 6.23606 8.5306 5.93571 8.90132 5.7321C9.27203 5.52849 9.69103 5.42924 10.1137 5.44492C12.3663 5.44492 12.7816 6.92664 12.7816 8.85426L12.7807 12.7808ZM3.33727 4.64465C2.62494 4.64477 2.04738 4.06738 2.04727 3.35506C2.04715 2.64274 2.62447 2.06518 3.3368 2.06506C4.04912 2.06488 4.62668 2.64227 4.6268 3.35459C4.62686 3.69666 4.49103 4.02475 4.2492 4.26668C4.00737 4.50861 3.67934 4.64457 3.33727 4.64465ZM4.44855 12.7809H2.22369V5.62299H4.4485V12.7808L4.44855 12.7809ZM13.8887 0.000977272H1.10689C0.502793 -0.0058196 0.00738281 0.478106 0 1.08221V13.9173C0.00714844 14.5217 0.5025 15.0061 1.10684 14.9998H13.8887C14.4943 15.0073 14.9916 14.5229 15 13.9173V1.08121C14.9914 0.475938 14.494 -0.00792898 13.8887 -1.88222e-05" fill="#0A66C2"/>
</g>
<defs>
<clipPath id="clip0_470_6134">
<rect width="15" height="15" fill="white"/>
</clipPath>
</defs>
</svg>
