<svg width="20" height="20" viewBox="0 0 20 20" fill="none" xmlns="http://www.w3.org/2000/svg">
<g id="mdi:github">
<path id="Vector" d="M10.0003 1.66666C8.90598 1.66666 7.82234 1.88221 6.8113 2.301C5.80025 2.71979 4.88159 3.33362 4.10777 4.10744C2.54497 5.67024 1.66699 7.78986 1.66699 10C1.66699 13.6833 4.05866 16.8083 7.36699 17.9167C7.78366 17.9833 7.91699 17.725 7.91699 17.5V16.0917C5.60866 16.5917 5.11699 14.975 5.11699 14.975C4.73366 14.0083 4.19199 13.75 4.19199 13.75C3.43366 13.2333 4.25033 13.25 4.25033 13.25C5.08366 13.3083 5.52533 14.1083 5.52533 14.1083C6.25033 15.375 7.47533 15 7.95033 14.8C8.02533 14.2583 8.24199 13.8917 8.47533 13.6833C6.62533 13.475 4.68366 12.7583 4.68366 9.58333C4.68366 8.65833 5.00033 7.91666 5.54199 7.325C5.45866 7.11666 5.16699 6.25 5.62533 5.125C5.62533 5.125 6.32533 4.9 7.91699 5.975C8.57533 5.79166 9.29199 5.7 10.0003 5.7C10.7087 5.7 11.4253 5.79166 12.0837 5.975C13.6753 4.9 14.3753 5.125 14.3753 5.125C14.8337 6.25 14.542 7.11666 14.4587 7.325C15.0003 7.91666 15.317 8.65833 15.317 9.58333C15.317 12.7667 13.367 13.4667 11.5087 13.675C11.8087 13.9333 12.0837 14.4417 12.0837 15.2167V17.5C12.0837 17.725 12.217 17.9917 12.642 17.9167C15.9503 16.8 18.3337 13.6833 18.3337 10C18.3337 8.90565 18.1181 7.82201 17.6993 6.81097C17.2805 5.79992 16.6667 4.88126 15.8929 4.10744C15.1191 3.33362 14.2004 2.71979 13.1894 2.301C12.1783 1.88221 11.0947 1.66666 10.0003 1.66666Z" fill="#2E2E2E"/>
</g>
</svg>
