<svg width="20" height="20" viewBox="0 0 20 20" fill="none" xmlns="http://www.w3.org/2000/svg">
<g id="mdi:password-outline">
<path id="Vector" d="M9.99967 14.1666C9.55765 14.1666 9.13372 13.9911 8.82116 13.6785C8.5086 13.3659 8.33301 12.942 8.33301 12.5C8.33301 11.575 9.07467 10.8333 9.99967 10.8333C10.4417 10.8333 10.8656 11.0089 11.1782 11.3215C11.4907 11.634 11.6663 12.058 11.6663 12.5C11.6663 12.942 11.4907 13.3659 11.1782 13.6785C10.8656 13.9911 10.4417 14.1666 9.99967 14.1666ZM14.9997 16.6666V8.33331H4.99967V16.6666H14.9997ZM14.9997 6.66665C15.4417 6.66665 15.8656 6.84224 16.1782 7.1548C16.4907 7.46736 16.6663 7.89129 16.6663 8.33331V16.6666C16.6663 17.1087 16.4907 17.5326 16.1782 17.8452C15.8656 18.1577 15.4417 18.3333 14.9997 18.3333H4.99967C4.55765 18.3333 4.13372 18.1577 3.82116 17.8452C3.5086 17.5326 3.33301 17.1087 3.33301 16.6666V8.33331C3.33301 7.40831 4.07467 6.66665 4.99967 6.66665H5.83301V4.99998C5.83301 3.89491 6.27199 2.8351 7.0534 2.0537C7.8348 1.2723 8.89461 0.833313 9.99967 0.833313C10.5468 0.833313 11.0887 0.941087 11.5942 1.15048C12.0997 1.35988 12.559 1.66679 12.946 2.0537C13.3329 2.44061 13.6398 2.89994 13.8492 3.40547C14.0586 3.91099 14.1663 4.45281 14.1663 4.99998V6.66665H14.9997ZM9.99967 2.49998C9.33663 2.49998 8.70075 2.76337 8.23191 3.23221C7.76307 3.70105 7.49967 4.33694 7.49967 4.99998V6.66665H12.4997V4.99998C12.4997 4.33694 12.2363 3.70105 11.7674 3.23221C11.2986 2.76337 10.6627 2.49998 9.99967 2.49998Z" fill="white"/>
</g>
</svg>
