<svg width="20" height="20" viewBox="0 0 20 20" fill="none" xmlns="http://www.w3.org/2000/svg">
<g id="solar:question-circle-outline">
<path id="Vector" fill-rule="evenodd" clip-rule="evenodd" d="M10.0003 2.29163C7.95595 2.29163 5.9953 3.10375 4.54971 4.54934C3.10412 5.99494 2.29199 7.95558 2.29199 9.99996C2.29199 12.0443 3.10412 14.005 4.54971 15.4506C5.9953 16.8962 7.95595 17.7083 10.0003 17.7083C12.0447 17.7083 14.0053 16.8962 15.4509 15.4506C16.8965 14.005 17.7087 12.0443 17.7087 9.99996C17.7087 7.95558 16.8965 5.99494 15.4509 4.54934C14.0053 3.10375 12.0447 2.29163 10.0003 2.29163ZM1.04199 9.99996C1.04199 5.05246 5.05283 1.04163 10.0003 1.04163C14.9478 1.04163 18.9587 5.05246 18.9587 9.99996C18.9587 14.9475 14.9478 18.9583 10.0003 18.9583C5.05283 18.9583 1.04199 14.9475 1.04199 9.99996ZM10.0003 6.45829C9.48283 6.45829 9.06283 6.87829 9.06283 7.39579C9.06283 7.56155 8.99698 7.72052 8.87977 7.83773C8.76256 7.95494 8.60359 8.02079 8.43783 8.02079C8.27207 8.02079 8.11309 7.95494 7.99588 7.83773C7.87867 7.72052 7.81283 7.56155 7.81283 7.39579C7.8128 7.01272 7.91337 6.63636 8.10448 6.30436C8.29558 5.97236 8.57052 5.69637 8.90178 5.50399C9.23305 5.31161 9.60902 5.2096 9.99209 5.20816C10.3752 5.20672 10.7519 5.3059 11.0846 5.49577C11.4173 5.68565 11.6943 5.95956 11.8879 6.29012C12.0815 6.62067 12.1849 6.99626 12.1878 7.37932C12.1906 7.76238 12.0928 8.13948 11.9042 8.47288C11.7155 8.80629 11.4427 9.08431 11.1128 9.27913C10.968 9.36022 10.8372 9.46404 10.7253 9.58663C10.6403 9.68663 10.6253 9.75329 10.6253 9.79163V10.8333C10.6253 10.9991 10.5595 11.158 10.4423 11.2752C10.3251 11.3924 10.1661 11.4583 10.0003 11.4583C9.83457 11.4583 9.67559 11.3924 9.55838 11.2752C9.44117 11.158 9.37533 10.9991 9.37533 10.8333V9.79163C9.37533 9.36996 9.56033 9.02829 9.77283 8.77746C9.98283 8.52996 10.2445 8.34079 10.477 8.20329C10.6548 8.09922 10.7933 7.93944 10.8711 7.74869C10.9489 7.55794 10.9616 7.34686 10.9073 7.14813C10.8531 6.94941 10.7348 6.77412 10.5708 6.64942C10.4068 6.52471 10.2063 6.45753 10.0003 6.45829ZM10.0003 14.1666C10.2213 14.1666 10.4333 14.0788 10.5896 13.9225C10.7459 13.7663 10.8337 13.5543 10.8337 13.3333C10.8337 13.1123 10.7459 12.9003 10.5896 12.744C10.4333 12.5878 10.2213 12.5 10.0003 12.5C9.77931 12.5 9.56735 12.5878 9.41107 12.744C9.25479 12.9003 9.16699 13.1123 9.16699 13.3333C9.16699 13.5543 9.25479 13.7663 9.41107 13.9225C9.56735 14.0788 9.77931 14.1666 10.0003 14.1666Z" fill="white"/>
</g>
</svg>
