<svg width="20" height="20" viewBox="0 0 20 20" fill="none" xmlns="http://www.w3.org/2000/svg">
<g id="subway:world" clip-path="url(#clip0_506_3895)">
<path id="Vector" d="M9.23047 2.5625C9.27734 2.5625 9.33594 2.58594 9.38672 2.65625C9.16016 2.33203 9.64062 2.47266 9.66797 2.16406C9.94141 1.96094 9.84375 1.82812 9.92188 1.82031L10.0078 1.75C9.83984 1.8125 9.78125 1.82422 9.73438 1.82422H9.65625C9.59766 1.82422 9.5 1.83594 9.26953 1.90625C8.74219 1.94531 8.36328 2.51562 8.18359 2.53125C8 2.62891 8.00781 2.64844 8.05078 2.64844C8.0625 2.64844 8.07812 2.64453 8.09375 2.64453C8.10938 2.64453 8.12109 2.64062 8.13281 2.64062C8.17578 2.64062 8.16406 2.66016 7.91406 2.77734C7.97266 2.79297 7.47656 3.01172 7.47266 3.35547C7.45703 3.48828 7.51172 3.57812 7.60156 3.57812C7.67969 3.57812 7.77734 3.51953 7.88281 3.37109C8.23438 2.96484 8.97656 2.92578 9.29688 2.67969C9.09766 2.66406 9.13672 2.5625 9.23047 2.5625ZM7.44531 2.69922C7.41016 2.69922 7.45703 2.65625 7.50781 2.61328C7.5625 2.57031 7.625 2.52734 7.625 2.52734L7.62109 2.53125C7.83203 2.44922 7.70312 2.42969 7.81641 2.375H7.80859C7.78516 2.375 7.82812 2.34375 7.86719 2.30859C7.90625 2.27734 7.94141 2.24219 7.90625 2.24219C7.88672 2.24219 7.83594 2.25391 7.75 2.28906C7.77734 2.25 7.88281 2.22266 8.03125 2.14062C7.81641 2.21094 7.64844 2.25391 7.62891 2.25391C7.61328 2.25391 7.70312 2.22266 7.97266 2.14062C7.98438 2.14062 7.99609 2.14453 8.00391 2.14453C8.03125 2.14453 8.04297 2.13672 8.03906 2.12891C8.03516 2.12109 8.01953 2.11719 7.99219 2.11719C7.60547 2.14844 7.31641 2.39062 7.40234 2.42188C7.45312 2.40625 7.48828 2.39844 7.51172 2.39844C7.5625 2.39844 7.53906 2.44141 7.4375 2.50391C7.48438 2.61328 6.65625 2.89453 6.5625 2.99609C6.60938 2.96875 6.64062 2.96094 6.65625 2.96094C6.71875 2.96094 6.63672 3.08203 6.55469 3.14062C6.60547 3.1875 6.64453 3.20312 6.67578 3.20312C6.75781 3.20312 6.79297 3.08984 6.86328 3.05469C6.87891 3.08594 6.89453 3.10156 6.91406 3.10156C6.98047 3.10156 7.0625 2.9375 7.12891 2.85156C7.14844 2.87109 7.17187 2.88672 7.20312 2.88672C7.26562 2.88672 7.35938 2.83594 7.50781 2.69141C7.47656 2.69531 7.45313 2.69922 7.44531 2.69922ZM6.54688 3.41797C6.40625 3.50391 6.33203 3.53906 6.30078 3.53906C6.24219 3.53906 6.32031 3.42969 6.39062 3.31641C6.46094 3.20703 6.52344 3.09766 6.43359 3.09766C6.39062 3.09766 6.3125 3.12109 6.1875 3.18359C5.84766 3.41016 5.27344 4.03516 5.01953 4.03516H4.99609C5.40625 3.73438 5.28516 3.14453 5.85938 2.99219C6.42578 2.66797 6.8125 2.76953 7.31641 2.39844C7.16797 2.47266 6.94922 2.55469 6.89844 2.55469C6.86719 2.55469 6.91406 2.51562 7.11719 2.41797C7.09766 2.42188 7.08203 2.42578 7.07031 2.42578C6.93359 2.42578 7.96875 2.05469 8.01953 2.04688C7.59375 2.10547 6.90625 2.46094 6.8125 2.46094C6.80078 2.46094 6.80078 2.45703 6.80078 2.44922C6.81641 2.4375 6.81641 2.42969 6.80078 2.42969C6.75 2.42969 6.53906 2.5 6.32422 2.57031C6.11328 2.64062 5.89844 2.71484 5.85156 2.71484C5.83594 2.71484 5.83594 2.70703 5.85938 2.69141C4.01562 3.73828 2.47656 5.50391 1.99609 7.59766C2.19531 8.05469 2.05859 8.92578 2.38672 9.17969C2.76172 9.49609 2.06641 10.4141 2.25 10.9805C2.4375 12.0039 3.24609 12.7031 3.33203 13.75C3.48047 14.4688 4.02344 15.3477 4.25 15.8047C4.42188 15.9766 4.89453 16.4727 4.97656 16.4727C5.00781 16.4727 4.98828 16.3984 4.86328 16.1992C4.78516 15.9766 4.33203 15.3945 4.55078 15.3945C4.5625 15.3945 4.57422 15.3945 4.58984 15.3984C4.32031 15.125 5.1875 15.1992 4.58203 14.8281C4.51172 14.7422 4.49609 14.7148 4.51172 14.7148C4.53125 14.7148 4.58594 14.7461 4.64844 14.7773C4.71484 14.8086 4.79297 14.8398 4.85547 14.8398C4.95312 14.8398 5.01953 14.7734 4.98047 14.5312C4.99609 14.5391 5.01172 14.5391 5.02344 14.5391C5.125 14.5391 5.08984 14.3398 5.09766 14.1406C5.10547 13.9414 5.15625 13.7422 5.42969 13.7422C5.46094 13.7422 5.49609 13.7461 5.53125 13.75C6.16406 13.4062 5.61328 12.457 6.33984 12.1094C6.3125 11.3203 5.25391 11.2812 4.85547 10.9609C4.78906 11 4.72656 11.0117 4.66406 11.0117C4.59375 11.0117 4.53125 10.9961 4.47656 10.9766C4.42188 10.9609 4.37109 10.9414 4.33594 10.9414C4.32812 10.9414 4.32031 10.9414 4.3125 10.9453C4.99219 10.7656 4.49609 9.82031 3.93359 9.82031H3.89453C3.85156 9.41016 3.64062 9.56641 3.61719 9.22656C3.58203 9.24609 3.54688 9.25391 3.51172 9.25391C3.41797 9.25391 3.33203 9.1875 3.25781 9.125C3.18359 9.05859 3.12109 8.99609 3.06641 8.99609C3.02344 8.99609 2.98438 9.03906 2.94922 9.16406C2.98828 8.97266 2.97656 8.91016 2.9375 8.91016C2.89844 8.91016 2.82812 8.97656 2.75 9.04297C2.67578 9.10938 2.58984 9.17578 2.52344 9.17578H2.50391C2.04688 8.85156 2.50781 8.27734 2.26562 7.83594C2.42188 7.66797 2.48438 7.38281 2.41406 7.38281C2.37891 7.38281 2.30859 7.45312 2.19922 7.64453C2.04297 7.24609 2.45703 6.34375 2.80859 6.29297C2.82031 6.29297 2.82812 6.28906 2.83984 6.28906C2.90234 6.28906 2.96484 6.32031 3.01953 6.38672C3.05078 6.57031 2.97266 6.95703 3.00391 6.95703C3.01953 6.95703 3.05078 6.87891 3.12891 6.67578C3.23047 6.21094 3.94141 5.875 4.01562 5.58984C4.01953 5.59375 4.01953 5.59375 4.02344 5.59375C4.10547 5.59375 4.63281 5.12891 4.86328 5.07812C4.95312 4.98828 5.01562 4.95703 5.0625 4.95703C5.11328 4.95703 5.14062 4.99609 5.16016 5.03125C5.17969 5.07031 5.19531 5.10547 5.21484 5.10547C5.23047 5.10547 5.25 5.08203 5.28516 5.01562C5.16406 4.77734 5.47656 4.55078 5.39062 4.55078C5.35938 4.55078 5.26562 4.58203 5.07422 4.66016C5.04297 4.67578 5.02734 4.67969 5.01953 4.67969C4.99609 4.67969 5.08984 4.61719 5.22656 4.55469C5.36328 4.49219 5.53516 4.42969 5.67969 4.42969C5.75 4.42969 5.8125 4.44531 5.85938 4.48438C6.46484 4.33984 6.13281 4.14062 6.16406 4.14062H6.17188C6.34375 4.03906 6.29297 3.65625 6.54688 3.41797ZM3.83984 5.01562C3.83203 5.01562 3.86719 4.96484 3.98438 4.82031C4.22656 4.64062 4.42188 4.51953 4.19922 4.40234C4.29688 4.35938 4.39062 4.30859 4.48047 4.25391C4.47656 4.44531 4.31641 4.91016 4.23047 4.91016C4.21094 4.91016 4.19141 4.88281 4.18359 4.82422C4.23438 4.73438 4.23828 4.69922 4.21875 4.69922C4.1875 4.69922 4.09766 4.77734 4.01172 4.85938C3.92578 4.93359 3.84766 5.01562 3.83984 5.01562ZM4.0625 5.12109C3.95703 5.12109 3.97656 5.05469 4.30078 4.98828C4.44141 4.96875 4.33203 4.97656 4.5 4.9375C4.33594 5.07031 4.15234 5.12109 4.0625 5.12109ZM10.1367 4.72656C10.1836 4.71875 10.2188 4.71875 10.2461 4.71875C10.3594 4.71875 10.3086 4.76562 10.2422 4.8125C10.1758 4.85938 10.0938 4.90625 10.1406 4.90625C10.168 4.90625 10.2422 4.89062 10.3945 4.84766C11.1641 4.79297 10.0937 4.14062 10.2656 3.92188L10.2188 3.90625C9.90234 4.30859 10.4297 4.31641 10.1367 4.72656ZM9.81641 4.74219C9.87109 4.74219 9.94141 4.67969 10.0156 4.50391C10.1172 4.38281 10.0742 4.36719 9.96484 4.30859C9.66406 4.38672 9.69141 4.74219 9.81641 4.74219ZM12.5117 5.98047C12.5 5.98047 12.4922 5.98438 12.4844 5.98828C12.5156 5.99609 12.5469 6.00391 12.5781 6.00391C12.5469 5.98828 12.5273 5.98047 12.5117 5.98047ZM17.7578 6.95312C17.8242 7.09766 17.8594 7.15625 17.8633 7.15625C17.8906 7.15625 17.3711 5.89062 17.1562 5.66406C16.0352 3.82031 14.1914 2.41016 12.0898 1.88281H12.0859C12.0312 1.88281 12.0938 1.91016 12.168 1.9375C12.2422 1.96484 12.332 1.99219 12.332 1.99219C12.332 1.99219 12.2734 1.97266 12.0938 1.92188C11.8945 1.86328 11.6914 1.82031 11.4844 1.80469C11.4492 1.81641 12.3398 2.16797 12.9375 2.35156C12.7383 2.28906 12.5312 2.23438 12.4805 2.23438C12.4453 2.23438 12.4805 2.25781 12.625 2.32031C12.4492 2.26953 12.375 2.24609 12.3672 2.24609C12.3555 2.24609 12.6016 2.32812 12.832 2.41016C13.0664 2.49219 13.2891 2.57422 13.2266 2.57422C13.2109 2.57422 13.168 2.56641 13.1016 2.55469C13.3008 2.66406 13.3711 2.70703 13.3594 2.70703C13.3398 2.70703 13.0938 2.58984 12.8398 2.47266C12.5898 2.35547 12.3359 2.23828 12.3008 2.23828C12.2812 2.23828 12.332 2.27734 12.5039 2.37891C12.7383 2.48047 12.9727 2.58203 12.9062 2.58203C12.875 2.58203 12.7852 2.5625 12.6094 2.51172C13 2.71094 12.332 2.63281 12.5586 2.90234C12.4336 2.78516 12.3828 2.74609 12.3711 2.74609C12.3594 2.74609 12.3906 2.79297 12.4219 2.83984C12.4531 2.88672 12.4766 2.93359 12.4492 2.93359H12.4414C12.7148 3.23047 12.25 2.96484 12.582 3.23047C12.332 3.11719 11.9062 2.92969 12.0977 2.92969C12.1445 2.92969 12.2344 2.94141 12.375 2.97266C12.1211 2.67578 11.4023 2.66406 11.3867 2.62891C11.207 2.64063 11.2031 2.77734 11.2344 3.02734C11.2305 3.42188 10.8438 3.42969 10.8945 3.65625C10.8945 3.65234 10.8984 3.65234 10.8984 3.65234C10.9062 3.65234 10.9102 3.73047 10.9336 3.8125C10.9609 3.89062 11.0078 3.97266 11.1094 3.97266C11.1641 3.97266 11.2344 3.94922 11.3203 3.89062C11.4414 4.10938 11.5508 4.1875 11.6367 4.1875C11.7656 4.1875 11.8438 4.01172 11.8359 3.85156C11.6953 3.77344 11.5117 3.125 11.7148 3.125C11.7461 3.125 11.7852 3.14063 11.8359 3.17578C11.5195 3.95312 13.0859 3.43359 12.1992 3.78906C12.3984 4.05078 12.0742 4.03906 12.168 4.35547C12.0156 4.39844 11.8477 4.4375 11.6992 4.4375C11.4805 4.4375 11.3125 4.34375 11.332 4.01562C11.0586 4.16016 11.6055 4.64844 11.0625 4.64844H11.0312C10.7695 5.12891 9.78906 4.96484 10.5586 5.47266C10.6016 5.69531 10.4609 5.73438 10.2812 5.73438C10.2344 5.73438 10.1836 5.73047 10.1328 5.72656C10.082 5.72266 10.0312 5.72266 9.98438 5.72266C9.78125 5.72266 9.63672 5.77344 9.76172 6.08984C9.67188 6.41797 9.88281 6.5625 10.1406 6.5625C10.4531 6.5625 10.8359 6.35938 10.8633 6.02344C11.0312 5.76953 11.2461 5.66406 11.4688 5.66406C11.8203 5.66406 12.1914 5.92969 12.4336 6.25781C12.4531 6.28906 12.4688 6.30078 12.4766 6.30078C12.4961 6.30078 12.4766 6.22266 12.4688 6.14453C12.4609 6.08203 12.4609 6.01953 12.4844 6C12.1367 5.90234 11.8711 5.48047 11.9883 5.48047C12.0273 5.48047 12.1094 5.52734 12.2422 5.65234H12.2617C12.4805 5.65234 12.6523 5.82422 12.7852 5.99609C12.9219 6.16797 13.0234 6.33984 13.1133 6.33984C13.1484 6.33984 13.1836 6.30859 13.2148 6.23828C13.1992 6.21484 13.1602 6.14844 13.1406 6.08203C13.1172 6 13.1172 5.91797 13.2227 5.91797C13.2656 5.91797 13.3242 5.93359 13.4062 5.96484C13.6719 5.89453 13.2383 5.20312 13.5898 5.20312C13.625 5.20312 13.668 5.21094 13.7227 5.22656C13.7187 5.34766 13.7734 5.39062 13.8242 5.39062C13.9258 5.39062 14.0273 5.24609 13.7812 5.20312C13.875 5.11328 13.9297 5.07812 13.9688 5.07812C14.1055 5.07812 13.9961 5.53125 14.4688 5.53125C14.6289 5.91016 13.0781 5.55859 13.5742 6.28516C13.6875 6.36719 13.8281 6.38281 13.9648 6.38281C14.0078 6.38281 14.0469 6.38281 14.0859 6.37891C14.125 6.37891 14.1641 6.375 14.1992 6.375C14.4414 6.375 14.6133 6.43359 14.5078 6.93359C14.3789 7.02734 14.2344 7.05859 14.0859 7.05859C13.9531 7.05859 13.8203 7.03516 13.6914 7.01172C13.5625 6.98828 13.4375 6.96484 13.3242 6.96484C13.1484 6.96484 13.0078 7.02344 12.9219 7.22656C12.4648 7.03906 11.8633 7.03125 11.9219 6.46484C11.125 6.57812 10.293 6.51953 9.70703 7.00781C9.67188 7.72266 8.44531 7.95312 8.74219 8.76562C8.38672 9.51562 9.17188 10.5664 9.97266 10.5664C10 10.5664 10.0312 10.5664 10.0586 10.5625C10.4961 10.5586 10.9375 10.3633 11.3242 10.3633C11.5234 10.3633 11.7031 10.4141 11.8594 10.5703C11.8945 10.5664 11.9258 10.5625 11.9531 10.5625C12.5508 10.5625 11.7617 11.5117 12.4766 11.6719C13.125 12.3438 12.0781 13.0352 12.5898 13.6797C12.6445 14.1836 12.8945 14.6055 12.8945 15.0977C12.9609 15.1055 13.0234 15.1094 13.0898 15.1094C13.9141 15.1094 14.4297 14.3906 14.9141 13.8477C14.7656 13.0352 16.0664 12.875 15.6211 11.9648C15.4141 10.9688 16.6016 10.3789 16.5352 9.38281C16.5469 9.24219 16.5078 9.19922 16.4492 9.19922C16.3906 9.19922 16.3047 9.24219 16.2227 9.28125C16.1367 9.32422 16.043 9.36328 15.9688 9.36328C15.8711 9.36328 15.7969 9.29688 15.7891 9.07812C15.2148 8.54297 14.9531 7.81641 14.418 7.22656C15.1133 7.5625 15.5078 8.32031 15.8281 9.00781C15.8555 9.01562 15.8828 9.01953 15.9141 9.01953C16.4805 9.01953 17.2695 7.66406 16.4102 7.33594C16.3633 7.46484 16.3008 7.51172 16.2266 7.51172C16.0977 7.51172 15.9492 7.35547 15.8438 7.20312C15.7383 7.04688 15.6836 6.89062 15.7422 6.89062C15.7812 6.89062 15.8672 6.95312 16.0156 7.11719C16.1836 7.22266 16.3477 7.25 16.5195 7.25C16.6875 7.25 16.8594 7.22266 17.0391 7.20703C17.2656 7.29688 17.3633 7.58594 17.4336 7.58594C17.4453 7.58594 17.4609 7.57422 17.4727 7.54688C17.6523 7.97656 17.8594 8.74219 18.0469 8.94922C17.9492 8.29297 17.9258 7.59766 17.7578 6.95312ZM15.5781 6.05078C15.1367 5.9375 14.9922 5.39062 14.6445 5.07422C14.6406 4.98828 14.7695 5.00391 14.7383 4.85938C15.207 5.00391 15.0547 5.14844 15.0117 5.17578C15.1836 5.46094 15.6641 5.65625 15.5781 6.05078ZM9.51172 3.07812C9.08594 3.20313 9.02734 3.06641 9.10156 3.32812C9.13281 3.35156 9.19141 3.35938 9.25 3.35938C9.45703 3.36328 9.73828 3.24219 9.51172 3.07812ZM15.7656 13.8398C16.3242 13.3672 16.3945 12.8047 16.4219 12.2344C16.1719 12.7227 15.4297 13.2617 15.7656 13.8398ZM13.2227 6.22266C13.2188 6.22656 13.2188 6.22656 13.2188 6.23047C13.2227 6.23828 13.2266 6.23828 13.2266 6.23828C13.2266 6.23828 13.2266 6.23438 13.2227 6.22266ZM10 0C4.47656 0 0 4.47656 0 10C0 15.5234 4.47656 20 10 20C15.5234 20 20 15.5234 20 10C20 4.47656 15.5234 0 10 0ZM10 19.2305C4.90234 19.2305 0.769531 15.0977 0.769531 10C0.769531 4.90234 4.90234 0.769531 10 0.769531C15.0977 0.769531 19.2305 4.90234 19.2305 10C19.2305 15.0977 15.0977 19.2305 10 19.2305Z" fill="white"/>
</g>
<defs>
<clipPath id="clip0_506_3895">
<rect width="20" height="20" fill="white"/>
</clipPath>
</defs>
</svg>
