<svg width="22" height="22" viewBox="0 0 22 22" fill="none" xmlns="http://www.w3.org/2000/svg">
<path d="M2.24094 0.921875L0.921875 2.18047V19.8266L2.14625 21.0781H19.8266L21.0781 19.8266V2.17484L19.8266 0.921875H2.24094ZM10.5781 2.37828V4.25H11.4219V2.37828C12.6078 2.39234 13.7891 2.46406 14.9188 2.59531L14.3422 4.89688L15.1578 5.10312L15.7578 2.70547C17.0328 2.89156 18.2188 3.15641 19.25 3.5L17 8.75C15.7766 8.44531 14.0516 8.2625 12.2422 8.20625C12.4344 8.46406 12.5469 8.78281 12.5469 9.125C12.5469 9.97344 11.8484 10.6719 11 10.6719C10.1516 10.6719 9.45312 9.97344 9.45312 9.125C9.45312 8.78281 9.56563 8.46406 9.75781 8.20625C7.94375 8.2625 6.22344 8.44531 5 8.75L2.75 3.5C3.78125 3.15641 4.96719 2.89156 6.24219 2.70547L6.84219 5.10312L7.65781 4.89688L7.08125 2.59531C8.21094 2.46406 9.39219 2.39234 10.5781 2.37828ZM9.13906 3.33406L8.36094 3.66594L10.1469 7.83594C10.3859 7.68125 10.6625 7.5875 10.9625 7.57812L9.13906 3.33406ZM11 8.42188C10.6062 8.42188 10.2969 8.73125 10.2969 9.125C10.2969 9.51875 10.6062 9.82812 11 9.82812C11.3938 9.82812 11.7031 9.51875 11.7031 9.125C11.7031 8.73125 11.3938 8.42188 11 8.42188ZM5 15.8281H17V16.6719H5V15.8281ZM5 18.0781H17V18.9219H5V18.0781Z" fill="#2E2E2E"/>
</svg>
